<svg width="21" height="20" viewBox="0 0 21 20" fill="none" xmlns="http://www.w3.org/2000/svg">
<path d="M6.76658 9.25C6.35237 9.25 6.01658 9.58579 6.01658 10C6.01658 10.4142 6.35237 10.75 6.76658 10.75V9.25ZM13.4332 10.75C13.8475 10.75 14.1832 10.4142 14.1832 10C14.1832 9.58579 13.8475 9.25 13.4332 9.25V10.75ZM9.34991 13.3333C9.34991 13.7475 9.6857 14.0833 10.0999 14.0833C10.5141 14.0833 10.8499 13.7475 10.8499 13.3333H9.34991ZM10.8499 6.66667C10.8499 6.25245 10.5141 5.91667 10.0999 5.91667C9.6857 5.91667 9.34991 6.25245 9.34991 6.66667H10.8499ZM10.0999 16.75C6.37199 16.75 3.34991 13.7279 3.34991 10H1.84991C1.84991 14.5563 5.54357 18.25 10.0999 18.25V16.75ZM3.34991 10C3.34991 6.27208 6.37199 3.25 10.0999 3.25V1.75C5.54357 1.75 1.84991 5.44365 1.84991 10H3.34991ZM10.0999 3.25C13.8278 3.25 16.8499 6.27208 16.8499 10H18.3499C18.3499 5.44365 14.6563 1.75 10.0999 1.75V3.25ZM16.8499 10C16.8499 13.7279 13.8278 16.75 10.0999 16.75V18.25C14.6563 18.25 18.3499 14.5563 18.3499 10H16.8499ZM6.76658 10.75H13.4332V9.25H6.76658V10.75ZM10.8499 13.3333V6.66667H9.34991V13.3333H10.8499Z" fill="#0D4BA0"/>
</svg>
