<svg width="21" height="20" viewBox="0 0 21 20" fill="none" xmlns="http://www.w3.org/2000/svg">
<path d="M5.14315 16.4849L5.48364 15.8167L5.14315 16.4849ZM4.41497 15.7566L3.74672 16.0971H3.74672L4.41497 15.7566ZM17.3852 15.7566L16.7169 15.4162L17.3852 15.7566ZM16.6565 16.4849L16.316 15.8167L16.6565 16.4849ZM16.6565 3.51495L16.997 2.84669L16.6565 3.51495ZM17.3852 4.24333L16.7169 4.58382L17.3852 4.24333ZM5.14315 3.51495L5.48364 4.1832L5.14315 3.51495ZM4.41497 4.24333L5.08323 4.58382L4.41497 4.24333ZM14.2333 13.3333V12.5833C13.8191 12.5833 13.4833 12.9191 13.4833 13.3333H14.2333ZM14.235 13.3333L14.9848 13.3508C14.9895 13.1489 14.9126 12.9537 14.7715 12.8092C14.6303 12.6647 14.4369 12.5833 14.235 12.5833V13.3333ZM14.2349 13.335L14.217 14.0847C14.4159 14.0895 14.6086 14.015 14.7526 13.8777C14.8966 13.7403 14.9801 13.5514 14.9847 13.3525L14.2349 13.335ZM14.2333 13.3349H13.4833C13.4833 13.7421 13.8083 14.075 14.2154 14.0847L14.2333 13.3349ZM10.9 13.3333V12.5833C10.4858 12.5833 10.15 12.9191 10.15 13.3333H10.9ZM10.9016 13.3333L11.6514 13.3508C11.6562 13.1489 11.5793 12.9537 11.4381 12.8092C11.297 12.6647 11.1036 12.5833 10.9016 12.5833V13.3333ZM10.9016 13.335L10.8837 14.0847C11.0826 14.0895 11.2753 14.015 11.4193 13.8777C11.5632 13.7403 11.6468 13.5514 11.6514 13.3525L10.9016 13.335ZM10.9 13.3349H10.15C10.15 13.7421 10.4749 14.075 10.882 14.0847L10.9 13.3349ZM7.56665 13.3333V12.5833C7.15243 12.5833 6.81665 12.9191 6.81665 13.3333H7.56665ZM7.56831 13.3333L8.31811 13.3508C8.32283 13.1489 8.24593 12.9537 8.1048 12.8092C7.96368 12.6647 7.77026 12.5833 7.56831 12.5833V13.3333ZM7.56828 13.335L7.55034 14.0847C7.74926 14.0895 7.94193 14.015 8.08592 13.8777C8.22991 13.7403 8.31342 13.5514 8.31807 13.3525L7.56828 13.335ZM7.56665 13.3349H6.81665C6.81665 13.7421 7.1416 14.075 7.54871 14.0847L7.56665 13.3349ZM14.2349 9.99996H14.9849C14.9849 9.58574 14.6492 9.24996 14.2349 9.24996V9.99996ZM14.2349 10.0016L14.217 10.7514C14.419 10.7562 14.6143 10.6794 14.7589 10.5383C14.9034 10.3971 14.9849 10.2036 14.9849 10.0016H14.2349ZM14.2333 10.0016H13.4833C13.4833 10.4088 13.8083 10.7416 14.2154 10.7514L14.2333 10.0016ZM14.2333 9.99996V9.24996C13.8191 9.24996 13.4833 9.58574 13.4833 9.99996H14.2333ZM10.9 9.99996V9.24996C10.4858 9.24996 10.15 9.58574 10.15 9.99996H10.9ZM10.9016 9.99996L11.6514 10.0175C11.6562 9.81558 11.5793 9.62032 11.4381 9.47586C11.297 9.3314 11.1036 9.24996 10.9016 9.24996V9.99996ZM10.9016 10.0016L10.8837 10.7514C11.0826 10.7562 11.2753 10.6817 11.4193 10.5443C11.5632 10.407 11.6468 10.2181 11.6514 10.0191L10.9016 10.0016ZM10.9 10.0016H10.15C10.15 10.4088 10.4749 10.7416 10.882 10.7514L10.9 10.0016ZM7.56665 9.99996V9.24996C7.15243 9.24996 6.81665 9.58574 6.81665 9.99996H7.56665ZM7.56831 9.99996L8.31811 10.0175C8.32283 9.81558 8.24593 9.62032 8.1048 9.47586C7.96368 9.3314 7.77026 9.24996 7.56831 9.24996V9.99996ZM7.56828 10.0016L7.55034 10.7514C7.74926 10.7562 7.94193 10.6817 8.08592 10.5443C8.22991 10.407 8.31342 10.2181 8.31807 10.0191L7.56828 10.0016ZM7.56665 10.0016H6.81665C6.81665 10.4088 7.1416 10.7416 7.54871 10.7514L7.56665 10.0016ZM4.23331 5.91663C3.8191 5.91663 3.48331 6.25241 3.48331 6.66663C3.48331 7.08084 3.8191 7.41663 4.23331 7.41663V5.91663ZM17.5666 7.41663C17.9809 7.41663 18.3166 7.08084 18.3166 6.66663C18.3166 6.25241 17.9809 5.91663 17.5666 5.91663V7.41663ZM14.9833 1.66663C14.9833 1.25241 14.6475 0.916626 14.2333 0.916626C13.8191 0.916626 13.4833 1.25241 13.4833 1.66663H14.9833ZM13.4833 3.33329C13.4833 3.74751 13.8191 4.08329 14.2333 4.08329C14.6475 4.08329 14.9833 3.74751 14.9833 3.33329H13.4833ZM8.31665 1.66663C8.31665 1.25241 7.98086 0.916626 7.56665 0.916626C7.15243 0.916626 6.81665 1.25241 6.81665 1.66663H8.31665ZM6.81665 3.33329C6.81665 3.74751 7.15243 4.08329 7.56665 4.08329C7.98086 4.08329 8.31665 3.74751 8.31665 3.33329H6.81665ZM6.90014 4.08329H14.9001V2.58329H6.90014V4.08329ZM16.8166 5.99992V13.9999H18.3166V5.99992H16.8166ZM14.9001 15.9166H6.90014V17.4166H14.9001V15.9166ZM4.98331 13.9999V5.99992H3.48331V13.9999H4.98331ZM6.90014 15.9166C6.42108 15.9166 6.10677 15.916 5.86638 15.8964C5.6347 15.8775 5.53851 15.8446 5.48364 15.8167L4.80265 17.1532C5.1043 17.3069 5.4199 17.3649 5.74423 17.3914C6.05986 17.4172 6.44579 17.4166 6.90014 17.4166V15.9166ZM3.48331 13.9999C3.48331 14.4543 3.48273 14.8401 3.50851 15.1557C3.53501 15.48 3.59303 15.7955 3.74672 16.0971L5.08323 15.4162C5.05525 15.3613 5.02245 15.2651 5.00353 15.0336C4.9839 14.7932 4.98331 14.479 4.98331 13.9999H3.48331ZM5.48364 15.8167C5.31127 15.7289 5.17117 15.5888 5.08323 15.4162L3.74672 16.0971C3.97835 16.5518 4.34781 16.9214 4.80265 17.1532L5.48364 15.8167ZM16.8166 13.9999C16.8166 14.4791 16.8161 14.7933 16.7965 15.0337C16.7776 15.2653 16.7448 15.3613 16.7169 15.4162L18.0534 16.0971C18.2072 15.7954 18.2651 15.4798 18.2915 15.1556C18.3173 14.8401 18.3166 14.4542 18.3166 13.9999H16.8166ZM14.9001 17.4166C15.3545 17.4166 15.7403 17.4172 16.0558 17.3914C16.38 17.3649 16.6954 17.3068 16.997 17.1532L16.316 15.8167C16.261 15.8447 16.1649 15.8775 15.9335 15.8964C15.6933 15.916 15.3792 15.9166 14.9001 15.9166V17.4166ZM16.7169 15.4162C16.6292 15.5883 16.4888 15.7286 16.316 15.8167L16.997 17.1532C17.4513 16.9217 17.8215 16.5523 18.0534 16.0971L16.7169 15.4162ZM14.9001 4.08329C15.3792 4.08329 15.6934 4.08388 15.9336 4.10351C16.165 4.12242 16.261 4.1552 16.316 4.1832L16.997 2.84669C16.6954 2.69304 16.38 2.63499 16.0557 2.60849C15.7403 2.58271 15.3545 2.58329 14.9001 2.58329V4.08329ZM18.3166 5.99992C18.3166 5.54566 18.3173 5.15981 18.2915 4.84433C18.2651 4.52007 18.2071 4.20452 18.0534 3.90283L16.7169 4.58382C16.7449 4.63865 16.7776 4.73469 16.7965 4.96624C16.8161 5.20657 16.8166 5.52076 16.8166 5.99992H18.3166ZM16.316 4.1832C16.4888 4.27124 16.6292 4.41164 16.7169 4.58382L18.0534 3.90283C17.8216 3.4478 17.4514 3.07823 16.997 2.84669L16.316 4.1832ZM6.90014 2.58329C6.4458 2.58329 6.05987 2.58271 5.74425 2.60849C5.41992 2.63498 5.10431 2.69299 4.80265 2.84669L5.48364 4.1832C5.5385 4.15525 5.63467 4.12243 5.86636 4.10351C6.10676 4.08388 6.42107 4.08329 6.90014 4.08329V2.58329ZM4.98331 5.99992C4.98331 5.52083 4.9839 5.20664 5.00353 4.96636C5.02245 4.73485 5.05524 4.63874 5.08323 4.58382L3.74672 3.90283C3.59304 4.20444 3.53501 4.51991 3.50851 4.84421C3.48273 5.15974 3.48331 5.54558 3.48331 5.99992H4.98331ZM4.80265 2.84669C4.34773 3.07849 3.97831 3.4483 3.74672 3.90283L5.08323 4.58382C5.17121 4.41114 5.31135 4.27099 5.48364 4.1832L4.80265 2.84669ZM14.2333 14.0833H14.235V12.5833H14.2333V14.0833ZM13.4852 13.3158L13.4851 13.3174L14.9847 13.3525L14.9848 13.3508L13.4852 13.3158ZM14.2529 12.5852L14.2513 12.5851L14.2154 14.0847L14.217 14.0847L14.2529 12.5852ZM14.9833 13.3349V13.3333H13.4833V13.3349H14.9833ZM10.9 14.0833H10.9016V12.5833H10.9V14.0833ZM10.1519 13.3158L10.1518 13.3174L11.6514 13.3525L11.6514 13.3508L10.1519 13.3158ZM10.9195 12.5852L10.9179 12.5851L10.882 14.0847L10.8837 14.0847L10.9195 12.5852ZM11.65 13.3349V13.3333H10.15V13.3349H11.65ZM7.56665 14.0833H7.56831V12.5833H7.56665V14.0833ZM6.81852 13.3158L6.81848 13.3174L8.31807 13.3525L8.31811 13.3508L6.81852 13.3158ZM7.58621 12.5852L7.58459 12.5851L7.54871 14.0847L7.55034 14.0847L7.58621 12.5852ZM8.31665 13.3349V13.3333H6.81665V13.3349H8.31665ZM13.4849 9.99996V10.0016H14.9849V9.99996H13.4849ZM14.2529 9.25184L14.2513 9.2518L14.2154 10.7514L14.217 10.7514L14.2529 9.25184ZM14.9833 10.0016V9.99996H13.4833V10.0016H14.9833ZM14.2333 10.75H14.2349V9.24996H14.2333V10.75ZM10.9 10.75H10.9016V9.24996H10.9V10.75ZM10.1519 9.98244L10.1518 9.98411L11.6514 10.0191L11.6514 10.0175L10.1519 9.98244ZM10.9195 9.25184L10.9179 9.2518L10.882 10.7514L10.8837 10.7514L10.9195 9.25184ZM11.65 10.0016V9.99996H10.15V10.0016H11.65ZM7.56665 10.75H7.56831V9.24996H7.56665V10.75ZM6.81852 9.98244L6.81848 9.98411L8.31807 10.0191L8.31811 10.0175L6.81852 9.98244ZM7.58621 9.25184L7.58459 9.2518L7.54871 10.7514L7.55034 10.7514L7.58621 9.25184ZM8.31665 10.0016V9.99996H6.81665V10.0016H8.31665ZM4.23331 7.41663H17.5666V5.91663H4.23331V7.41663ZM13.4833 1.66663V3.33329H14.9833V1.66663H13.4833ZM6.81665 1.66663V3.33329H8.31665V1.66663H6.81665Z" fill="#0D4BA0"/>
</svg>
