<svg width="21" height="20" viewBox="0 0 21 20" fill="none" xmlns="http://www.w3.org/2000/svg">
<path d="M15.3833 17.5C15.3833 17.9142 15.7191 18.25 16.1333 18.25C16.5475 18.25 16.8833 17.9142 16.8833 17.5H15.3833ZM3.71667 17.5C3.71667 17.9142 4.05246 18.25 4.46667 18.25C4.88088 18.25 5.21667 17.9142 5.21667 17.5H3.71667ZM16.8833 17.5C16.8833 13.8641 13.9359 10.9167 10.3 10.9167V12.4167C13.1074 12.4167 15.3833 14.6926 15.3833 17.5H16.8833ZM10.3 10.9167C6.66413 10.9167 3.71667 13.8641 3.71667 17.5H5.21667C5.21667 14.6926 7.49255 12.4167 10.3 12.4167V10.9167ZM10.3 8.41667C8.87327 8.41667 7.71667 7.26007 7.71667 5.83333H6.21667C6.21667 8.0885 8.04484 9.91667 10.3 9.91667V8.41667ZM7.71667 5.83333C7.71667 4.4066 8.87327 3.25 10.3 3.25V1.75C8.04484 1.75 6.21667 3.57817 6.21667 5.83333H7.71667ZM10.3 3.25C11.7267 3.25 12.8833 4.4066 12.8833 5.83333H14.3833C14.3833 3.57817 12.5552 1.75 10.3 1.75V3.25ZM12.8833 5.83333C12.8833 7.26007 11.7267 8.41667 10.3 8.41667V9.91667C12.5552 9.91667 14.3833 8.0885 14.3833 5.83333H12.8833Z" fill="#0D4BA0"/>
</svg>
