<svg width="20" height="21" viewBox="0 0 20 21" fill="none" xmlns="http://www.w3.org/2000/svg">
<path d="M3.33337 17.1666H2.58337C2.58337 17.5809 2.91916 17.9166 3.33337 17.9166V17.1666ZM16.6667 17.9166C17.0809 17.9166 17.4167 17.5809 17.4167 17.1666C17.4167 16.7524 17.0809 16.4166 16.6667 16.4166V17.9166ZM3.33337 13.8333L2.80304 13.303C2.66239 13.4436 2.58337 13.6344 2.58337 13.8333H3.33337ZM12.3906 4.7761L11.8602 4.24577L11.8602 4.24577L12.3906 4.7761ZM14.2762 4.7761L13.7458 5.30643V5.30643L14.2762 4.7761ZM15.7239 6.22381L16.2542 5.69348L16.2542 5.69348L15.7239 6.22381ZM15.7239 8.10943L15.1936 7.5791V7.5791L15.7239 8.10943ZM6.66671 17.1666L6.66671 17.9166C6.86562 17.9166 7.05639 17.8376 7.19704 17.697L6.66671 17.1666ZM16.2808 6.90914L16.9941 6.67738V6.67738L16.2808 6.90914ZM16.2808 7.42411L15.5675 7.19234L16.2808 7.42411ZM13.0759 4.21925L12.8441 3.50596L13.0759 4.21925ZM13.5909 4.21925L13.8227 3.50596L13.5909 4.21925ZM10.5304 6.63631C10.2375 6.34342 9.7626 6.34342 9.46971 6.63631C9.17682 6.9292 9.17682 7.40408 9.46971 7.69697L10.5304 6.63631ZM12.803 11.0303C13.0959 11.3232 13.5708 11.3232 13.8637 11.0303C14.1566 10.7374 14.1566 10.2625 13.8637 9.96964L12.803 11.0303ZM3.33337 17.9166H16.6667V16.4166H3.33337V17.9166ZM4.08337 17.1666V13.8333H2.58337V17.1666H4.08337ZM3.8637 14.3636L12.9209 5.30643L11.8602 4.24577L2.80304 13.303L3.8637 14.3636ZM13.7458 5.30643L15.1936 6.75414L16.2542 5.69348L14.8065 4.24577L13.7458 5.30643ZM15.1936 7.5791L6.13638 16.6363L7.19704 17.697L16.2542 8.63976L15.1936 7.5791ZM6.6667 16.4166L3.33337 16.4166L3.33338 17.9166L6.66671 17.9166L6.6667 16.4166ZM15.1936 6.75414C15.3673 6.9279 15.4653 7.02675 15.5311 7.10427C15.5913 7.1751 15.5793 7.17745 15.5675 7.14091L16.9941 6.67738C16.9204 6.45057 16.795 6.27525 16.6746 6.13349C16.56 5.99842 16.4105 5.84974 16.2542 5.69348L15.1936 6.75414ZM16.2542 8.63976C16.4105 8.4835 16.56 8.33482 16.6747 8.19975C16.795 8.05798 16.9204 7.88267 16.9941 7.65587L15.5675 7.19234C15.5793 7.15581 15.5913 7.15816 15.5311 7.22899C15.4653 7.3065 15.3673 7.40535 15.1936 7.5791L16.2542 8.63976ZM15.5675 7.14091C15.5729 7.15765 15.5729 7.17561 15.5675 7.19234L16.9941 7.65587C17.0974 7.33787 17.0974 6.99538 16.9941 6.67738L15.5675 7.14091ZM12.9209 5.30643C13.0946 5.13268 13.1935 5.03467 13.271 4.96887C13.3418 4.90875 13.3442 4.92068 13.3076 4.93255L12.8441 3.50596C12.6173 3.57965 12.442 3.70499 12.3003 3.82534C12.1652 3.94 12.0165 4.0895 11.8602 4.24577L12.9209 5.30643ZM14.8065 4.24577C14.6503 4.08954 14.5016 3.94004 14.3666 3.82539C14.2248 3.70504 14.0495 3.57967 13.8227 3.50596L13.3592 4.93255C13.3226 4.92066 13.3249 4.9087 13.3957 4.96882C13.4732 5.03463 13.572 5.13264 13.7458 5.30643L14.8065 4.24577ZM13.3076 4.93255C13.3244 4.92711 13.3424 4.92711 13.3592 4.93255L13.8227 3.50596C13.5047 3.40264 13.1621 3.40264 12.8441 3.50596L13.3076 4.93255ZM9.46971 7.69697L12.803 11.0303L13.8637 9.96964L10.5304 6.63631L9.46971 7.69697Z" fill="#212121"/>
</svg>
