<svg width="24" height="24" viewBox="0 0 24 24" fill="none" xmlns="http://www.w3.org/2000/svg">
<path d="M15.5303 13.5303C15.8232 13.2374 15.8232 12.7626 15.5303 12.4697C15.2374 12.1768 14.7626 12.1768 14.4697 12.4697L15.5303 13.5303ZM11 17L10.4697 17.5303C10.7626 17.8232 11.2374 17.8232 11.5303 17.5303L11 17ZM9.53033 14.4697C9.23744 14.1768 8.76256 14.1768 8.46967 14.4697C8.17678 14.7626 8.17678 15.2374 8.46967 15.5303L9.53033 14.4697ZM18.063 7.06274L17.5327 7.59307L18.063 7.06274ZM14.9375 3.93726L15.4678 3.40693L14.9375 3.93726ZM8.2002 21V20.25V21ZM15.8002 21V21.75V21ZM5.21799 19.908L5.88624 19.5675H5.88624L5.21799 19.908ZM6.0918 20.782L6.43229 20.1137L6.0918 20.782ZM6.0918 3.21799L6.43229 3.88624L6.43229 3.88624L6.0918 3.21799ZM5.21799 4.09204L4.54973 3.75155L4.54973 3.75155L5.21799 4.09204ZM14.2168 3.29474L13.8249 3.93422L14.2168 3.29474ZM13.6388 3.05526L13.8138 2.32598V2.32598L13.6388 3.05526ZM18.9443 8.36151L19.6736 8.18643L18.9443 8.36151ZM18.705 7.78343L18.0656 8.17531L18.705 7.78343ZM18.7822 19.908L19.4505 20.2485L18.7822 19.908ZM17.9078 20.782L17.5673 20.1137L17.9078 20.782ZM19.0002 9.75C19.4144 9.75 19.7502 9.41421 19.7502 9C19.7502 8.58579 19.4144 8.25 19.0002 8.25V9.75ZM16.2002 9V8.25V9ZM13.75 3C13.75 2.58579 13.4142 2.25 13 2.25C12.5858 2.25 12.25 2.58579 12.25 3H13.75ZM14.0918 8.78198L14.4323 8.11373L14.0918 8.78198ZM13.218 7.90797L13.8862 7.56748V7.56748L13.218 7.90797ZM14.4697 12.4697L10.4697 16.4697L11.5303 17.5303L15.5303 13.5303L14.4697 12.4697ZM11.5303 16.4697L9.53033 14.4697L8.46967 15.5303L10.4697 17.5303L11.5303 16.4697ZM19.75 17.8V9.3255H18.25V17.8H19.75ZM18.5933 6.53241L15.4678 3.40693L14.4072 4.46759L17.5327 7.59307L18.5933 6.53241ZM12.6747 2.25H8.2002V3.75H12.6747V2.25ZM4.25 6.20001V17.8H5.75V6.20001H4.25ZM8.2002 21.75H15.8002V20.25H8.2002V21.75ZM4.25 17.8C4.25 18.3477 4.24942 18.8035 4.27974 19.1747C4.31078 19.5546 4.37789 19.9112 4.54973 20.2485L5.88624 19.5675C5.8401 19.4769 5.79822 19.3396 5.77476 19.0525C5.75058 18.7566 5.75 18.3724 5.75 17.8H4.25ZM8.2002 20.25C7.62778 20.25 7.24345 20.2494 6.94746 20.2252C6.66018 20.2018 6.52282 20.1599 6.43229 20.1137L5.7513 21.4502C6.0886 21.6221 6.44538 21.6892 6.82532 21.7202C7.19655 21.7506 7.6525 21.75 8.2002 21.75V20.25ZM4.54973 20.2485C4.8133 20.7657 5.2337 21.1865 5.7513 21.4502L6.43229 20.1137C6.19725 19.994 6.00617 19.8028 5.88624 19.5675L4.54973 20.2485ZM8.2002 2.25C7.65251 2.25 7.19656 2.24942 6.82534 2.27974C6.44541 2.31077 6.08861 2.37787 5.7513 2.54973L6.43229 3.88624C6.52281 3.84012 6.66016 3.79822 6.94745 3.77476C7.24344 3.75058 7.62777 3.75 8.2002 3.75V2.25ZM5.75 6.20001C5.75 5.62758 5.75058 5.24337 5.77476 4.9475C5.79822 4.66038 5.8401 4.5231 5.88624 4.43253L4.54973 3.75155C4.37789 4.08881 4.31078 4.44546 4.27974 4.82535C4.24942 5.19647 4.25 5.65234 4.25 6.20001H5.75ZM5.7513 2.54973C5.23366 2.81348 4.81329 3.2343 4.54973 3.75155L5.88624 4.43253C6.00618 4.19714 6.19728 4.00599 6.43229 3.88624L5.7513 2.54973ZM15.4678 3.40693C15.1471 3.08622 14.9038 2.8361 14.6087 2.65526L13.8249 3.93422C13.9335 4.00074 14.0361 4.09649 14.4072 4.46759L15.4678 3.40693ZM12.6747 3.75C13.1996 3.75 13.3399 3.75482 13.4637 3.78454L13.8138 2.32598C13.4773 2.24518 13.1282 2.25 12.6747 2.25V3.75ZM14.6087 2.65526C14.3627 2.50453 14.0945 2.39337 13.8138 2.32598L13.4637 3.78454C13.5911 3.81514 13.713 3.86563 13.8249 3.93422L14.6087 2.65526ZM19.75 9.3255C19.75 8.87095 19.7544 8.52274 19.6736 8.18643L18.2151 8.5366C18.2448 8.66063 18.25 8.80169 18.25 9.3255H19.75ZM17.5327 7.59307C17.9031 7.96353 17.9989 8.06657 18.0656 8.17531L19.3445 7.39156C19.1638 7.09663 18.9147 6.85375 18.5933 6.53241L17.5327 7.59307ZM19.6736 8.18643C19.6063 7.90616 19.4955 7.6379 19.3445 7.39156L18.0656 8.17531C18.1339 8.28686 18.1844 8.40872 18.2151 8.5366L19.6736 8.18643ZM18.25 17.8C18.25 18.3725 18.2495 18.7567 18.2253 19.0526C18.2019 19.3398 18.1601 19.477 18.114 19.5675L19.4505 20.2485C19.6224 19.9111 19.6894 19.5544 19.7204 19.1746C19.7506 18.8035 19.75 18.3476 19.75 17.8H18.25ZM15.8002 21.75C16.3479 21.75 16.8037 21.7506 17.1747 21.7202C17.5546 21.6892 17.9111 21.6221 18.2483 21.4502L17.5673 20.1137C17.4767 20.1599 17.3395 20.2018 17.0525 20.2252C16.7567 20.2494 16.3726 20.25 15.8002 20.25V21.75ZM18.114 19.5675C17.9943 19.8023 17.8028 19.9937 17.5673 20.1137L18.2483 21.4502C18.7654 21.1868 19.1867 20.7662 19.4505 20.2485L18.114 19.5675ZM19.0002 8.25H16.2002V9.75H19.0002V8.25ZM13.75 5.8V3H12.25V5.8H13.75ZM16.2002 8.25C15.6278 8.25 15.2435 8.24941 14.9475 8.22523C14.6602 8.20176 14.5228 8.15985 14.4323 8.11373L13.7513 9.45024C14.0886 9.6221 14.4454 9.6892 14.8253 9.72025C15.1965 9.75058 15.6525 9.75 16.2002 9.75V8.25ZM12.25 5.8C12.25 6.34768 12.2494 6.80354 12.2797 7.17466C12.3108 7.55455 12.3779 7.9112 12.5497 8.24846L13.8862 7.56748C13.8401 7.47691 13.7982 7.33963 13.7748 7.05252C13.7506 6.75664 13.75 6.37243 13.75 5.8H12.25ZM14.4323 8.11373C14.1972 7.99397 14.0062 7.80284 13.8862 7.56748L12.5497 8.24846C12.8133 8.76575 13.2337 9.1865 13.7513 9.45024L14.4323 8.11373Z" fill="white"/>
</svg>
