<svg width="24" height="24" viewBox="0 0 24 24" fill="none" xmlns="http://www.w3.org/2000/svg">
<path d="M9.50295 4.25722L10.1993 3.97868L10.1993 3.97868L9.50295 4.25722ZM10.5572 6.89286L9.86084 7.1714L9.86084 7.17141L10.5572 6.89286ZM10.2368 8.91597L9.66065 8.43583L9.66063 8.43586L10.2368 8.91597ZM9.66943 9.59688L10.2456 10.077L10.2456 10.077L9.66943 9.59688ZM9.79136 12.2915L9.26103 12.8218L9.26105 12.8219L9.79136 12.2915ZM11.7085 14.2085L12.2389 13.6782L12.2389 13.6782L11.7085 14.2085ZM14.4031 14.3307L13.923 13.7545L13.9229 13.7546L14.4031 14.3307ZM15.0842 13.7633L15.5642 14.3395L15.5643 14.3395L15.0842 13.7633ZM17.1071 13.4429L17.3857 12.7465L17.3857 12.7465L17.1071 13.4429ZM19.7426 14.4971L19.464 15.1935L19.4641 15.1935L19.7426 14.4971ZM20.9999 16.354H20.2499V16.3541L20.9999 16.354ZM21 19.1053H21.75V19.1053L21 19.1053ZM7.646 3.75C8.15713 3.75 8.61676 4.06119 8.80659 4.53576L10.1993 3.97868C9.78168 2.93462 8.77048 2.25 7.646 2.25V3.75ZM8.80659 4.53576L9.86084 7.1714L11.2536 6.61432L10.1993 3.97868L8.80659 4.53576ZM9.86084 7.17141C10.0314 7.59779 9.95451 8.0832 9.66065 8.43583L10.813 9.39611C11.4597 8.62006 11.6287 7.55207 11.2536 6.61432L9.86084 7.17141ZM9.66063 8.43586L9.09325 9.11677L10.2456 10.077L10.813 9.39609L9.66063 8.43586ZM9.09327 9.11675C8.18286 10.2092 8.25516 11.816 9.26103 12.8218L10.3217 11.7612C9.8647 11.3042 9.83158 10.5738 10.2456 10.077L9.09327 9.11675ZM9.26105 12.8219L11.1782 14.7389L12.2389 13.6782L10.3217 11.7612L9.26105 12.8219ZM11.1782 14.7389C12.184 15.7446 13.7906 15.8174 14.8832 14.9069L13.9229 13.7546C13.4263 14.1685 12.696 14.1353 12.2389 13.6782L11.1782 14.7389ZM14.8831 14.907L15.5642 14.3395L14.6041 13.1871L13.923 13.7545L14.8831 14.907ZM15.5643 14.3395C15.917 14.0456 16.4023 13.9687 16.8286 14.1392L17.3857 12.7465C16.4479 12.3714 15.3801 12.5405 14.6041 13.1871L15.5643 14.3395ZM16.8286 14.1392L19.464 15.1935L20.0212 13.8008L17.3857 12.7465L16.8286 14.1392ZM19.4641 15.1935C19.9387 15.3834 20.2499 15.843 20.2499 16.354H21.7499C21.7499 15.2295 21.0651 14.2184 20.0211 13.8008L19.4641 15.1935ZM20.2499 16.3541L20.25 19.1054L21.75 19.1053L21.7499 16.354L20.2499 16.3541ZM20.25 19.1053C20.25 19.7376 19.7376 20.25 19.1055 20.25V21.75C20.5662 21.75 21.75 20.5659 21.75 19.1053H20.25ZM19.1055 20.25C10.625 20.25 3.75 13.3752 3.75 4.89478H2.25C2.25 14.2037 9.79658 21.75 19.1055 21.75V20.25ZM3.75 4.89478C3.75 4.26253 4.26254 3.75 4.89474 3.75V2.25C3.43407 2.25 2.25 3.43415 2.25 4.89478H3.75ZM4.89474 3.75H7.646V2.25H4.89474V3.75Z" fill="#212121"/>
</svg>
