<svg width="20" height="20" viewBox="0 0 20 20" fill="none" xmlns="http://www.w3.org/2000/svg">
<g clip-path="url(#clip0_28_2817)">
<path d="M11.7081 5C12.5221 5.1588 13.2701 5.55688 13.8565 6.14328C14.4429 6.72968 14.841 7.47772 14.9998 8.29167M11.7081 1.66667C13.3992 1.85453 14.9761 2.61181 16.18 3.81417C17.3839 5.01653 18.1431 6.59251 18.3331 8.28333M8.52228 11.5526C7.52097 10.5512 6.73031 9.41904 6.15031 8.21102C6.10042 8.10712 6.07548 8.05516 6.05631 7.98942C5.98821 7.75579 6.03713 7.46891 6.17881 7.27105C6.21867 7.21537 6.2663 7.16774 6.36156 7.07248C6.6529 6.78115 6.79857 6.63548 6.89381 6.48899C7.25297 5.93659 7.25297 5.22443 6.89381 4.67203C6.79857 4.52554 6.6529 4.37988 6.36156 4.08854L6.19917 3.92615C5.7563 3.48328 5.53487 3.26184 5.29705 3.14156C4.82408 2.90233 4.26553 2.90233 3.79256 3.14156C3.55474 3.26184 3.33331 3.48328 2.89044 3.92615L2.75908 4.05751C2.31773 4.49886 2.09705 4.71954 1.92851 5.01956C1.74149 5.35249 1.60703 5.86956 1.60816 6.25141C1.60918 6.59554 1.67594 6.83072 1.80944 7.30109C2.52692 9.82892 3.88065 12.2142 5.87063 14.2042C7.86061 16.1942 10.2459 17.5479 12.7737 18.2654C13.2441 18.3989 13.4793 18.4657 13.8234 18.4667C14.2053 18.4678 14.7224 18.3333 15.0553 18.1463C15.3553 17.9778 15.576 17.7571 16.0173 17.3158L16.1487 17.1844C16.5916 16.7415 16.813 16.5201 16.9333 16.2823C17.1725 15.8093 17.1725 15.2508 16.9333 14.7778C16.813 14.54 16.5916 14.3185 16.1487 13.8757L15.9863 13.7133C15.695 13.4219 15.5493 13.2763 15.4028 13.181C14.8504 12.8219 14.1383 12.8219 13.5858 13.181C13.4394 13.2763 13.2937 13.4219 13.0024 13.7133C12.9071 13.8085 12.8595 13.8562 12.8038 13.896C12.6059 14.0377 12.319 14.0866 12.0854 14.0185C12.0197 13.9994 11.9677 13.9744 11.8638 13.9245C10.6558 13.3445 9.5236 12.5539 8.52228 11.5526Z" stroke="#616161" stroke-width="1.5" stroke-linecap="round" stroke-linejoin="round"/>
</g>
<defs>
<clipPath id="clip0_28_2817">
<rect width="20" height="20" fill="white"/>
</clipPath>
</defs>
</svg>
