<?xml version="1.0" encoding="utf-8"?>
<!-- Generator: Adobe Illustrator 23.0.1, SVG Export Plug-In . SVG Version: 6.00 Build 0)  -->
<svg version="1.1" id="Слой_1" xmlns="http://www.w3.org/2000/svg" xmlns:xlink="http://www.w3.org/1999/xlink" x="0px" y="0px"
	 viewBox="0 0 2540.1 2000" style="enable-background:new 0 0 2540.1 2000;" xml:space="preserve">
<style type="text/css">
	.st0{fill:#FFBA55;}
	.st1{fill:#78C2FF;}
	.st2{fill:#8F8F8F;}
	.st3{fill:#F0F0F0;}
	.st4{fill:#FFFFFF;}
	.st5{fill:url(#SVGID_1_);}
	.st6{fill:#CCCCCC;}
	.st7{fill:#F5F7FF;}
	.st8{fill:#E6E6E6;}
	.st9{fill:#F3F3F3;}
	.st10{fill:url(#SVGID_2_);}
	.st11{fill:url(#SVGID_3_);}
	.st12{fill:url(#SVGID_4_);}
	.st13{fill:url(#SVGID_5_);}
	.st14{fill:url(#SVGID_6_);}
	.st15{fill:url(#SVGID_7_);}
	.st16{fill:#EEA886;}
	.st17{fill:#112230;}
	.st18{fill:#F0C141;}
	.st19{fill:#152B3D;}
	.st20{fill:#3A3F47;}
	.st21{fill:#1D3B54;}
	.st22{fill:#D6D6D6;}
	.st23{fill:url(#SVGID_8_);}
	.st24{fill:#C9E0FF;}
	.st25{fill:#4AAFFF;}
	.st26{fill:#1A598C;}
	.st27{fill:#2273B5;}
	.st28{fill:#3788CC;}
	.st29{fill:#E2F3FE;}
	.st30{fill:#3B3B40;}
	.st31{fill:#EB4747;}
	.st32{fill:#434343;}
	.st33{fill:#A33131;}
	.st34{fill:#D1C0BA;}
	.st35{fill:#EEA987;}
	.st36{fill:#A87860;}
	.st37{fill:#162D40;}
	.st38{fill:#0E1E2B;}
	.st39{fill:#EDDAD3;}
	.st40{fill:#DB9C7C;}
	.st41{fill:#FCCCA2;}
	.st42{fill:#AB3434;}
	.st43{fill:#353A3D;}
	.st44{fill:#81807E;}
	.st45{fill:#2D3133;}
	.st46{fill:#DECBC4;}
	.st47{fill:#495055;}
	.st48{fill:#A77860;}
	.st49{fill:#3C4145;}
	.st50{fill:#51565C;}
	.st51{fill:#F5E2D9;}
	.st52{fill:#323657;}
	.st53{fill:#AD9F99;}
	.st54{fill:#69737A;}
	.st55{fill:#D9C9C2;}
</style>
<g>
	<g>
		<g>
			<g>
				<path class="st0" d="M780,959.6c-0.2,0-18.1,0.2-43.2-4.6c-23.1-4.4-57.3-13.9-88.4-34.6c-30.8-20.5-70.8-27.7-99-30.1
					c-30.5-2.6-54-0.3-54.2-0.3L495,888c0.2,0,23.9-2.3,54.6,0.3c28.3,2.4,68.7,9.7,99.9,30.4c30.9,20.5,64.7,30,87.6,34.3
					c24.9,4.7,42.7,4.5,42.9,4.5L780,959.6z"/>
			</g>
			<g>
				<g>
					<g>
						<g>
							<path class="st0" d="M802.4,971.1c-20.6,23.2-107.9,37.6-159.7,10.5c-28.6-15-51.4-32.5-71.4-47.9
								c-26.1-20.1-48.7-37.5-76.4-43.7l-2.4-0.5l2.1-1.2c0.4-0.2,41-23.4,98.8-27.3c34-2.3,67.2,2.5,98.8,14.1
								c39.4,14.5,76.4,39.8,109.7,75.3l-0.7,0.7l0.7-0.7c5.9,6.2,6.4,13,1.5,19.5C803.1,970.1,802.8,970.6,802.4,971.1z
								 M497.8,888.6c27,6.8,49.1,23.8,74.6,43.5c20,15.4,42.6,32.8,71.1,47.7c23.4,12.2,57,17,92.3,13.2
								c29.8-3.3,55.6-12.5,65.1-23.3c0.4-0.4,0.7-0.8,1-1.3c4.3-5.7,3.9-11.4-1.3-17c-75-79.8-154-92.3-206.9-88.8
								C543.9,866.1,507,883.8,497.8,888.6z"/>
						</g>
					</g>
				</g>
			</g>
			<g>
				
					<rect x="575.8" y="861.9" transform="matrix(0.827 -0.5622 0.5622 0.827 -394.9175 476.4953)" class="st0" width="1.9" height="36"/>
			</g>
			<g>
				
					<rect x="568.3" y="917.4" transform="matrix(0.7348 -0.6783 0.6783 0.7348 -465.6186 645.814)" class="st0" width="49.6" height="1.9"/>
			</g>
			<g>
				
					<rect x="645.9" y="863.7" transform="matrix(0.9972 -7.466365e-02 7.466365e-02 0.9972 -64.7696 50.784)" class="st0" width="1.9" height="55.9"/>
			</g>
		</g>
		<g>
			<g>
				<path class="st0" d="M770.5,879.3c-0.2-0.1-23.7-8.4-53.5-28.9c-27.5-18.9-66.3-52.3-94.8-104.1c-33-60-69-97.9-93.3-119
					c-26.4-22.9-45.1-31.8-45.3-31.9l0.8-1.7c0.2,0.1,19.2,9,45.7,32.1c24.5,21.3,60.6,59.3,93.8,119.6
					c28.3,51.5,66.9,84.6,94.2,103.4c29.6,20.3,52.8,28.6,53,28.7L770.5,879.3z"/>
			</g>
			<g>
				<g>
					<g>
						<g>
							<path class="st0" d="M842,874.6l-5.3,1c-0.2,0-17.5,3.1-44.1,2.7c-24.6-0.4-62.4-4.1-102.9-19c-45.6-16.8-85.2-44-117.8-81.1
								c-40.8-46.3-70.6-108-88.7-183.4l-0.2-0.9l0.8-0.3c0.3-0.1,30.9-9.4,70.9,0.2c23.5,5.6,45.6,16.6,65.6,32.6
								c25.1,20,47.1,47.8,65.4,82.9c41.3,78.9,80.2,119.5,105.6,139.6c27.4,21.7,45.2,24.9,45.4,24.9L842,874.6z M485.1,595.2
								c41,169.4,134.1,236.1,205.1,262.3c40.3,14.8,77.9,18.5,102.3,18.9c18.6,0.3,32.6-1.1,39.3-2c-7-2.2-21.8-8.3-41.7-24.1
								c-25.5-20.2-64.7-61-106.1-140.2c-41.2-78.8-93.3-105.7-129.8-114.5C518.4,587,490.3,593.8,485.1,595.2z"/>
						</g>
					</g>
				</g>
			</g>
			<g>
				
					<rect x="597" y="727.2" transform="matrix(4.359161e-02 -0.999 0.999 4.359161e-02 -192.0681 1328.7273)" class="st0" width="1.9" height="74.9"/>
			</g>
			<g>
				
					<rect x="610.6" y="621" transform="matrix(1 -1.068375e-03 1.068375e-03 1 -0.7193 0.6538)" class="st0" width="1.9" height="105.1"/>
			</g>
			<g>
				
					<rect x="532.3" y="628.6" transform="matrix(5.223039e-02 -0.9986 0.9986 5.223039e-02 -152.6096 1157.0775)" class="st0" width="1.9" height="60.7"/>
			</g>
		</g>
		<g>
			<g>
				<g>
					<g>
						<g>
							<g>
								<path class="st1" d="M2014.2,505.7l-28.4-46.4c-2.3-3.8-1.1-8.8,2.7-11.1c3.8-2.3,8.8-1.1,11.1,2.7l20.1,32.8l53.3-31.5
									c3.8-2.3,8.8-1,11.1,2.8c2.3,3.8,1,8.8-2.8,11.1L2014.2,505.7z"/>
							</g>
						</g>
					</g>
				</g>
			</g>
			<g>
				<path class="st1" d="M2033.2,577.3c-56.2,0-102-45.7-102-102c0-56.2,45.7-102,102-102c56.2,0,102,45.7,102,102
					C2135.2,531.5,2089.4,577.3,2033.2,577.3z M2033.2,387.9c-48.2,0-87.4,39.2-87.4,87.4c0,48.2,39.2,87.4,87.4,87.4
					c48.2,0,87.4-39.2,87.4-87.4C2120.6,427.1,2081.4,387.9,2033.2,387.9z"/>
			</g>
		</g>
		<g>
			<g>
				<g>
					<g>
						<g>
							<g>
								<path class="st1" d="M1698.4,355.7l-17.5-28.7c-1.4-2.4-0.7-5.4,1.7-6.9c2.4-1.4,5.4-0.7,6.9,1.7l12.4,20.3l32.9-19.5
									c2.4-1.4,5.4-0.6,6.8,1.8c1.4,2.4,0.6,5.4-1.8,6.8L1698.4,355.7z"/>
							</g>
						</g>
					</g>
				</g>
			</g>
			<g>
				<path class="st1" d="M1710.1,399.9c-34.7,0-63-28.3-63-63c0-34.7,28.3-63,63-63c34.7,0,63,28.3,63,63
					C1773.1,371.7,1744.9,399.9,1710.1,399.9z M1710.1,282.9c-29.8,0-54,24.2-54,54c0,29.8,24.2,54,54,54c29.8,0,54-24.2,54-54
					C1764.1,307.1,1739.9,282.9,1710.1,282.9z"/>
			</g>
		</g>
		<g>
			<g>
				<g>
					<g>
						<g>
							<g>
								<path class="st1" d="M1374.3,249.8l-26.9-44c-2.2-3.6-1.1-8.3,2.5-10.5c3.6-2.2,8.3-1.1,10.5,2.5l19,31.1L1430,199
									c3.6-2.2,8.3-0.9,10.5,2.7c2.2,3.6,0.9,8.3-2.7,10.5L1374.3,249.8z"/>
							</g>
						</g>
					</g>
				</g>
			</g>
			<g>
				<path class="st1" d="M1392.4,317.7c-53.3,0-96.7-43.4-96.7-96.7c0-53.3,43.4-96.7,96.7-96.7s96.7,43.4,96.7,96.7
					C1489,274.3,1445.7,317.7,1392.4,317.7z M1392.4,138.1c-45.7,0-82.9,37.2-82.9,82.9s37.2,82.9,82.9,82.9s82.9-37.2,82.9-82.9
					S1438,138.1,1392.4,138.1z"/>
			</g>
		</g>
		<g>
			<g>
				<g>
					<g>
						<g>
							<g>
								<path class="st1" d="M1090,355.3l-17.8-29.1c-1.5-2.4-0.7-5.5,1.7-7c2.4-1.5,5.5-0.7,7,1.7l12.6,20.6l33.4-19.8
									c2.4-1.4,5.5-0.6,6.9,1.8c1.4,2.4,0.6,5.5-1.8,6.9L1090,355.3z"/>
							</g>
						</g>
					</g>
				</g>
			</g>
			<g>
				<path class="st1" d="M1101.9,400.1c-35.2,0-63.9-28.7-63.9-63.9s28.7-63.9,63.9-63.9c35.2,0,63.9,28.7,63.9,63.9
					S1137.1,400.1,1101.9,400.1z M1101.9,281.5c-30.2,0-54.8,24.6-54.8,54.8c0,30.2,24.6,54.8,54.8,54.8c30.2,0,54.8-24.6,54.8-54.8
					C1156.7,306.1,1132.1,281.5,1101.9,281.5z"/>
			</g>
		</g>
		<g>
			<g>
				<g>
					<g>
						<g>
							<g>
								<path class="st1" d="M840.5,215.6l-22.2-36.4c-1.8-3-0.9-6.9,2.1-8.7c3-1.8,6.9-0.9,8.7,2.1l15.7,25.7l41.8-24.7
									c3-1.8,6.9-0.8,8.7,2.2c1.8,3,0.8,6.9-2.2,8.7L840.5,215.6z"/>
							</g>
						</g>
					</g>
				</g>
			</g>
			<g>
				<path class="st1" d="M855.4,271.7c-44.1,0-80-35.9-80-80c0-44.1,35.9-80,80-80c44.1,0,80,35.9,80,80
					C935.4,235.9,899.5,271.7,855.4,271.7z M855.4,123.2c-37.8,0-68.5,30.7-68.5,68.5s30.7,68.5,68.5,68.5s68.5-30.7,68.5-68.5
					S893.2,123.2,855.4,123.2z"/>
			</g>
		</g>
		<g>
			<g>
				<g>
					<g>
						<g>
							<g>
								<path class="st1" d="M557.2,396.6l-24.7-40.4c-2-3.3-1-7.6,2.3-9.7c3.3-2,7.6-1,9.7,2.3l17.4,28.5l46.3-27.4
									c3.3-2,7.6-0.9,9.6,2.5c2,3.3,0.9,7.6-2.5,9.6L557.2,396.6z"/>
							</g>
						</g>
					</g>
				</g>
			</g>
			<g>
				<path class="st1" d="M573.8,458.8c-48.9,0-88.6-39.8-88.6-88.6c0-48.9,39.8-88.6,88.6-88.6c48.9,0,88.6,39.8,88.6,88.6
					C662.4,419,622.7,458.8,573.8,458.8z M573.8,294.2c-41.9,0-76,34.1-76,76c0,41.9,34.1,76,76,76c41.9,0,76-34.1,76-76
					C649.8,328.3,615.7,294.2,573.8,294.2z"/>
			</g>
		</g>
		<g>
			<g>
				<g>
					<g>
						<g>
							<g>
								<path class="st1" d="M1909.6,230.7l-14-22.9c-1.1-1.9-0.6-4.3,1.3-5.5c1.9-1.1,4.3-0.6,5.5,1.3l9.9,16.2l26.4-15.6
									c1.9-1.1,4.3-0.5,5.5,1.4c1.1,1.9,0.5,4.3-1.4,5.5L1909.6,230.7z"/>
							</g>
						</g>
					</g>
				</g>
			</g>
			<g>
				<path class="st1" d="M1919.1,266c-27.8,0-50.4-22.6-50.4-50.4c0-27.8,22.6-50.4,50.4-50.4s50.4,22.6,50.4,50.4
					C1969.5,243.4,1946.8,266,1919.1,266z M1919.1,172.4c-23.8,0-43.2,19.4-43.2,43.2c0,23.8,19.4,43.2,43.2,43.2
					s43.2-19.4,43.2-43.2C1962.3,191.8,1942.9,172.4,1919.1,172.4z"/>
			</g>
		</g>
		<g>
			
				<rect x="1204.2" y="1207" transform="matrix(-1 -1.224647e-16 1.224647e-16 -1 2547.5068 2836.3047)" class="st2" width="139" height="422.3"/>
		</g>
		<g>
			<path class="st3" d="M734.5,1410.4H1813c33.7,0,61.1-27.3,61.1-61.1V624.6c0-33.7-27.3-61.1-61.1-61.1H734.5
				c-33.7,0-61.1,27.3-61.1,61.1v724.8C673.5,1383.1,700.8,1410.4,734.5,1410.4z"/>
		</g>
		<g>
			
				<rect x="720.5" y="473.4" transform="matrix(-1 -1.224647e-16 1.224647e-16 -1 2547.5063 1751.084)" class="st4" width="1106.5" height="804.3"/>
		</g>
		<g>
			<linearGradient id="SVGID_1_" gradientUnits="userSpaceOnUse" x1="720.5034" y1="521.9487" x2="1827.0031" y2="521.9487">
				<stop  offset="0" style="stop-color:#FF9F55"/>
				<stop  offset="1" style="stop-color:#FFD255"/>
			</linearGradient>
			<polygon class="st5" points="720.5,570.5 1827,570.5 1827,473.4 720.5,473.4 			"/>
		</g>
		<g>
			<ellipse class="st6" cx="1737.9" cy="1338.4" rx="45.5" ry="38.7"/>
		</g>
		<rect x="961" y="1613.4" class="st6" width="625.5" height="31.9"/>
		<path class="st7" d="M911.3,540.3H779.9c-7.3,0-13.2-5.9-13.2-13.2v-10.3c0-7.3,5.9-13.2,13.2-13.2h131.4
			c7.3,0,13.2,5.9,13.2,13.2v10.3C924.5,534.4,918.6,540.3,911.3,540.3z"/>
		<rect x="801.6" y="909" class="st8" width="579.3" height="19.9"/>
		<rect x="801.6" y="944.9" class="st8" width="429.7" height="19.9"/>
		<rect x="801.6" y="1022.8" class="st8" width="272.4" height="19.9"/>
		<rect x="801.6" y="1058.7" class="st8" width="489.5" height="19.9"/>
		<rect x="801.6" y="1144.4" class="st8" width="348.3" height="19.9"/>
		<rect x="801.6" y="1180.2" class="st8" width="425.3" height="19.9"/>
		<rect x="773.3" y="909" class="st1" width="14.6" height="55.8"/>
		<rect x="773.3" y="1022.8" class="st1" width="14.6" height="55.8"/>
		<rect x="773.3" y="1144.4" class="st1" width="14.6" height="55.8"/>
		<g>
			<g>
				<path class="st1" d="M1573.3,1225.3h-46.4c-9.2,0-16.7-7.5-16.7-16.7v-46.4c0-9.2,7.5-16.7,16.7-16.7h46.4
					c9.2,0,16.7,7.5,16.7,16.7v46.4C1590,1217.8,1582.5,1225.3,1573.3,1225.3z"/>
			</g>
			<g>
				<g>
					<g>
						<path class="st9" d="M1547.6,1202.9l-20.2-17.6c-1.7-1.4-1.8-4-0.4-5.6c1.4-1.7,4-1.8,5.6-0.4l14.3,12.4l20.3-22.7
							c1.5-1.6,4-1.8,5.6-0.3s1.8,4,0.3,5.6L1547.6,1202.9z"/>
					</g>
				</g>
			</g>
		</g>
		<g>
			<g>
				<g>
					<path class="st1" d="M1571.8,1103.7h-43.5c-10,0-18.2-8.2-18.2-18.2v-43.5c0-10,8.2-18.2,18.2-18.2h43.5
						c10,0,18.2,8.2,18.2,18.2v43.5C1590,1095.6,1581.9,1103.7,1571.8,1103.7z M1528.3,1028.9c-7.2,0-13.1,5.9-13.1,13.1v43.5
						c0,7.2,5.9,13.1,13.1,13.1h43.5c7.2,0,13.1-5.9,13.1-13.1v-43.5c0-7.2-5.9-13.1-13.1-13.1H1528.3z"/>
				</g>
			</g>
		</g>
		<g>
			<g>
				<g>
					<path class="st1" d="M1692,982.2h-43.5c-10,0-18.2-8.2-18.2-18.2v-43.5c0-10,8.2-18.2,18.2-18.2h43.5c10,0,18.2,8.2,18.2,18.2
						V964C1710.2,974,1702,982.2,1692,982.2z M1648.5,907.4c-7.2,0-13.1,5.9-13.1,13.1V964c0,7.2,5.9,13.1,13.1,13.1h43.5
						c7.2,0,13.1-5.9,13.1-13.1v-43.5c0-7.2-5.9-13.1-13.1-13.1H1648.5z"/>
				</g>
			</g>
		</g>
		<g>
			<g>
				<g>
					<path class="st1" d="M1692,1225.3h-43.5c-10,0-18.2-8.2-18.2-18.2v-43.5c0-10,8.2-18.2,18.2-18.2h43.5c10,0,18.2,8.2,18.2,18.2
						v43.5C1710.2,1217.2,1702,1225.3,1692,1225.3z M1648.5,1150.5c-7.2,0-13.1,5.9-13.1,13.1v43.5c0,7.2,5.9,13.1,13.1,13.1h43.5
						c7.2,0,13.1-5.9,13.1-13.1v-43.5c0-7.2-5.9-13.1-13.1-13.1H1648.5z"/>
				</g>
			</g>
		</g>
		<g>
			<g>
				<path class="st1" d="M1693.4,1103.7H1647c-9.2,0-16.7-7.5-16.7-16.7v-46.4c0-9.2,7.5-16.7,16.7-16.7h46.4
					c9.2,0,16.7,7.5,16.7,16.7v46.4C1710.1,1096.2,1702.7,1103.7,1693.4,1103.7z"/>
			</g>
			<g>
				<g>
					<g>
						<path class="st9" d="M1667.7,1081.4l-20.2-17.6c-1.7-1.4-1.8-4-0.4-5.6c1.4-1.7,4-1.8,5.6-0.4l14.3,12.4l20.3-22.7
							c1.5-1.6,4-1.8,5.6-0.3c1.6,1.5,1.8,4,0.3,5.6L1667.7,1081.4z"/>
					</g>
				</g>
			</g>
		</g>
		<g>
			<g>
				<path class="st1" d="M1573.3,982.1h-46.4c-9.2,0-16.7-7.5-16.7-16.7v-46.4c0-9.2,7.5-16.7,16.7-16.7h46.4
					c9.2,0,16.7,7.5,16.7,16.7v46.4C1590,974.7,1582.5,982.1,1573.3,982.1z"/>
			</g>
			<g>
				<g>
					<g>
						<path class="st9" d="M1547.6,959.8l-20.2-17.6c-1.7-1.4-1.8-4-0.4-5.6c1.4-1.7,4-1.8,5.6-0.4l14.3,12.4l20.3-22.7
							c1.5-1.6,4-1.8,5.6-0.3c1.6,1.5,1.8,4,0.3,5.6L1547.6,959.8z"/>
					</g>
				</g>
			</g>
		</g>
		<g>
			<linearGradient id="SVGID_2_" gradientUnits="userSpaceOnUse" x1="1925.9417" y1="1269.3215" x2="2144.3979" y2="1269.3215">
				<stop  offset="0" style="stop-color:#40D5E6"/>
				<stop  offset="1" style="stop-color:#5577FF"/>
			</linearGradient>
			<path class="st10" d="M1945,980.7c18.8-9,37.6,51,37.6,51c32,42.3,76.8-14,72.4,49.3c-7.7,110.7,127.4,34.8,65.1,150.3
				c-62.3,115.5,55,65.3,16.3,158.5c-38.7,93.2,11.5,204.3-46.8,158.6c0,0-51.3-112.5-104.2-147.3c-52.9-34.8,31.7-76.1,15.1-123.4
				c-24-68.7-82-66-40.2-139.7C2002.1,1064.2,1881,1011.3,1945,980.7z"/>
			<g>
				<path class="st4" d="M2108,1506c-25.3-17.8-54.8-141.5-56.6-215.2c-0.9-37.8-12.1-53.5-21.9-67.4c-9.4-13.3-17.5-24.7-12.8-51
					c9-50.3-14.7-72-15-72.2l2.8-3.1c1.1,0.9,25.8,23.3,16.3,76.1c-4.4,24.6,2.9,34.9,12.1,47.9c9.7,13.7,21.7,30.6,22.7,69.7
					c1.9,79.1,32.1,195.9,54.8,211.9L2108,1506z"/>
			</g>
			<g>
				<linearGradient id="SVGID_3_" gradientUnits="userSpaceOnUse" x1="2086.1968" y1="1391.2213" x2="2283.7498" y2="1391.2213">
					<stop  offset="0" style="stop-color:#40D5E6"/>
					<stop  offset="1" style="stop-color:#5577FF"/>
				</linearGradient>
				<path class="st11" d="M2117.5,1515.2c-3.3,0-6.8-0.4-10.7-1.2c-9.7-2-16.1-7.1-19-15.3c-6.8-19.5,9-51.1,21.8-66.3
					c0.2-0.3,21.6-26.4,19.4-62.7c-0.4-6.1-1-11.7-1.6-16.7c-1.6-14.4-2.8-24.7,3.4-31.7c5.4-6.1,15.9-8.8,35.1-8.8
					c33.6-0.2,46.9-14.1,57.6-25.3c4.5-4.7,8.8-9.2,14-12.1l0,0c16.7-9.1,34.5-10.5,42.2-3.2c3.7,3.5,6.7,10.2,0.7,22.9
					c-5.5,11.6-12.7,18.9-18.5,24.8c-7.8,7.9-12.9,13.1-10.2,23.6c0.6,2.4,1.3,4.9,2.1,7.4c5.2,17.7,11.1,37.8-19.3,51.4
					c-6.4,2.9-12.3,5.2-17.5,7.2c-21.2,8.3-33.9,13.3-48.4,43.8c-2.8,5.9-5.3,11.5-7.6,16.9
					C2149.6,1495.7,2141,1515.2,2117.5,1515.2z M2239.5,1278.8c-4.6,2.5-8.5,6.6-13,11.3c-11.2,11.8-25.2,26.4-60.6,26.5
					c-17.6,0.1-27.5,2.4-32,7.4c-4.9,5.5-3.9,15.1-2.4,28.4c0.6,5,1.2,10.7,1.6,16.9c2.4,38-19.4,64.6-20.3,65.7
					c-12.7,15.1-27,45.1-21,62.3c2.3,6.7,7.7,10.9,15.9,12.5c28.6,5.8,36.4-12.1,49.5-41.7c2.4-5.4,4.9-11,7.7-17
					c15.1-31.9,29.3-37.5,50.6-45.9c5.1-2,10.9-4.3,17.3-7.1c27-12.1,22.1-28.8,17-46.4c-0.7-2.5-1.5-5-2.1-7.5
					c-3.3-12.7,3.2-19.2,11.3-27.5c5.8-6,12.5-12.7,17.7-23.6c2.7-5.7,5-13.5,0.2-18.1C2270.5,1269,2254.4,1270.7,2239.5,1278.8
					L2239.5,1278.8z"/>
			</g>
			<g>
				<linearGradient id="SVGID_4_" gradientUnits="userSpaceOnUse" x1="2103.083" y1="1419.9487" x2="2251.3604" y2="1419.9487">
					<stop  offset="0" style="stop-color:#40D5E6"/>
					<stop  offset="1" style="stop-color:#5577FF"/>
				</linearGradient>
				<path class="st12" d="M2107.3,1539.3l-4.2-0.2c0.2-3.9,5.5-96.3,42.5-123.3c40.7-29.7,53.5-61.5,59.6-82.9
					c7.2-25.2,43.8-31.9,45.4-32.2l0.7,4.1c-0.4,0.1-35.6,6.6-42.1,29.2c-6.3,22-19.4,54.7-61.2,85.1
					C2112.6,1445,2107.3,1538.3,2107.3,1539.3z"/>
			</g>
			<linearGradient id="SVGID_5_" gradientUnits="userSpaceOnUse" x1="2049.5383" y1="1300.6293" x2="2222.2212" y2="1300.6293">
				<stop  offset="0" style="stop-color:#40D5E6"/>
				<stop  offset="1" style="stop-color:#5577FF"/>
			</linearGradient>
			<path class="st13" d="M2192,1073.9c-26.4-9-20.9,41.8-32,79.3c-11.1,37.6-123.9,16.4-76.6,110.5c47.3,94.1-59.9,31.5-27.8,113.6
				c32,82.1,2.8,170,37.6,147.6c34.8-22.3,19.6-125.8,55.7-138.1s42.1-26.6,6.3-60c-35.8-33.4,93.9-66.6,61.9-134
				C2185.1,1125.4,2222.5,1084.3,2192,1073.9z"/>
			<g>
				<path class="st4" d="M2109.3,1521c-3.3-14.1-31.6-137.8-5.2-152.7c23.3-13.2,22.7-64.5,19.1-112.9
					c-3.2-42.9,51.8-62.9,54.2-63.7l1.4,3.9c-0.5,0.2-54.4,19.8-51.4,59.5c3.7,49.7,4.1,102.5-21.2,116.8
					c-20.1,11.4-1.6,110.8,7.2,148.2L2109.3,1521z"/>
			</g>
			<linearGradient id="SVGID_6_" gradientUnits="userSpaceOnUse" x1="2009.9121" y1="1548.3184" x2="2169.2598" y2="1548.3184">
				<stop  offset="0" style="stop-color:#FF9340"/>
				<stop  offset="1" style="stop-color:#FFCE45"/>
			</linearGradient>
			<polygon class="st14" points="2169.3,1476.9 2131.6,1619.7 2047.5,1619.7 2009.9,1476.9 			"/>
			<linearGradient id="SVGID_7_" gradientUnits="userSpaceOnUse" x1="2009.9121" y1="1548.3184" x2="2169.2598" y2="1548.3184">
				<stop  offset="0" style="stop-color:#C97332"/>
				<stop  offset="1" style="stop-color:#FFCE45"/>
			</linearGradient>
			<path class="st15" d="M2169.3,1476.9c0,0-82.8,15.6-82.8,142.8h-38.9l-37.6-142.8H2169.3z"/>
		</g>
		<g>
			<g>
				<g>
					<g>
						<g>
							<g>
								<path class="st16" d="M1788.9,1487c0,0,3.6,14.1,4.1,16.2c0.5,2.1,22.6-3.7,22.6-3.7l0-17.2
									C1815.6,1482.3,1791.5,1484.7,1788.9,1487z"/>
							</g>
						</g>
					</g>
				</g>
			</g>
			<g>
				<g>
					<g>
						<g>
							<g>
								<path class="st17" d="M1792.6,1501.4c0,0-6.2,9.4-12.7,13.9c-6.5,4.5-31.5,10.3-35.1,14.7c-2.6,3.1-6.3,15,33.8,9.6
									c28.5-3.8,42.6-2.9,45.1-7.8c2.6-5-8.1-33.7-8.1-33.7S1809.5,1501.3,1792.6,1501.4z"/>
							</g>
						</g>
					</g>
				</g>
			</g>
			<g>
				<g>
					<g>
						<g>
							<g>
								<g>
									
										<rect x="1744.2" y="1069.8" transform="matrix(0.9952 -9.767199e-02 9.767199e-02 0.9952 -136.1608 177.9294)" class="st18" width="10.1" height="819.9"/>
								</g>
							</g>
						</g>
					</g>
				</g>
				<g>
					<g>
						<g>
							<g>
								<g>
									
										<rect x="1907.5" y="1053.9" transform="matrix(0.9952 -9.767076e-02 9.767076e-02 0.9952 -133.8312 193.7969)" class="st18" width="10.1" height="819.9"/>
								</g>
							</g>
						</g>
					</g>
				</g>
				<g>
					<g>
						<g>
							<g>
								<g>
									<g>
										
											<rect x="1710.7" y="1077.5" transform="matrix(0.9953 -9.669419e-02 9.669419e-02 0.9953 -96.2798 178.4169)" class="st18" width="164" height="10.1"/>
									</g>
								</g>
							</g>
						</g>
					</g>
					<g>
						<g>
							<g>
								<g>
									<g>
										
											<rect x="1718.1" y="1153.4" transform="matrix(0.9953 -9.658607e-02 9.658607e-02 0.9953 -103.4794 179.2782)" class="st18" width="164" height="10.1"/>
									</g>
								</g>
							</g>
						</g>
					</g>
					<g>
						<g>
							<g>
								<g>
									<g>
										
											<rect x="1725.4" y="1229.3" transform="matrix(0.9953 -9.658607e-02 9.658607e-02 0.9953 -110.7773 180.3447)" class="st18" width="164" height="10.1"/>
									</g>
								</g>
							</g>
						</g>
					</g>
					<g>
						<g>
							<g>
								<g>
									<g>
										
											<rect x="1732.8" y="1305.3" transform="matrix(0.9953 -9.648933e-02 9.648933e-02 0.9953 -117.9656 181.2234)" class="st18" width="164" height="10.1"/>
									</g>
								</g>
							</g>
						</g>
					</g>
					<g>
						<g>
							<g>
								<g>
									<g>
										
											<rect x="1740.2" y="1381.2" transform="matrix(0.9953 -9.649880e-02 9.649880e-02 0.9953 -125.2677 182.307)" class="st18" width="164" height="10.1"/>
									</g>
								</g>
							</g>
						</g>
					</g>
					<g>
						<g>
							<g>
								<g>
									<g>
										
											<rect x="1747.5" y="1457.1" transform="matrix(0.9953 -9.659555e-02 9.659555e-02 0.9953 -132.6833 183.563)" class="st18" width="164" height="10.1"/>
									</g>
								</g>
							</g>
						</g>
					</g>
					<g>
						<g>
							<g>
								<g>
									<g>
										
											<rect x="1754.9" y="1533" transform="matrix(0.9953 -9.658607e-02 9.658607e-02 0.9953 -139.9691 184.6108)" class="st18" width="164" height="10.1"/>
									</g>
								</g>
							</g>
						</g>
					</g>
					<g>
						<g>
							<g>
								<g>
									<g>
										
											<rect x="1762.3" y="1608.9" transform="matrix(0.9953 -9.658673e-02 9.658673e-02 0.9953 -147.2679 185.6787)" class="st18" width="164" height="10.1"/>
									</g>
								</g>
							</g>
						</g>
					</g>
					<g>
						<g>
							<g>
								<g>
									<g>
										
											<rect x="1769.6" y="1684.8" transform="matrix(0.9953 -9.659555e-02 9.659555e-02 0.9953 -154.5792 186.763)" class="st18" width="164" height="10.1"/>
									</g>
								</g>
							</g>
						</g>
					</g>
				</g>
				<g>
					<g>
						<g>
							<g>
								<g>
									<g>
										
											<rect x="1777" y="1760.8" transform="matrix(0.9953 -9.658607e-02 9.658607e-02 0.9953 -161.8629 187.8104)" class="st18" width="164" height="10.1"/>
									</g>
								</g>
							</g>
						</g>
					</g>
					<g>
						<g>
							<g>
								<g>
									<g>
										
											<rect x="1784.4" y="1836.7" transform="matrix(0.9953 -9.648933e-02 9.648933e-02 0.9953 -169.0002 188.6791)" class="st18" width="164" height="10.1"/>
									</g>
								</g>
							</g>
						</g>
					</g>
				</g>
			</g>
			<g>
				<g>
					<g>
						<g>
							<g>
								<path class="st19" d="M1761.7,1190.2c0,0-16.1,59.7-20.3,81.1c-3.7,18.6-11.1,68.1-12.2,79.9
									c-1.1,11.8,47.5,125.8,52.5,146.4l44.2-7.1c0,0-46.6-118.6-34.5-145c18.1-39.2,20.5-38,34.7-70.3
									c14.3-32.3,46.9-33.1,55.7-93C1881.8,1182.1,1773.5,1171.2,1761.7,1190.2z"/>
							</g>
						</g>
					</g>
				</g>
			</g>
			<g>
				<g>
					<g>
						<g>
							<g>
								<path class="st16" d="M1840.3,900.1c0,0-29.4-11-42.9,11.4c-13.5,22.3-12.2,67.1,2.6,72.6c14.8,5.5,37,2.6,44.6-11.4
									c7.6-14,14.4-34.2,14.1-47.7C1858.3,911.5,1848,904,1840.3,900.1z"/>
							</g>
						</g>
					</g>
				</g>
			</g>
			<g>
				<g>
					<g>
						<g>
							<g>
								<path class="st16" d="M1804.9,982.7c0,0,1.2,7.7-0.8,11.5c-2,3.8,36.9,3.9,36.9,3.9s3.2-20.6,9.1-38
									C1856.2,942.6,1804.9,982.7,1804.9,982.7z"/>
							</g>
						</g>
					</g>
				</g>
			</g>
			<g>
				<g>
					<g>
						<g>
							<g>
								<path class="st20" d="M1850.2,960c0,0-2.7,4.4-13.6,2.7c-11-1.7-24.3-16.3-28.9-17.9c-4.6-1.6-4.6-4.3-4.6-4.3l-2.9,4.2
									l-4.9,0.3c0,0,4.4-13-2.3-18.4c-6.7-5.3,6.9-42.2,42.1-29.9c0,0,27,7.4,26,22.8C1860.2,934.9,1856.2,952.4,1850.2,960z"/>
							</g>
						</g>
					</g>
				</g>
			</g>
			<g>
				<g>
					<g>
						<g>
							<g>
								<path class="st16" d="M1803.8,935c0.6-2.6,7.2-9.9,9.7-2.1c2.5,7.9-3.8,18.5-7.3,17.6C1802.6,949.6,1802.2,941.5,1803.8,935
									z"/>
							</g>
						</g>
					</g>
				</g>
			</g>
			<g>
				<g>
					<g>
						<g>
							<path class="st21" d="M1915.7,1094.9c-0.3,3.9-4.7,8-7.7,10.1c-1.9,1.3-4.2,2.1-6.7,2.2l-1.7,0.1l0,0l-30.5,1
								c0,0-22.7-73.3,19.9-101.3C1890.3,1007.2,1918.7,1059.6,1915.7,1094.9z"/>
						</g>
					</g>
				</g>
			</g>
			<g>
				<g>
					<g>
						<g>
							<g>
								<path class="st17" d="M1823.7,1531.7c-2.6,5-16.6,4-45.1,7.8c-7.8,1-13.9,1.5-18.7,1.4l-1.7-17.1c8.3-2.9,18-5.9,21.7-8.5
									c6.5-4.5,12.7-13.9,12.7-13.9c16.9-0.1,23-3.5,23-3.5S1826.3,1526.7,1823.7,1531.7z"/>
							</g>
						</g>
					</g>
				</g>
			</g>
			<g>
				<g>
					<g>
						<g>
							<path class="st21" d="M1804.9,992c0,0,23.9-5.6,37.4-1l2,1.9c0,0,4.1,7.9-11.3,8.5C1817.6,1002,1793.3,1003.2,1804.9,992z"/>
						</g>
					</g>
				</g>
			</g>
			<g>
				<g>
					<g>
						<g>
							<g>
								<path class="st16" d="M1898.4,1552.9c0,0,3.6,14.1,4.1,16.2c0.5,2.1,22.6-3.7,22.6-3.7l0-17.2
									C1925.1,1548.2,1901,1550.6,1898.4,1552.9z"/>
							</g>
						</g>
					</g>
				</g>
			</g>
			<g>
				<g>
					<g>
						<g>
							<g>
								<path class="st19" d="M1881.8,1182.1c0,0,8.1,33.2,10.4,66.5c2.2,30.8,6.2,64.5,9.4,96.6c3.6,35.9,13.7,93.8,14.2,113
									c0.5,19.2,16.7,103,16.7,103l-41.3,4.7c0,0-26.8-148.1-33.2-163.3c-6.3-15.1-37.8-123.1-38.8-135.2
									C1818.2,1255.5,1881.8,1182.1,1881.8,1182.1z"/>
							</g>
						</g>
					</g>
				</g>
			</g>
			<g>
				<g>
					<g>
						<g>
							<g>
								<path class="st17" d="M1902.1,1567.3c0,0-6.2,9.4-12.7,13.9c-6.5,4.5-31.5,10.3-35.1,14.7c-2.6,3.1-6.3,15,33.8,9.6
									c28.5-3.8,42.6-2.9,45.1-7.8s-8.1-33.7-8.1-33.7S1919,1567.2,1902.1,1567.3z"/>
							</g>
						</g>
					</g>
				</g>
			</g>
			<g>
				<g>
					<g>
						<g>
							<path class="st21" d="M1753.3,1264.8c-3.5-0.5,8.7-105.3,7.8-111.9c-0.6-4.4-0.5-38.5-0.3-59.7l-3.8-21.5
								c-2.1-1.6-5-3.3-8.4-5.3c-5.3-3.1-12-6.6-19.4-10.3c0.9-5.1,1.5-9.1,1.7-11.4c1.9-18.9,14.5-28.9,21.7-33.1
								c2.9-1.7,5-2.5,5-2.5c2.7-1.2,5.4-2.3,8-3.4c17.3-7.1,39.3-13.8,39.3-13.8h35.3c0,0,26.9,5.4,42.9,11.9
								c2.1,0.8,4,1.9,5.8,3.2l-4.8,100.7c0,0,0,0,0,0.1c0,0,0,0.1,0,0.1c-2.2,14.2-4.4,30.9-5.2,42.6c-0.3,4.8,5.2,30.5,8,54.1
								l10,56.4C1896.9,1261.1,1891.1,1284.5,1753.3,1264.8z"/>
						</g>
					</g>
				</g>
			</g>
			<g>
				<g>
					<g>
						<g>
							<g>
								<path class="st16" d="M1572.9,938.1c0,0,2.1,2.6,3.6,3.3c0,0,2.8,1,4.7,1.9c0.6,0.3,1.1,0.5,1.5,0.7c1.3,0.8,4,3,7.8,4.1
									c3.8,1.1,20.8,5,20.8,5l4-10.1l2.8-8.2c0,0-15.8-20.5-19.2-21.9c-0.3-0.1-0.7-0.3-1-0.4c-3-0.9-5.6-0.4-7.2-0.7
									c-0.6-0.1-6.6-0.8-7.9,0.5c-1.8,1.7-2.4,3.7-2,5.4c0,0-3.4,3.6-3.6,6.9c0,0-3.2,3.2-2.4,7.4
									C1574.7,932,1571.7,935.6,1572.9,938.1z"/>
							</g>
						</g>
					</g>
				</g>
			</g>
			<g>
				<g>
					<g>
						<g>
							<g>
								<path class="st21" d="M1755.9,1070.9c-3.9-2.5-9-6-26.7-14.8c-32.9-16.4-73.5-46.3-81.2-50.6c-11.9-6.6-49.4-52.4-49.4-52.4
									c1.9-6.9,19.7-20.7,19.7-20.7s56.8,53.8,69.3,60.5c10.7,5.7,63.4,11.5,78,12.9c2.4,0.2,3.7,0.4,3.7,0.4
									C1784.5,1026.8,1764.4,1076.4,1755.9,1070.9z"/>
							</g>
						</g>
					</g>
				</g>
			</g>
		</g>
		<rect x="829.8" y="839.1" class="st22" width="85.2" height="10.5"/>
		<rect x="809.2" y="820.4" class="st22" width="126.6" height="10.5"/>
		<path class="st1" d="M894.7,676.2c0,12.2-9.9,22-22,22c-12.2,0-22-9.9-22-22c0-12.2,9.9-22,22-22
			C884.8,654.2,894.7,664,894.7,676.2z"/>
		<path class="st1" d="M912.4,748v41.9c-12.2,5.5-25.7,8.6-39.9,8.6c-14.2,0-27.7-3.1-39.9-8.6V748c0-22,17.9-39.9,39.9-39.9
			S912.4,725.9,912.4,748z"/>
		<g>
			<linearGradient id="SVGID_8_" gradientUnits="userSpaceOnUse" x1="872.459" y1="633.4874" x2="872.459" y2="839.8094">
				<stop  offset="0" style="stop-color:#D3DAE0"/>
				<stop  offset="1" style="stop-color:#FFFFFF"/>
			</linearGradient>
			<path class="st23" d="M872.5,801c-14.3,0-28.1-3-41-8.8c-35.3-16.1-58.2-51.5-58.2-90.3c0-54.7,44.5-99.2,99.2-99.2
				c54.7,0,99.2,44.5,99.2,99.2c0,38.8-22.8,74.3-58.2,90.3C900.5,798.1,886.8,801,872.5,801z M872.5,608
				c-51.8,0-93.9,42.1-93.9,93.9c0,36.8,21.6,70.3,55.1,85.6c12.2,5.6,25.3,8.4,38.8,8.4c13.5,0,26.6-2.8,38.8-8.4
				c33.5-15.2,55.1-48.8,55.1-85.6C966.4,650.1,924.2,608,872.5,608z"/>
		</g>
		<g>
			<g>
				<rect x="1024.8" y="636.8" class="st24" width="6.9" height="159"/>
			</g>
			<g>
				<rect x="1056.5" y="636.8" class="st24" width="6.9" height="159"/>
			</g>
			<g>
				<rect x="1088.3" y="636.8" class="st24" width="6.9" height="159"/>
			</g>
			<g>
				<rect x="1120" y="636.8" class="st24" width="6.9" height="159"/>
			</g>
			<g>
				<rect x="1151.8" y="636.8" class="st24" width="6.9" height="159"/>
			</g>
			<g>
				<rect x="1183.5" y="636.8" class="st24" width="6.9" height="159"/>
			</g>
			<g>
				<rect x="1215.3" y="636.8" class="st24" width="6.9" height="159"/>
			</g>
			<g>
				<rect x="1247" y="636.8" class="st24" width="6.9" height="159"/>
			</g>
			<g>
				<rect x="1278.7" y="636.8" class="st24" width="6.9" height="159"/>
			</g>
			<g>
				<rect x="1310.5" y="636.8" class="st24" width="6.9" height="159"/>
			</g>
			<g>
				<rect x="1342.2" y="636.8" class="st24" width="6.9" height="159"/>
			</g>
			<g>
				<rect x="1374" y="636.8" class="st24" width="6.9" height="159"/>
			</g>
		</g>
		<g>
			<g>
				<rect x="1024.8" y="684.3" class="st25" width="6.9" height="111.5"/>
			</g>
			<g>
				<rect x="1056.5" y="722.8" class="st25" width="6.9" height="73"/>
			</g>
			<g>
				<rect x="1088.3" y="659.7" class="st25" width="6.9" height="136.1"/>
			</g>
			<g>
				<rect x="1120" y="756.2" class="st25" width="6.9" height="39.6"/>
			</g>
			<g>
				<rect x="1151.8" y="716.3" class="st25" width="6.9" height="79.5"/>
			</g>
			<g>
				<rect x="1183.5" y="686.5" class="st25" width="6.9" height="109.3"/>
			</g>
			<g>
				<rect x="1215.3" y="725.3" class="st25" width="6.9" height="70.5"/>
			</g>
			<g>
				<rect x="1247" y="676.4" class="st25" width="6.9" height="119.4"/>
			</g>
			<g>
				<rect x="1278.7" y="730.2" class="st25" width="6.9" height="65.6"/>
			</g>
			<g>
				<rect x="1310.5" y="690.9" class="st25" width="6.9" height="104.9"/>
			</g>
			<g>
				<rect x="1342.2" y="743.3" class="st25" width="6.9" height="52.5"/>
			</g>
			<g>
				<rect x="1374" y="690.9" class="st25" width="6.9" height="104.9"/>
			</g>
		</g>
		<g>
			<g>
				<g>
					<path class="st25" d="M1667.8,683.9c-13.4-37.5-49.2-60.5-86.9-59.3c-9.1,0.3-18.4,2-27.5,5.2c-27.5,9.8-47.2,31.7-55.3,57.6
						c-5.6,17.9-5.6,37.7,1.2,56.8c0.7,1.9,1.4,3.8,2.2,5.6c3.6,8.2,8.3,15.7,13.9,22.3c23.4,27.5,62.3,39.2,98.3,26.3
						C1660.2,781.6,1684.5,730.4,1667.8,683.9z M1606.2,777.2c-27,9.7-56.1,0.9-73.7-19.7c-4.2-4.9-7.7-10.5-10.4-16.7
						c-0.6-1.4-1.1-2.8-1.7-4.2c-5.1-14.3-5.1-29.1-0.9-42.6c6.1-19.4,20.8-35.8,41.4-43.2c6.8-2.4,13.7-3.7,20.6-3.9
						c28.3-0.9,55.1,16.4,65.2,44.5C1659.2,726.3,1641,764.7,1606.2,777.2z"/>
				</g>
			</g>
			<g>
				<g>
					<path class="st26" d="M1519.6,694l-21.4-6.7c8.1-25.9,27.8-47.7,55.3-57.6c9.1-3.2,18.3-4.9,27.5-5.2l0.7,22.4
						c-6.8,0.2-13.8,1.5-20.6,3.9C1540.4,658.2,1525.6,674.6,1519.6,694z"/>
				</g>
			</g>
			<g>
				<g>
					<path class="st27" d="M1522.1,740.8l-20.5,8.9c-0.8-1.8-1.5-3.7-2.2-5.6c-6.8-19-6.8-38.9-1.2-56.8l21.4,6.7
						c-4.2,13.4-4.2,28.3,0.9,42.6C1520.9,738,1521.5,739.4,1522.1,740.8z"/>
				</g>
			</g>
			<g>
				<g>
					<path class="st28" d="M1515.4,772c-5.6-6.6-10.3-14-13.9-22.3l20.5-8.9c2.7,6.2,6.2,11.8,10.4,16.7L1515.4,772z"/>
				</g>
			</g>
		</g>
		<g>
			<g>
				<g>
					<path class="st25" d="M1745.4,738.5c-14.9-7-32.1-3.3-42.8,8.1c-2.6,2.8-4.8,5.9-6.5,9.6c-5.2,10.9-4.5,23.1,0.7,33
						c3.6,6.9,9.4,12.7,17,16.3c0.8,0.4,1.5,0.7,2.3,1c3.5,1.4,7,2.2,10.6,2.5c14.9,1.2,29.7-6.8,36.4-21.1
						C1771.7,769.3,1763.9,747.3,1745.4,738.5z M1754.6,783.8c-5.1,10.7-16.1,16.7-27.3,15.8c-2.7-0.2-5.3-0.8-7.9-1.8
						c-0.6-0.2-1.1-0.5-1.7-0.7c-5.7-2.7-10-7-12.7-12.2c-3.9-7.4-4.4-16.6-0.5-24.7c1.3-2.7,2.9-5.1,4.9-7.2
						c8-8.5,20.9-11.3,32.1-6.1C1755.3,753.5,1761.2,770,1754.6,783.8z"/>
				</g>
			</g>
			<g>
				<g>
					<path class="st26" d="M1705,784.9l-8.2,4.3c-5.2-9.9-5.8-22.1-0.7-33c1.7-3.6,3.9-6.8,6.5-9.6l6.7,6.4
						c-1.9,2.1-3.6,4.5-4.9,7.2C1700.6,768.3,1701.1,777.4,1705,784.9z"/>
				</g>
			</g>
			<g>
				<g>
					<path class="st27" d="M1719.4,797.8l-3.4,8.6c-0.8-0.3-1.5-0.6-2.3-1c-7.6-3.6-13.4-9.4-17-16.3l8.2-4.3
						c2.7,5.2,7,9.5,12.7,12.2C1718.3,797.3,1718.8,797.6,1719.4,797.8z"/>
				</g>
			</g>
		</g>
		<g>
			<g>
				<g>
					<path class="st25" d="M1763,675.1c7-14.9,3.3-32.1-8.1-42.8c-2.8-2.6-5.9-4.8-9.6-6.5c-10.9-5.2-23.1-4.5-33,0.7
						c-6.9,3.6-12.7,9.4-16.3,17c-0.4,0.8-0.7,1.5-1,2.3c-1.4,3.5-2.2,7-2.5,10.6c-1.2,14.9,6.8,29.7,21.1,36.4
						C1732.2,701.5,1754.3,693.6,1763,675.1z M1717.7,684.4c-10.7-5.1-16.7-16.1-15.8-27.3c0.2-2.7,0.8-5.3,1.8-7.9
						c0.2-0.6,0.5-1.1,0.7-1.7c2.7-5.7,7-10,12.2-12.7c7.4-3.9,16.6-4.4,24.7-0.5c2.7,1.3,5.1,2.9,7.2,4.9c8.5,8,11.3,20.9,6.1,32.1
						C1748.1,685,1731.5,690.9,1717.7,684.4z"/>
				</g>
			</g>
			<g>
				<g>
					<path class="st25" d="M1716.7,634.7l-4.3-8.2c9.9-5.2,22.1-5.8,33-0.7c3.6,1.7,6.8,3.9,9.6,6.5l-6.4,6.7
						c-2.1-1.9-4.5-3.6-7.2-4.9C1733.2,630.3,1724.1,630.8,1716.7,634.7z"/>
				</g>
			</g>
			<g>
				<g>
					<path class="st27" d="M1703.7,649.1l-8.6-3.4c0.3-0.8,0.6-1.5,1-2.3c3.6-7.6,9.4-13.4,16.3-17l4.3,8.2
						c-5.2,2.7-9.5,7-12.2,12.7C1704.2,648,1704,648.6,1703.7,649.1z"/>
				</g>
			</g>
			<g>
				<g>
					<path class="st28" d="M1692.7,656.3c0.3-3.6,1.1-7.1,2.5-10.6l8.6,3.4c-1,2.6-1.6,5.3-1.8,7.9L1692.7,656.3z"/>
				</g>
			</g>
		</g>
		<g>
			<polygon class="st29" points="1718.2,833.3 1649.1,833.3 1649.1,831.9 1716.8,831.9 1716.8,805.8 1718.2,805.8 			"/>
		</g>
		<g>
			<polygon class="st29" points="1588.1,833.3 1498.2,833.3 1498.2,831.9 1586.7,831.9 1586.7,789.2 1588.1,789.2 			"/>
		</g>
		<g>
			<rect x="1498.2" y="817.6" class="st25" width="61.8" height="8.2"/>
		</g>
		<g>
			<rect x="1649.1" y="817.6" class="st25" width="36.4" height="8.2"/>
		</g>
		<g>
			<g>
				<path class="st30" d="M697.9,1082.8c0,0-26.1-0.9-34.5,20.5c-8.3,21.4-2,37.8,0.3,45.6c6.2,20.4,6.7,27.8,3.7,40
					c-2.7,10.9-5.1,16.5-8.2,26.7c-3.1,10.2,2.1,9.1,2.5,9.8s102.3,10.1,102.3,10.1s-2.7-22.1-9.9-27.2c-7.2-5.1-14.3-6.2-8.8-28
					c5.5-21.8,8.9-32,5.9-47.8c-3.5-18.3-5.8-29.8-23-41.8C717.9,1083.6,706.2,1082,697.9,1082.8z"/>
			</g>
			<path class="st6" d="M667.8,1802.8c0,0,14.4,21.3,20.2,26.5c0,0,12.9,4.7,14.1,13.7c1.3,9,1.1,15-14.1,15.4
				c-15.2,0.4-25.2-2.3-28-11.5c-2.8-9.2-8.9-15.5-8.9-15.5v19.3h-3.4c0,0-0.9-18.7-1.1-22.1c-0.2-3.4-2.5-16.6,4.8-22.5
				C658.6,1800.3,667.8,1802.8,667.8,1802.8z"/>
			<path class="st6" d="M739.7,1785.7c0,0,2.5,5.9,7.2,12c3.4,4.5,14.1,22.9,18.9,24.2c4.7,1.3,19.3,3.9,20.6,12
				c1.3,8.1,1.9,13.9-12.4,14.6c-14.4,0.6-23.8,1.5-30.7-8.6c-6.9-10.1-17.8-17.4-17.8-17.4v26.3h-5.6c0,0-2.6-27.4-4.1-29.3
				c-1.5-1.9-5.4-22.9,7.9-33.9S739.7,1785.7,739.7,1785.7z"/>
			<path class="st16" d="M658.2,1391.1c0,0-16.1,24-21.1,52c-4.9,28,0.9,121.5,0.7,135.3c-0.2,13.8-13.1,48.2-10.5,74.3
				c2.6,26,24.1,153.6,24.1,153.6l16.5-3.4c0,0-1.6-132.2,0-143.1c1.6-10.9,4.8-50.8,5.5-55.3c0.6-4.5,40.8-122.7,40.8-142.9
				S701.9,1358.2,658.2,1391.1z"/>
			<path class="st16" d="M749.3,1400.3c0,0,29.8,113.7,33.3,129.5c3.5,15.8,8.7,28.8,8.7,35.4c0,15.5-5.8,40.4-5.8,40.4l-45.8,180.1
				l-19,3c0,0,11-110.7,11.5-131.9c0.5-21.3,16.9-51.5,13.7-60.5s-51.8-112.9-51.8-112.9S657.4,1367.3,749.3,1400.3z"/>
			<path class="st16" d="M688,1829.3c0,0-14.7,8.2-24.2-2.3c-8-8.9-12.4-20.8-12.4-20.8l16.5-3.4L688,1829.3z"/>
			<path class="st16" d="M765.8,1822c0,0-12.9,3.2-17.8,0c-4.9-3.2-21.7-31.5-27.2-33.2c0,0,5.4-10.9,19-3
				C739.7,1785.7,762.1,1817.3,765.8,1822z"/>
			<path class="st31" d="M791.3,1565.2c0,0-68.9,29.6-171.5,29.6c0,0,10.8-155.5,25.7-189c14.9-33.5,106.2,3.4,106.2,3.4
				S791.3,1537.2,791.3,1565.2z"/>
			<g>
				<path class="st31" d="M868.8,1339.9c0,0-62.9,5.4-78.4-1.5c-7.8-3.5-18.3-17.8-28.1-33.6c-1.7-2.7-3.3-5.4-4.9-8.1
					c-11.9-20.3-21.5-40.2-21.5-40.2s-28.8-36.2,1.9-49.1c0,0,11.9,3.3,19.3,14.7c7.4,11.4,13.2,28.6,14.6,34.2
					c1.5,5.6,26.1,55.4,27.6,56.8c1.5,1.4,17,0.5,28.9,1.6c19.5,1.8,40,2.9,40,2.9L868.8,1339.9z"/>
			</g>
			<g>
				<path class="st31" d="M760,1289.5c-7.7,17.9-0.4,23.9-4,41.8c-3.5,17.9-4.8,68.9-4.1,78.8c0.7,9.9-88.2,20.2-108.7,2
					c0,0,6.9-38.7,19.4-62.7c2.4-4.6,1.2-22.6-1.2-28.8c-0.7-1.9-3.7-9.2-7.5-18.5c0,0,0,0,0,0c-3.9-9.6-8.7-21.3-12.8-31.2
					c-4.8-11.7-8.5-20.8-8.5-20.8s-3.1-28.8,8.9-38.1c10.4-8.1,38.7-10.9,43.8-12.7c5.1-1.8,19.9-2.5,30.3-1c0,0,15.9,7.5,21.4,8.6
					c5.5,1.1,27,29,30.7,39.1C771.4,1256.3,767.7,1271.5,760,1289.5z"/>
			</g>
			<g>
				<path class="st16" d="M723.1,1180c0,0-3.2,29.2-2.5,38.7c0,0-13.3,16.2-32.1-19.8c0,0,4.7-14.4-1.3-34.6
					C681.3,1144.2,723.1,1180,723.1,1180z"/>
			</g>
			<path class="st16" d="M672.6,1201.9c0,0,11.4,33.6,42.6,31.1c31.2-2.5,14.8-28.4,14.8-28.4s-7.8-4.5-10-4.9
				c-2.2-0.4-31-1.6-31-1.6L672.6,1201.9z"/>
			<path class="st32" d="M873.7,1352.6h-74.4c-3.3,0-5.9-2.6-5.9-5.9v-111.4c0-3.3,2.6-5.9,5.9-5.9h74.4c3.3,0,5.9,2.6,5.9,5.9
				v111.4C879.6,1350,877,1352.6,873.7,1352.6z"/>
			<rect x="799.2" y="1237.7" class="st4" width="74.5" height="106.5"/>
			<path class="st16" d="M771.8,1327.4c0,0,2.8,0.1,4.7-1.3c3.2-2.4,4.4-8.4,10-7.9c5.6,0.4,8.3,18.1,6.9,21.5
				c-1.4,3.4-9.3,5-20.9,2.7C760.9,1340.1,771.8,1327.4,771.8,1327.4z"/>
			<path class="st16" d="M784.6,1318.3c0,0,8.1-2.8,17.5-4.8c8.2-1.8,18-2.4,19-0.9c1.1,1.6-8,3-16.1,5.2c-7.4,2.1-5.7,2.9-5.7,2.9
				s-0.5-0.2,8-1c9.1-0.9,18.5-0.8,19.4,1c0.5,0.9,0.1,1.5-3.1,2.3c2-0.1,2.3,0.4,2.3,1.2c0.4,4.1-12.9,7.4-18.2,8.7
				c4.1-1,7.1-1.3,5.7,1.5c-1.7,3.1-20.6,6.9-27.3,8.9C778.8,1345.4,784.6,1318.3,784.6,1318.3z"/>
			<g>
				<path class="st16" d="M869.8,1253c0,0,12.3-2.9,16.2,3.1s4.1,13.5,3.1,17c-1,3.5-4.2,12.6-8.3,10.7
					C867.5,1277.8,869.8,1253,869.8,1253z"/>
			</g>
			<g>
				<path class="st16" d="M881.9,1253.2c0,0-1.7-8.3-5-6.9c-3.3,1.4-0.3,6.9-0.3,6.9L881.9,1253.2z"/>
			</g>
			<g>
				<path class="st16" d="M869.8,1253c0,0,0.2-4.7,8.8,0.1S869.8,1253,869.8,1253z"/>
			</g>
			<path class="st33" d="M757.4,1296.7c0,0,9.4-22.2,9.8-27.2c-0.1,3-0.8,21-4.9,35.4C760.6,1302.2,759,1299.4,757.4,1296.7
				C757.4,1296.7,757.4,1296.7,757.4,1296.7z"/>
			<path class="st34" d="M767.2,1269.5c0-0.3,0-0.4,0-0.4C767.2,1269.2,767.2,1269.3,767.2,1269.5z"/>
			<path class="st33" d="M719.2,1327.4l-38.9-68.6c0,0,13.6,68.4,23.9,70.7C714.5,1331.9,719.2,1327.4,719.2,1327.4z"/>
			<g>
				<path class="st31" d="M643.1,1210.8c0,0-18.7,9.3-12.2,33.4c6.4,24.1,12.8,31,19,40c5.8,8.5,17.7,31.4,19.1,34
					c1.5,2.6,15.7,39.9,28.8,44.2c13.2,4.3,78-16.4,79.5-14.1c1.5,2.3-0.1-22.8-0.1-22.8s-30.1,2.2-36.8,1.8
					c-10.8-0.7-28.1,3.7-32.3-5.7c-4.9-11-22.5-47.1-24.3-53.1C682,1262.5,660.4,1204.7,643.1,1210.8z"/>
			</g>
			<g>
				<path class="st35" d="M718.3,1096.5c0,0,28.8,18.8,19.4,64.3c-9.4,45.5-43.4,20.5-47.1,17.9c-3.7-2.6-15.1-31-15.6-43.4
					C674.7,1123.5,668.6,1076.7,718.3,1096.5z"/>
			</g>
			<g>
				<path class="st30" d="M716.3,1105.6c-3-0.9-13.1,18.7-18.6,23.5c-5.5,4.8-15.5,17-16.5,30.3c-1,13.3-12.2-29.1-8.3-44.8
					s9.1-38.8,44.2-20.5c35.1,18.3,26,51,26,51S731.5,1110.1,716.3,1105.6z"/>
			</g>
			<g>
				<path class="st35" d="M692,1137c-0.9-5.4-12.8-9.9-12.6-1.8c0.2,8.1,6.7,17.4,10.4,16.8C693.5,1151.4,692.8,1141.9,692,1137z"/>
			</g>
			<path class="st36" d="M693.4,1180.5c0.2,0.4,7.1,13.6,28,16.9c0.5-5.1,1.1-11.4,1.1-11.4S707.5,1191.1,693.4,1180.5z"/>
			<g>
				<rect x="807.7" y="1250.4" class="st8" width="26.2" height="5.5"/>
				<g>
					<g>
						<g>
							<g>
								<g>
									<g>
										<path class="st1" d="M849.5,1265.3l-3.7-6.1c-0.3-0.5-0.1-1.1,0.4-1.5c0.5-0.3,1.1-0.1,1.5,0.4l2.6,4.3l7-4.1
											c0.5-0.3,1.1-0.1,1.4,0.4c0.3,0.5,0.1,1.1-0.4,1.4L849.5,1265.3z"/>
									</g>
								</g>
							</g>
						</g>
					</g>
					<g>
						<path class="st1" d="M852,1274.7c-7.3,0-13.3-6-13.3-13.3c0-7.3,6-13.3,13.3-13.3c7.3,0,13.3,6,13.3,13.3
							C865.3,1268.7,859.3,1274.7,852,1274.7z M852,1249.9c-6.3,0-11.4,5.1-11.4,11.4c0,6.3,5.1,11.4,11.4,11.4
							c6.3,0,11.4-5.1,11.4-11.4C863.4,1255,858.3,1249.9,852,1249.9z"/>
					</g>
				</g>
				<g>
					<g>
						<g>
							<g>
								<g>
									<g>
										<path class="st1" d="M849.5,1299l-3.7-6.1c-0.3-0.5-0.1-1.1,0.4-1.5c0.5-0.3,1.1-0.1,1.5,0.4l2.6,4.3l7-4.1
											c0.5-0.3,1.1-0.1,1.4,0.4c0.3,0.5,0.1,1.1-0.4,1.4L849.5,1299z"/>
									</g>
								</g>
							</g>
						</g>
					</g>
					<g>
						<path class="st1" d="M852,1308.3c-7.3,0-13.3-6-13.3-13.3c0-7.3,6-13.3,13.3-13.3c7.3,0,13.3,6,13.3,13.3
							C865.3,1302.3,859.3,1308.3,852,1308.3z M852,1283.6c-6.3,0-11.4,5.1-11.4,11.4s5.1,11.4,11.4,11.4c6.3,0,11.4-5.1,11.4-11.4
							S858.3,1283.6,852,1283.6z"/>
					</g>
				</g>
				<rect x="807.7" y="1261.3" class="st8" width="26.2" height="5.5"/>
				<rect x="807.7" y="1286.3" class="st8" width="26.2" height="5.5"/>
				<rect x="807.7" y="1297.3" class="st8" width="26.2" height="5.5"/>
			</g>
		</g>
		<g>
			<path class="st16" d="M897.5,1384.5c0,0-8.3,3.2-14.7,3.8c-6.4,0.6-15.7,7.3-18.1,10.2c-2.4,2.9-21.8,23.7-22.1,26.4
				c-0.3,2.7,5,1.8,6.7-0.3c1.8-2.1,18.7-18.9,18.7-18.9s-19,21.1-18.9,23.6c0.1,2.5,3,4.6,6.5,2.4c0,0,2.8,5.7,7.7,0.8l9.9-9.9
				c0,0-4.2,6,1.3,4.3c2.9-0.9,12.7-13.4,15.4-15.2c2.7-1.8,13.2-17.8,13.2-17.8L897.5,1384.5z"/>
			<path class="st37" d="M965,1793.9c0,0-7.2,14.4-11.6,17.3c-4.4,2.8-28.9,26.7-33.9,28.9c-5,2.2-21.2,5.3-21,12.9
				c0.2,7.7,41.8,5.3,49.9,2.4c8.1-2.8,21.7-21.2,27.1-21c5.5,0.2,3.5,22.5,3.5,22.5h5.9c0,0,7.4-23.6,7.2-31.9
				c-0.2-8.3-4.8-31.1-4.8-31.1H965z"/>
			<path class="st37" d="M1066.3,1785c0,0-3.2,14.3-8.4,19.3c-5.2,5-24.8,26.1-29.8,28.4c-5,2.3-14.5,3.9-17.4,7.5
				c-2.9,3.6-1.2,14.3,17.4,13.2c18.6-1.1,24.7-1,29.1-4.7c4.4-3.7,18.7-16.7,23-17v20.6h5.1c0,0,9-27.1,5.8-38.5
				s-3.1-26.9-3.1-26.9L1066.3,1785z"/>
			<path class="st16" d="M1058.9,1172.7c0,0,8.5,21.9,1.9,38.8c0,0,31.2-2,32.3-5.5c1.2-3.5-1.3-36.3,3-46
				S1058.9,1172.7,1058.9,1172.7z"/>
			<g>
				<g>
					<g>
						<path class="st16" d="M1115.3,1466.1c0,0-1.8,4.8-1.5,8.3c0.2,2.8-1.3,7.4-1.9,9.8c-0.6,2.5-2,13.4-1.6,16
							c0.1,1.1,3.7,7.4,3.7,9.7c0,2.3-0.4,6.9,1.5,6.7c2-0.1,3.6-4.2,3.6-4.2s0.2,2.1,1.9,2.5c3.4,0.8,4.9-0.9,4.9-0.9
							s1.5,2,3.1,1.9c3.3,0,4.7-1.7,4.7-1.7s1.6,0.9,3.9,0.4c2.9-0.7,3.6-3.5,3.6-3.5s3.8,0,4.5-2c0.8-2,0.3-3.8,0.4-5.4
							c0.2-1.7-2.6-15.7-9-24.9c-6.4-9.2-3.2-20.7-3.2-20.7L1115.3,1466.1z"/>
					</g>
				</g>
			</g>
			<g>
				<path class="st38" d="M1105.6,1542.9l-3.9-26.6c-0.6-4.3,2.4-8.3,6.7-8.9l42.2-6.1c4.3-0.6,8.3,2.4,8.9,6.7l3.9,26.6
					c0.6,4.3-2.4,8.3-6.7,8.9l-42.2,6.1C1110.2,1550.2,1106.2,1547.2,1105.6,1542.9z M1109.1,1512.6c-1.4,0.2-2.4,1.5-2.2,2.9
					l3.9,26.6c0.2,1.4,1.5,2.4,2.9,2.2l42.2-6.1c1.4-0.2,2.4-1.5,2.2-2.9l-3.9-26.6c-0.2-1.4-1.5-2.4-2.9-2.2L1109.1,1512.6z"/>
			</g>
			<g>
				
					<rect x="1064.4" y="1532.3" transform="matrix(-0.9896 0.1435 -0.1435 -0.9896 2502.6396 2998.8374)" class="st39" width="157.6" height="114.7"/>
			</g>
			<g>
				<g>
					<path class="st40" d="M1118.3,1511.3c0,0-2.5-12.6,0.3-16c2.8-3.4,4,1.1,4,1.1s-1.2-4.4,2.2-5.8c3.5-1.4,4.5,4,4.5,4
						s0-3.6,3.9-3.7c3.9-0.1,3.7,4.5,3.7,4.5s2.8-5.1,5.9-1.4c5.1,6.2,2.8,15.4,2.8,15.4s-0.8,2.2-4.5,2c0,0-1.5,5.4-7.5,3
						c0,0-4.9,4.3-7.8-0.2C1125.9,1514.1,1120.3,1518.4,1118.3,1511.3z"/>
				</g>
			</g>
			<path class="st31" d="M1055.9,1204.1c0,0-18.4,6.4-26.7,8.1c-8.3,1.8-25.7,9.8-24.3,40c1.4,30.2,6.6,56.4,8.5,69.4
				c1.9,13,0.7,46-2.4,62.1c0,0,44.1,10.9,96.1,0c0,0-9.2-27.4-9-34.5c0.2-7.1,30.7-65.4,32.1-74.6s7.6-49.8-6.4-58.8
				c-13.9-9-25.3-7.8-31.2-11.8C1086.8,1200.1,1064.5,1201.2,1055.9,1204.1z"/>
			<path class="st31" d="M1032.3,1211.5c0,0-20.3-0.6-34.7,31.3c-14.4,31.9-17.9,50.5-21.2,55c-3.3,4.5-14.9,22-26.2,30.4
				s-58.5,56.4-58.5,56.4l12.9,16.6c0,0,68-48.2,75.1-56.4c7.1-8.3,50.1-70.8,52.7-80.3C1034.8,1255.1,1054.7,1221.2,1032.3,1211.5z
				"/>
			<path class="st31" d="M1154.2,1369.8c0.1,12.7-13.1,99.7-13.1,99.7l-25,1.1c0,0,8-86.3,10.9-106.1c0.8-5.8,0.1-14.9-1.3-24.8v0
				c-0.9-6.3-2.1-12.9-3.3-19.2c-3.4-17.5-7.4-32.7-7.4-32.7s-22.5-74.3,12.1-68.8c0,0,12,14.3,15.9,36.6
				c3.9,22.3,7.8,55.6,7.1,68.7S1154.1,1360.4,1154.2,1369.8z"/>
			<path class="st21" d="M1011,1383.7c0,0-8,19-8.7,23.8c-0.7,4.8-25.9,67.4-27.6,85.8c-1.8,18.5-7.1,68-9,75.1
				c-1.9,7.1,4.2,38.7,5.2,45.8c0.9,7.1,0.5,122.7-8,179.9c0,0,19.8,8.5,34.9,0c0,0,25-89.2,23.6-140.7c-1.4-51.5-7.9-73.2,0-93.9
				s54.7-83.1,59.4-89.7c4.7-6.6,34.3-43.1,6.3-82.7C1059.2,1347.3,1011,1383.7,1011,1383.7z"/>
			<path class="st21" d="M1107.7,1552.7c-2.5,16.5,0.1,38.2,5.3,98.7c5.2,60.4-9.1,133.6-9.1,133.6c-17.9,6.1-38.6,0-38.6,0
				c0.5-4.2,0-147.3,0-160s-3.7-27.2-4.6-41.8c-0.6-10-5.3-28.4-10.5-47.1c-1.6-5.6-3.2-11.3-4.8-16.7c0,0,0,0,0,0
				c-0.9-3.1-1.7-6.1-2.6-9c-7.4-25.5-17.2-123.9-17.2-123.9s54.8-44.1,81.5-2.6c26.7,41.5,13,71.8,12,76.9
				C1118.2,1465.8,1110.1,1536.2,1107.7,1552.7z"/>
			<path class="st31" d="M1006.7,1306.4c0,0,3.7,74.3-14,117.2c0,0,58.4,19.5,133.8,0c0,0-16.2-53.3-14.9-61.4
				c1.3-8.1,29.5-102.1,20.8-124.2C1123.8,1215.9,1015.4,1236.7,1006.7,1306.4z"/>
			<path class="st16" d="M1076.4,1086.5c-13.2-1.5-47.2,1.2-44.6,52.4c2.6,51.2,21.2,48.2,39.9,42.7c18.6-5.4,40.8-45.1,40.8-55.7
				C1112.5,1115.3,1113.9,1090.8,1076.4,1086.5z"/>
			<path class="st41" d="M1033.7,1115.5c0,0,14.8,18.9,29.7,23.4c0,0,11.5,20.5,31.5,25.7c0,0,42.7-40.8,6.8-71.5
				C1065.8,1062.4,1033.4,1099.8,1033.7,1115.5z"/>
			<path class="st16" d="M1060.6,1131.8c0.5-2.8,6.7-8.5,11.5-2.1c4.8,6.4-3.9,21.2-7.3,21.2
				C1061.5,1151,1058.7,1142.5,1060.6,1131.8z"/>
			<path class="st41" d="M1107.7,1102.4c1.1-1.6,33.4-16.2,40.1,14.3c6.7,30.4-26,65.9-31.8,81.1c-5.7,15.2,0,51.3,0,51.3
				s-17.1-18.6-23.1-37.6C1086.4,1190.6,1084.2,1138,1107.7,1102.4z"/>
			<path class="st37" d="M1084.9,1463.9c-0.4,0.9-27.7,61.5-34.7,72c-1.6-5.6-3.2-11.3-4.8-16.7c0,0,0,0,0,0
				S1084,1465.2,1084.9,1463.9z"/>
			<path class="st42" d="M1131.3,1277.7c0,0-0.9,38.5-5.7,61.9c-0.9-6.3-2.1-12.9-3.3-19.2
				C1122.5,1319.5,1130.4,1283.8,1131.3,1277.7z"/>
		</g>
		<g>
			<g>
				<path class="st43" d="M434.2,1818.5c0,0,8.2,12.3,19.8,15c11.6,2.7,23,6.9,23.1,14.2c0.1,7.3-33.4,11.7-46.7,4.3
					c-19.8-11-21.8-7.7-24-13.2c-2.2-5.5,2.6-20.2,2.5-21.9C408.7,1814.8,434.2,1818.5,434.2,1818.5z"/>
			</g>
			<g>
				<path class="st44" d="M432.9,1812.5c0,0,1.5,6,1.3,6.1c-0.2,0.1-26.1,3.2-25.3-1.6c0.6-3.9,1.5-8.1,1.5-8.1L432.9,1812.5z"/>
			</g>
			<g>
				<path class="st43" d="M347.2,1817.7c0,0,5.9,11.8,15.9,15.8c10.7,4.3,19.4,9.2,19.2,16.4c-0.2,7.1-26.3,14.3-45.2,0.7
					c-12-8.6-15.8-8.7-17.7-14.1c-1.9-5.4,3.3-19.5,3.3-21.3C322.5,1813.1,347.2,1817.7,347.2,1817.7z"/>
			</g>
			<g>
				<path class="st44" d="M347.5,1811.6c0,0-0.1,6-0.3,6.1c-0.2,0.1-25.2,2.2-24.6-2.5c0.5-3.7,2.4-8.2,2.4-8.2L347.5,1811.6z"/>
			</g>
			<g>
				<path class="st45" d="M439.1,1451c0,0,23.2,102.4,28.5,133.6c4.5,26.5,8.1,54.2,5.9,73.3c-2.7,23.7-36.3,146.7-34.9,153.6
					c1.4,7-35.1,1.1-35.1,1.1s25.5-137.1,20.4-162.7c-3.8-18.9-36.9-144.5-42-138s-11.4,118.5-15.1,137.1
					c-3.8,18.6-15.3,165.6-15.3,165.6s-25.8,3.8-32.7-2c0,0-3.1-125.5-0.7-160.4c0.9-13.3-15.6-159.4,5.6-218.2
					C334.9,1403,439.1,1451,439.1,1451z"/>
			</g>
			<g>
				<path class="st46" d="M540.1,1357.9c-16.5-2.3-68.6,20.7-73.3,19c-3.3-1.2-10.9-26.1-16.3-44.9c-3.2-11.1-5.7-20.2-6-20.9l0,0
					c0.1,0.5,0.9,9-0.2,20.2c-0.1,0.7-0.4,0.9-0.5,1.7c0,0.2-0.1,0.8-0.2,1c-1.2,2.8-1.7,7.9-2.8,12.3c-1.7,6.4-2.6,15.1-1.9,24.1v0
					c0,0.1,0,0.1,0,0.2c0,0.2,0,0.4,0,0.6c0,0.1,0,0.2,0,0.2c-0.5,16.1,0.7,33.5,1.1,42.7c0.7,14.3-4,20.8-4.1,21c0,0,0,0,0,0
					l-5-0.7l-3.6-0.5l0,0l-4.8-0.7l-18.9-2.7l-6.8-1l-1.6-0.2l-12-1.7l-33.7-4.7l-3.7-0.5l-1.5-0.2l-12.7-1.8l-5.7-0.8l0,0
					c0,0-4.9-34.6-5.3-53.3c-0.3-17.2-9.5-52.1-11-57.7c0,0,0-0.1,0-0.1c0-0.1,0-0.1,0-0.2c0-0.1,0-0.2-0.1-0.2c0,0,0-0.1,0-0.1
					c0,0,0,0,0,0c0,0,0,0,0,0c0,0,0-0.1,0-0.1s-27.5,28.9-32.9,41.5c-1.6,3.8-6.6,14.2-12.9,26.9c-4.3-8.3-7-14-7-15.5
					c0-0.2,0-0.4,0-0.6c0.4-12.5,13.5-63,23.8-96.1c8-16.1,14.9-29.1,17.1-30.7c3.4-2.4,17.5-8.5,29.8-13.4c0.4-0.2,0.8-0.3,1.2-0.5
					c1.1-0.5,2.3-0.9,3.4-1.3c0.6-0.2,1.1-0.4,1.6-0.6c0.3-0.1,0.6-0.2,0.9-0.3c0.2-0.1,0.5-0.2,0.7-0.3h0c6.2-2.3,10.8-4,11.8-4
					c0.2,0,0.4,0,0.8,0c0.4,0,0.9,0,1.6,0.1c7.6,0.4,30.4,2.6,37.7,3.3c1.3,0.1,2.2,0.2,2.3,0.2c0,0,0,0,0,0s3.5,1.6,8.7,4l0,0
					l0.5,0.2c3.2,1.5,6.8,3.4,10.7,5.5c7.6,4.2,16,9,23,12.4c6.8,3.2,16.2,7.8,17,8.4l34.6,99.8l60.1-11L540.1,1357.9z"/>
			</g>
			<g>
				<path class="st47" d="M435.8,1435.1c0,0,2.5,3,3.3,15.9c0,0-104.3-12.2-115.3-17c0,0-0.4-14.2,1.9-14.4
					C328.2,1419.4,435.8,1435.1,435.8,1435.1z"/>
			</g>
			<g>
				<path class="st16" d="M346.9,1209.6c0.3,16.4,32,25.3,32,25.3s13.3-16.6,10.1-18.2c-1.2-0.6-1.7-3.1-1.9-5.9
					c-0.1-2.6,0-5.6,0.2-7.4c0.1-1.2,0.2-1.9,0.2-1.9s-4.5-4.8-10.3-10.5c-10.1-10-23.9-22.7-23.9-17.6c0,0.3,0,0.6,0.1,1
					C355.8,1185.7,346.9,1209.6,346.9,1209.6z"/>
			</g>
			<g>
				<path class="st43" d="M349.5,1422.2c0,0-2.3,14.4-2.5,18.1l-4.8-1c0,0,1.3-15.2,2.1-17.7L349.5,1422.2z"/>
			</g>
			<g>
				<path class="st43" d="M427.1,1433.5c0,0,1.8,13,1.9,18l-5.1-0.7c0,0-1-16.3-1.6-18L427.1,1433.5z"/>
			</g>
			<g>
				<path class="st48" d="M359.1,1185.6C359.1,1185.6,359.1,1185.6,359.1,1185.6c0.1,0.1,1.4,2.1,3.7,5c4.9,6.1,14,16.2,24.3,20.2
					c-0.1-2.6,0-5.6,0.2-7.4c1.1,0,2.1-0.1,3.1-0.4c-2.8-4.9-6.9-10.1-6.9-10.1l-6.4-1.9L359.1,1185.6z"/>
			</g>
			<g>
				<path class="st16" d="M353,1173.6c2.7,6,5.3,10.3,6.1,12c0,0,0,0,0,0c0.5,1.1,1.8,2.9,3.7,5c5.2,5.6,14.9,13,24.5,12.8
					c1.1,0,2.1-0.1,3.1-0.4c3.9-0.8,8.4-2.6,10.9-7.5c19.8-38.7,5.5-70.4,5.5-70.4s-54.1-15.3-62.5,1
					C338.3,1137.5,346.5,1159.6,353,1173.6z"/>
			</g>
			<g>
				<path class="st22" d="M406.8,1125.1c0,0,5-0.3,6.3-9.8c1.2-9.4-1.3-12-1.3-12s-22.3-9.3-30.3-10.6c-8-1.2-27.7-2.4-32.3,2.9
					c0,0-11.2-2.6-14.3,16c-4.9,29.6,16.5,58.3,16.5,58.3s-0.2-19.3,4.1-21.9c4.3-2.6,7.9,3.5,7.9,3.5l8.7,1.6
					c0,0-13.2-28.6,2.6-29.6C390.6,1122.4,397.7,1126.7,406.8,1125.1z"/>
			</g>
			<g>
				<path class="st16" d="M363.1,1143.9c-0.8-8.5-16.2-11.8-15.2-2.8c1,8.9,8.6,17.5,12.1,17.2
					C363.5,1157.9,363.7,1150.3,363.1,1143.9z"/>
			</g>
			<g>
				<path class="st49" d="M263.4,1376.3c6.7,12.8,17.3,31.6,27.7,49.8c-1.4,2.6-2.7,5.1-4,7.6c-3.1,6.1-5.9,12.1-7.9,17.6
					c-2.4,6.7-5.7,23.7,0.6,26.9l33.4,18.4c0,0,0.2-0.7,0.7-1.9c1.1-3,3.5-9.4,6.8-17.7c0.1-0.3,0.4-1.1,0.9-2.2
					c0.7-1.6,1.6-3.8,2.7-6.4c0.5-1.1,1-2.3,1.5-3.6c0.6-1.4,1.2-2.9,1.9-4.3c0.9-2.1,1.8-4.2,2.6-6.2c2.3-5.3,4.1-9.4,4.1-9.4
					c0.1-0.2,0.2-0.5,0.3-0.7c1.1-2.3,2.2-4.7,3.3-7.1c1.8-3.6,3.6-7.3,5.4-10.8c0.2-0.4,0.4-0.7,0.6-1.1c0.3-0.6,0.7-1.2,1-1.9
					c0.2-0.4,0.4-0.8,0.6-1.1c0-0.1,0.1-0.2,0.1-0.3c0.1-0.1,0.2-0.3,0.2-0.4c9.6-17.6,20.5-32.3,24-53.9c0.3-2.1,0.7-4.2,1-6.2
					c0.5-3.4,1-6.8,1.4-10.1c0.2-1.3,0.3-2.5,0.5-3.7c1.7-14.4,2.8-27.2,3.6-36.2c2.6-27.8-14.4-58-27.5-76.6
					c-7-10-12.9-16.6-14-17.9c0,0,0,0-0.1-0.1c-0.2,0.1-0.5,0.2-0.7,0.3c-0.3,0.1-0.6,0.2-0.9,0.3c-0.5,0.2-1.1,0.4-1.6,0.6
					c-1.1,0.4-2.2,0.9-3.4,1.3c-0.4,0.2-0.8,0.3-1.2,0.5c-12.7,5-42.5,13.8-45.9,16.2c-1.9,1.4-3.1,12.6-8.1,28.6
					c-10.3,33-16.4,82.9-16.7,95.3c0,0.2,0,0.4,0,0.6C256.3,1362.3,259,1368.1,263.4,1376.3z M314.1,1370.1c0,6.2-2,13.3-5.1,20.9
					c-0.1,0.2-0.2,0.4-0.2,0.6c-2.1-4.6-4.2-8.9-6-13c0,0,0,0,0,0c-5-11.1-8.4-19.8-8.6-23.2c-1.2-22,15-47.4,15-47.4c0,0,0,0,0,0
					c0,0,0,0,0,0c0,0,0,0.1,0,0.1c0,0.1,0,0.2,0.1,0.2c0,0,0,0.1,0,0.2c0,0,0,0.1,0,0.1C312.7,1321.8,314.1,1370.1,314.1,1370.1z"/>
			</g>
			<g>
				<path class="st49" d="M562.3,1324.1l-75.6,16.5l-36-94.2c-0.8-0.6-11.1-6.2-18-9.4c-7.1-3.4-16.1-7.6-24.1-11.3
					c-3.8-1.8-7.4-3.4-10.4-4.8l-0.2,0.2c0,0,4.5,14.8,10.2,51.9c0,0,0,0,0,0c0.2,1.2,0.4,2.5,0.6,3.8c0,0.1,0,0.3,0.1,0.5
					c0.1,0.9,0.3,1.7,0.4,2.6c0,0.1,0,0.2,0,0.3c0.1,0.6,0.2,1.2,0.3,1.8c0.2,1.5,0.4,3,0.7,4.5c2.6,18,6.2,48.7,9.7,79.7v0
					c2.7,24.4,9,49.5,11,68.2c0,0,0,0,0,0c0.4,3.7,1.3,8.6,2.6,14.1c0.1,0.6,0.3,1.3,0.4,1.9c5.6,23.6,16.4,57,16.4,57l3.2-2.9
					l9.4-8.6c2.2-2,3-5,2.1-7.8c-5.2-16.7-22.8-76-26.1-117.7c0,0,0,0,0,0c-1-13.1,2.8-25.4,5-37.1c0,0.1,0.1,0.2,0.1,0.3
					c1.9,5.2,3.9,10.8,6,16.3v0c5.6,14.7,11.3,28.3,13.6,29.2c5.3,1.9,104.8-25.3,105.4-29.2L562.3,1324.1z"/>
			</g>
			<g>
				<path class="st50" d="M343.6,1257.8l15.4,8.7l-6.6,6.7l17.5,94.7c3.6-22.2,5.2-43.3,6.4-56.2c4-43-38.9-91.6-41.6-94.5
					c-2.1,0.8-4.3,1.6-6.6,2.6L343.6,1257.8z"/>
			</g>
			<g>
				<path class="st50" d="M397.7,1220.7c0,0,5.8,18.8,12.5,65.8c2.6,18,6.2,48.7,9.7,79.7l3.6-88.7l-7.3-8l6.5-8.2l-14-35.7
					c-3.8-1.8-7.4-3.4-10.4-4.8L397.7,1220.7z"/>
			</g>
			<g>
				<path class="st51" d="M334.1,1217.3l12.8-7.8c0,0,0.4,7,32,25.3l-9,25.3L334.1,1217.3z"/>
			</g>
			<g>
				<path class="st51" d="M387.3,1213.1c0,0-0.5,7.6-8.4,21.8l17.5,22.9l1.3-37.1L387.3,1213.1z"/>
			</g>
			<g>
				<path class="st52" d="M378.8,1234.9c0,0-3.4,13.6-2.2,17.4c0,0,7.5,2.7,12.9-0.7C389.5,1251.6,385.7,1242.1,378.8,1234.9z"/>
			</g>
			<g>
				<g>
					<path class="st53" d="M396.4,1431.1c1.9-9.6,0.1-38.4,0-39.6l-1.6,0.1c0,0.3,1.9,29.8,0,39.2L396.4,1431.1z"/>
				</g>
			</g>
			<g>
				<path class="st54" d="M383.1,1426.6c0,0,15.3,1.8,20.4,3.1l-0.7,17.2l-20.1-2.1L383.1,1426.6z"/>
			</g>
			<g>
				<path class="st52" d="M386.4,1250.4c0,0,17.1,43.2,14.3,91.6c-2.9,50.2-7.6,68.4-7.6,68.4l-10.6,13.2l-4.7-16.3
					c0,0,14.2-64,5-126.2c-1.7-11.3-4.1-32.6-4.1-32.6L386.4,1250.4z"/>
			</g>
			<g>
				<path class="st16" d="M335,1454.5c0,0,3.7,7.3,7.3,8.6c3.7,1.2,9,7.2,9,7.2l-25.9,13.6c0,0-6.9-13.5-7.2-22
					C318,1453.3,335,1454.5,335,1454.5z"/>
			</g>
			<g>
				<path class="st46" d="M337.5,1455.2l1.7,3.4c0,0-16.4,12-20.9,12.8l-1.5-4.6L337.5,1455.2z"/>
			</g>
			<g>
				<path class="st49" d="M339.2,1455.4c0,0-12.3,10.2-22.7,14.9l-34.9-62.7l18.1-34.9C299.7,1372.5,338.4,1449.2,339.2,1455.4z"/>
			</g>
			<g>
				<path class="st45" d="M444,1333.5c1.9,5.2,3.9,10.8,6,16.3c0.5-6.3,0.6-12.2,0.5-17.7c-0.8-32.5-11.1-49.6-11.1-49.6
					c2.3,5.7,3.5,17.8,4,28.8c0.6,11.6,0.5,21.9,0.5,21.9s0,0,0,0L444,1333.5z"/>
			</g>
			<g>
				<path class="st45" d="M287.1,1433.8l27.9,33.7l-23.9-41.4C289.7,1428.7,288.4,1431.3,287.1,1433.8z"/>
			</g>
			<g>
				<path class="st55" d="M489.9,1391.5h64.5c4.4,0,8.3-3,9.3-7.3l28-115.6c1.5-6-3.1-11.8-9.3-11.8h-64.5c-4.4,0-8.3,3-9.3,7.3
					l-28,115.6C479.1,1385.7,483.7,1391.5,489.9,1391.5z"/>
			</g>
			<g>
				<g>
					<path class="st16" d="M568.8,1359.4c-3.2-2.9-9.2-4.6-14.5-8.1c-5.2-3.5-0.9-7.1-0.9-7.1c-5.4-1.8-4.8-4.3-4.1-5.9
						c0.9-2.3,6.8-1.6,6.8-1.6s-5.2-1.2-7.4-2.1c-2.2-1-1.4-4.7,1.9-5.9c3.3-1.2,16.8,2.1,16.8,2.1s-2.2-1.1-8.9-4.4
						c-6.7-3.3-8.1-6.4-4.2-7.9c2.7-1,8.1,1.1,18.4,8c7.8,5.2,7.1,5.9,7.1,5.9S572.5,1362.8,568.8,1359.4z"/>
				</g>
			</g>
		</g>
	</g>
</g>
</svg>
