<svg width="634" height="376" viewBox="0 0 634 376" fill="none" xmlns="http://www.w3.org/2000/svg">
<g clip-path="url(#clip0_6_2252)">
<path opacity="0.7" d="M608.748 141.951C602.508 122.214 592.318 103.951 578.798 88.2743C532.542 35.2646 464.452 8.41265 395.668 1.80335C222.513 -14.7695 176.6 91.5835 144.765 111.15C82.6185 149.363 -32.0787 200.173 12.9145 293.514C37.7424 344.991 110.666 349.572 159.916 349.887C303.59 350.789 322.925 329.627 399.366 347.119C475.807 364.612 553.257 359.959 593.263 299.213C621.744 255.969 624.35 190.191 608.748 141.951Z" fill="#F6F8FA"/>
<path d="M608.866 193.347V231.01H632.359" stroke="#212121" stroke-linecap="round" stroke-linejoin="round"/>
<path d="M553.357 115.081V99.9871H570.762V147.154H581.476V196.945H592.19V128.814H608.866V188.793" stroke="#212121" stroke-linecap="round" stroke-linejoin="round"/>
<path d="M31.1951 170.598V147.154H48.6007V178.595H66.0064V123.566H106.175V173.357H142.321V107.85H171.775V170.742H201.067V31.8563H218.644V89.5006H233.372V8.26837H269.518V178.595H317.722V65.9217H348.511V131.429H375.287V44.9577H422.147V139.291H446.253V84.2618H464.994V120.951H483.734V76.3992H494.448V31.8563H510.519V158.389H525.201V126.19H529.259V196.945H553.357V119.175" stroke="#212121" stroke-linecap="round" stroke-linejoin="round"/>
<path d="M8.43238 231.01H31.1951V174.691" stroke="#212121" stroke-linecap="round" stroke-linejoin="round"/>
<path d="M560.517 210.849H547.621V223.743H560.517V210.849Z" stroke="#212121" stroke-linecap="round" stroke-linejoin="round"/>
<path d="M581.702 210.849H568.805V223.743H581.702V210.849Z" stroke="#212121" stroke-linecap="round" stroke-linejoin="round"/>
<path d="M49.3854 210.849H36.4889V223.743H49.3854V210.849Z" stroke="#212121" stroke-linecap="round" stroke-linejoin="round"/>
<path d="M29.1208 239.387H16.2244V252.281H29.1208V239.387Z" stroke="#212121" stroke-linecap="round" stroke-linejoin="round"/>
<path d="M560.517 232.02H547.621V244.914H560.517V232.02Z" stroke="#212121" stroke-linecap="round" stroke-linejoin="round"/>
<path d="M529.575 306.12C531.92 307.148 537.646 307.022 537.692 307.022C537.737 307.022 536.456 303.271 536.348 303.045C535.094 300.421 531.117 296.075 527.879 296.517C527.345 296.604 526.834 296.802 526.381 297.1C525.928 297.397 525.543 297.786 525.25 298.242C524.958 298.698 524.764 299.21 524.683 299.746C524.601 300.281 524.633 300.828 524.777 301.35C525.282 303.586 527.582 305.245 529.575 306.12Z" fill="#0D4BA0"/>
<path d="M531.55 322.711C533.985 323.071 539.098 321.584 539.504 321.466C540.343 324.392 541.379 327.257 542.607 330.041C543.31 331.673 544.068 333.287 544.843 334.901C544.383 334.216 543.941 333.612 543.887 333.531C541.984 331.331 537.006 328.193 533.967 329.464C533.473 329.689 533.032 330.016 532.672 330.423C532.313 330.83 532.044 331.309 531.882 331.827C531.72 332.345 531.67 332.892 531.734 333.431C531.798 333.97 531.975 334.49 532.253 334.956C533.363 336.975 536.014 337.976 538.169 338.283C540.325 338.589 544.744 337.426 545.898 337.102C546.205 337.715 546.503 338.337 546.8 338.95C548.288 341.899 549.776 344.829 551.147 347.759C551.634 348.787 552.049 349.815 552.518 350.852C552.103 350.239 551.742 349.734 551.688 349.662C549.776 347.462 544.798 344.324 541.768 345.595C541.275 345.822 540.835 346.149 540.476 346.556C540.118 346.963 539.849 347.441 539.687 347.959C539.526 348.477 539.475 349.023 539.538 349.562C539.601 350.101 539.777 350.62 540.054 351.087C541.164 353.106 543.824 354.098 545.97 354.414C548.117 354.729 552.121 353.674 553.492 353.287C553.916 354.36 554.34 355.433 554.7 356.488C554.935 357.209 555.205 357.894 555.395 358.634C555.584 359.373 555.801 360.094 555.999 360.807C556.333 362.204 556.684 363.638 556.982 365.009C557.189 365.955 557.37 366.866 557.559 367.786C557.09 366.749 556.125 364.756 556.026 364.594C554.475 362.123 550.029 358.282 546.863 359.075C546.343 359.226 545.859 359.483 545.444 359.832C545.029 360.18 544.692 360.612 544.454 361.099C544.216 361.585 544.083 362.117 544.063 362.658C544.043 363.2 544.137 363.739 544.338 364.242C545.132 366.406 547.612 367.795 549.686 368.435C551.986 369.129 557.054 368.489 557.695 368.435C557.992 369.95 558.272 371.428 558.515 372.826C558.705 373.863 558.867 374.855 559.02 375.811H561.049C560.86 374.747 560.653 373.638 560.418 372.474C560.12 370.933 559.76 369.292 559.381 367.605C560.912 367.004 562.403 366.305 563.845 365.513C565.523 367.317 569.797 369.436 570.356 369.706C569.77 371.14 569.193 372.529 568.625 373.827L567.723 375.811H569.969C570.14 375.405 570.311 374.999 570.483 374.575C571.078 373.124 571.691 371.564 572.286 369.95C572.9 370.076 577.923 371.104 580.268 370.572C582.387 370.094 584.957 368.895 585.913 366.794C586.153 366.307 586.287 365.776 586.308 365.234C586.328 364.692 586.235 364.152 586.033 363.649C585.832 363.146 585.527 362.69 585.138 362.313C584.749 361.935 584.285 361.643 583.776 361.456C580.683 360.419 575.957 363.927 574.234 366.271C574.126 366.415 573.188 368.074 572.611 369.075C572.855 368.408 573.107 367.777 573.351 367.091C573.847 365.748 574.252 364.386 574.794 362.926C575.001 362.213 575.217 361.501 575.434 360.771C575.65 360.04 575.822 359.265 576.02 358.507C576.435 356.704 576.778 354.901 577.084 353.097C578.257 353.53 582.495 354.991 584.651 354.838C586.806 354.684 589.548 353.891 590.81 351.961C591.121 351.517 591.334 351.012 591.437 350.48C591.54 349.948 591.53 349.401 591.407 348.873C591.285 348.345 591.053 347.848 590.726 347.416C590.4 346.983 589.986 346.624 589.512 346.362C586.608 344.865 581.395 347.624 579.339 349.68C579.213 349.806 577.896 351.483 577.192 352.385C577.364 351.276 577.544 350.185 577.679 349.058C578.085 345.821 578.383 342.539 578.708 339.257C578.807 338.256 578.915 337.255 579.023 336.254C579.438 336.407 584.434 338.256 586.851 338.057C589.016 337.913 591.748 337.156 593.002 335.181C593.314 334.737 593.528 334.233 593.632 333.7C593.736 333.168 593.726 332.62 593.603 332.091C593.481 331.563 593.248 331.066 592.921 330.634C592.593 330.202 592.179 329.843 591.703 329.582C588.799 328.085 583.587 330.844 581.539 332.9C581.377 333.053 579.492 335.415 579.041 336.047C579.267 333.838 579.519 331.646 579.862 329.491C580.3 326.581 580.927 323.701 581.738 320.871C581.936 320.943 587.149 322.9 589.611 322.72C591.784 322.576 594.508 321.773 595.771 319.843C596.081 319.399 596.294 318.895 596.397 318.363C596.5 317.83 596.49 317.283 596.368 316.755C596.245 316.227 596.013 315.731 595.687 315.298C595.36 314.866 594.946 314.506 594.472 314.244C591.568 312.747 586.355 315.506 584.299 317.562C584.137 317.725 582.108 320.267 581.774 320.754C581.774 320.592 581.855 320.421 581.9 320.258C582.797 317.443 583.941 314.712 585.318 312.098C586.058 310.646 586.851 309.303 587.645 308.004C588.547 308.473 592.831 310.538 595.103 310.628C597.376 310.718 600.072 310.223 601.533 308.437C601.892 308.031 602.162 307.553 602.324 307.036C602.486 306.519 602.537 305.973 602.474 305.434C602.411 304.896 602.235 304.377 601.958 303.911C601.681 303.445 601.309 303.042 600.866 302.73C598.16 300.926 592.668 303.099 590.396 304.912C590.269 305.011 589.115 306.156 588.294 307.004C588.664 306.426 589.034 305.822 589.394 305.272C590.765 303.216 592.145 301.422 593.372 299.862C594.084 298.961 594.742 298.176 595.365 297.437C596.51 297.437 601.128 297.274 603.148 296.328C605.168 295.381 607.368 293.677 607.846 291.423C607.977 290.897 607.995 290.349 607.899 289.815C607.804 289.282 607.597 288.775 607.292 288.326C606.988 287.878 606.592 287.499 606.131 287.214C605.671 286.928 605.155 286.743 604.618 286.671C601.371 286.319 597.52 290.764 596.33 293.424C596.23 293.659 595.04 297.437 595.094 297.437H595.22C594.607 298.14 593.958 298.888 593.263 299.727C591.992 301.287 590.558 303.063 589.16 305.092C587.611 307.268 586.189 309.532 584.903 311.873C583.458 314.488 582.251 317.228 581.296 320.06C581.296 320.06 581.296 320.132 581.296 320.159C581.296 319.203 581.296 316.552 581.251 316.327C580.872 313.442 578.446 308.077 575.244 307.481C574.71 307.396 574.164 307.424 573.642 307.563C573.12 307.703 572.632 307.951 572.212 308.291C571.792 308.631 571.448 309.056 571.203 309.538C570.958 310.02 570.817 310.548 570.789 311.088C570.6 313.378 572.259 315.678 573.883 317.129C575.686 318.761 580.8 320.348 581.206 320.475C580.291 323.377 579.574 326.339 579.059 329.338C578.744 331.087 578.482 332.855 578.248 334.631C578.248 333.801 578.248 333.062 578.248 332.963C577.878 330.068 575.452 324.704 572.241 324.108C571.708 324.026 571.163 324.056 570.641 324.196C570.12 324.337 569.634 324.585 569.214 324.925C568.795 325.264 568.451 325.688 568.205 326.169C567.959 326.649 567.816 327.176 567.786 327.715C567.597 330.014 569.265 332.314 570.889 333.765C572.512 335.217 576.841 336.669 577.986 337.038C577.905 337.715 577.815 338.4 577.734 339.076C577.337 342.358 576.958 345.622 576.498 348.823C576.327 349.95 576.128 351.051 575.93 352.151C575.93 351.42 575.93 350.798 575.885 350.708C575.515 347.823 573.089 342.458 569.878 341.862C569.345 341.778 568.799 341.807 568.277 341.947C567.755 342.087 567.269 342.335 566.849 342.675C566.429 343.015 566.085 343.44 565.839 343.921C565.594 344.402 565.452 344.93 565.423 345.469C565.234 347.759 566.902 350.059 568.526 351.51C570.149 352.962 574.063 354.279 575.416 354.72C575.181 355.838 574.947 356.966 574.667 358.048C574.451 358.778 574.307 359.499 574.054 360.23C573.802 360.96 573.594 361.663 573.36 362.367C572.873 363.719 572.377 365.072 571.863 366.415C571.511 367.317 571.168 368.219 570.816 369.048C570.988 367.93 571.294 365.73 571.294 365.55C571.26 362.983 570.567 360.468 569.283 358.246C569.292 357.962 569.274 357.679 569.229 357.398C569.161 356.86 568.981 356.342 568.7 355.878C568.419 355.414 568.043 355.014 567.598 354.704C567.152 354.395 566.646 354.183 566.113 354.081C565.58 353.98 565.032 353.992 564.503 354.116C561.356 354.955 559.354 360.491 559.201 363.404C559.201 363.575 559.309 365.45 559.399 366.632C559.237 365.946 559.092 365.279 558.921 364.576C558.587 363.178 558.218 361.799 557.821 360.311C557.613 359.598 557.388 358.877 557.171 358.147C556.955 357.416 556.666 356.686 556.405 355.947C555.783 354.242 555.07 352.538 554.313 350.843C555.53 350.555 559.85 349.455 561.59 348.138C563.331 346.822 565.144 344.649 565.135 342.34C565.148 341.799 565.047 341.26 564.839 340.76C564.63 340.26 564.319 339.809 563.926 339.437C563.532 339.065 563.065 338.779 562.554 338.599C562.043 338.419 561.499 338.348 560.959 338.391C557.713 338.743 554.899 343.909 554.313 346.768C554.313 346.939 554.078 349.04 553.997 350.194C553.537 349.175 553.095 348.156 552.572 347.146C551.12 344.225 549.56 341.312 548.063 338.409L546.665 335.704C547.107 335.605 552.265 334.406 554.213 332.909C555.936 331.583 557.767 329.419 557.758 327.12C557.772 326.578 557.672 326.038 557.464 325.537C557.257 325.036 556.946 324.584 556.552 324.211C556.158 323.837 555.69 323.551 555.179 323.37C554.667 323.189 554.123 323.118 553.582 323.162C550.335 323.513 547.522 328.68 546.935 331.538C546.935 331.755 546.611 334.766 546.584 335.542C545.565 333.567 544.564 331.601 543.653 329.618C542.415 326.948 541.351 324.201 540.469 321.394C540.668 321.349 546.07 320.123 548.054 318.59C549.785 317.274 551.616 315.101 551.598 312.801C551.614 312.259 551.515 311.719 551.308 311.217C551.1 310.715 550.79 310.262 550.395 309.889C550.001 309.515 549.533 309.229 549.021 309.049C548.508 308.868 547.964 308.798 547.422 308.843C544.185 309.195 541.362 314.361 540.776 317.22C540.776 317.445 540.442 320.691 540.424 321.277C540.424 321.115 540.307 320.952 540.262 320.79C539.452 317.951 538.9 315.045 538.611 312.107C538.422 310.484 538.341 308.924 538.296 307.4C539.324 307.283 544.013 306.652 545.961 305.48C547.909 304.308 549.884 302.396 550.119 300.07C550.193 299.532 550.152 298.985 550.001 298.465C549.849 297.944 549.59 297.461 549.24 297.047C548.889 296.632 548.456 296.297 547.967 296.061C547.478 295.825 546.946 295.695 546.403 295.678C543.139 295.678 539.775 300.502 538.873 303.28C538.873 303.424 538.503 305.011 538.278 306.174C538.278 305.489 538.278 304.776 538.278 304.127C538.278 301.657 538.44 299.393 538.593 297.392C538.693 296.256 538.801 295.237 538.918 294.272C539.865 293.623 543.635 290.963 544.798 289.06C545.961 287.158 546.854 284.552 546.016 282.37C545.833 281.859 545.545 281.393 545.17 281.001C544.796 280.609 544.343 280.3 543.841 280.094C543.339 279.888 542.8 279.79 542.258 279.806C541.716 279.823 541.183 279.952 540.695 280.188C537.8 281.684 537.033 287.527 537.511 290.395C537.511 290.647 538.647 294.452 538.702 294.425L538.756 294.38C538.629 295.282 538.503 296.292 538.386 297.374C538.187 299.375 537.98 301.639 537.926 304.118C537.835 306.786 537.899 309.456 538.115 312.116C538.345 315.097 538.84 318.051 539.594 320.943C539.594 320.943 539.594 321.016 539.594 321.052C539.08 320.24 537.565 318.04 537.43 317.878C535.527 315.678 530.549 312.54 527.51 313.811C527.016 314.037 526.576 314.365 526.218 314.772C525.86 315.179 525.591 315.657 525.429 316.175C525.268 316.693 525.217 317.239 525.28 317.778C525.343 318.317 525.519 318.836 525.796 319.302C526.743 321.403 529.385 322.395 531.55 322.711Z" fill="#0D4BA0"/>
<path d="M587.528 307.382C587.528 307.382 588.565 303.577 588.601 303.325C589.007 300.439 588.087 294.623 585.147 293.208C584.652 292.985 584.116 292.869 583.574 292.867C583.031 292.865 582.494 292.977 581.998 293.197C581.502 293.416 581.058 293.738 580.694 294.141C580.331 294.543 580.057 295.018 579.889 295.534C579.104 297.698 580.096 300.358 581.287 302.18C582.676 304.326 587.519 307.382 587.528 307.382Z" fill="#0D4BA0"/>
<path d="M6.92622 306.12C9.27103 307.148 15.0429 307.022 15.0429 307.022C15.0429 307.022 13.8073 303.271 13.6991 303.045C12.4455 300.421 8.46838 296.075 5.23075 296.517C4.69613 296.604 4.18581 296.802 3.73313 297.099C3.28044 297.397 2.89557 297.786 2.60364 298.242C2.31171 298.698 2.11929 299.211 2.03896 299.746C1.95862 300.282 1.99216 300.828 2.1374 301.35C2.63342 303.586 4.93314 305.245 6.92622 306.12Z" fill="#0D4BA0"/>
<path d="M8.91029 322.711C11.3363 323.071 16.4497 321.584 16.8556 321.466C17.6993 324.381 18.7357 327.237 19.9579 330.014C20.6614 331.646 21.4189 333.26 22.2035 334.874C21.7346 334.189 21.3017 333.585 21.2476 333.504C19.3357 331.304 14.3575 328.166 11.3272 329.437C10.8341 329.663 10.394 329.991 10.0356 330.398C9.6772 330.805 9.40847 331.283 9.24688 331.801C9.08529 332.319 9.03445 332.865 9.09765 333.404C9.16085 333.943 9.33668 334.462 9.61373 334.929C10.723 336.948 13.3835 337.949 15.5299 338.256C17.6763 338.562 22.1043 337.399 23.2587 337.075C23.5653 337.688 23.863 338.31 24.1606 338.923C25.6396 341.871 27.1276 344.802 28.4985 347.732C28.9855 348.76 29.4003 349.788 29.8693 350.825C29.4544 350.212 29.1027 349.707 29.0396 349.635C27.1276 347.435 22.1494 344.297 19.1192 345.568C18.6261 345.795 18.186 346.122 17.8276 346.529C17.4692 346.936 17.2005 347.414 17.0389 347.932C16.8773 348.45 16.8264 348.996 16.8896 349.535C16.9528 350.074 17.1287 350.593 17.4057 351.06C18.515 353.079 21.1754 354.071 23.3309 354.387C25.4863 354.702 29.4725 353.647 30.8433 353.26C31.2671 354.333 31.691 355.406 32.0517 356.461C32.2862 357.182 32.5568 357.867 32.7462 358.607C32.9356 359.346 33.152 360.067 33.3504 360.78C33.6841 362.177 34.0448 363.611 34.3334 364.981C34.5408 365.928 34.7302 366.839 34.9106 367.759C34.4416 366.722 33.4767 364.729 33.3775 364.567C31.8263 362.096 27.3802 358.255 24.2147 359.048C23.6925 359.205 23.2094 359.47 22.7969 359.827C22.3845 360.183 22.052 360.622 21.8212 361.116C21.5904 361.61 21.4667 362.147 21.4579 362.692C21.4492 363.237 21.5558 363.777 21.7707 364.278C22.5553 366.442 25.0354 367.831 27.1186 368.471C29.4093 369.165 34.4777 368.525 35.118 368.471C35.4156 369.986 35.7042 371.465 35.9477 372.862C36.1281 373.899 36.2904 374.891 36.4438 375.847H38.4819C38.2835 374.783 38.0761 373.674 37.8416 372.511C37.544 370.969 37.1923 369.328 36.8135 367.641C38.3405 367.037 39.8284 366.339 41.2686 365.55C42.9461 367.353 47.2209 369.472 47.78 369.742C47.1938 371.176 46.6166 372.565 46.0484 373.863C45.7508 374.548 45.4532 375.197 45.1466 375.847H47.293C47.4644 375.441 47.6357 375.035 47.8071 374.611C48.4113 373.16 49.0155 371.6 49.6108 369.986C50.224 370.112 55.2473 371.14 57.5921 370.608C59.7115 370.13 62.2817 368.931 63.2377 366.83C63.4785 366.344 63.6139 365.812 63.6353 365.27C63.6567 364.728 63.5635 364.187 63.3619 363.684C63.1602 363.18 62.8545 362.724 62.4648 362.347C62.0751 361.969 61.6102 361.678 61.1003 361.492C58.007 360.455 53.2903 363.963 51.5587 366.307C51.4505 366.451 50.5126 368.11 49.9354 369.111C50.1879 368.444 50.4314 367.813 50.6749 367.127C51.171 365.784 51.5768 364.422 52.1179 362.962C52.3253 362.249 52.5418 361.537 52.7582 360.807C52.9746 360.076 53.146 359.301 53.3444 358.544C53.7683 356.74 54.102 354.937 54.4086 353.133C55.59 353.566 59.8197 355.027 61.9751 354.874C64.1305 354.72 66.8721 353.927 68.1347 351.997C68.4465 351.553 68.6612 351.049 68.7648 350.517C68.8684 349.984 68.8586 349.436 68.7361 348.908C68.6136 348.379 68.381 347.883 68.0536 347.45C67.7262 347.018 67.3114 346.659 66.8361 346.398C63.9321 344.901 58.7194 347.66 56.6632 349.716C56.537 349.842 55.2202 351.519 54.5168 352.421C54.6882 351.312 54.8685 350.221 55.0038 349.094C55.4096 345.857 55.7163 342.575 56.0319 339.293C56.1311 338.292 56.2393 337.291 56.3476 336.29C56.7624 336.443 61.7587 338.292 64.1756 338.093C66.3491 337.949 69.0727 337.192 70.3262 335.217C70.638 334.773 70.8527 334.269 70.9563 333.736C71.0599 333.204 71.0501 332.656 70.9276 332.127C70.8051 331.599 70.5725 331.102 70.2451 330.67C69.9177 330.238 69.5029 329.879 69.0276 329.618C66.1326 328.121 60.9109 330.88 58.8637 332.936C58.7104 333.089 56.8165 335.452 56.3656 336.083C56.6001 333.874 56.8526 331.682 57.1863 329.527C57.6278 326.616 58.2574 323.737 59.0711 320.907C59.2605 320.98 64.4372 322.936 66.9443 322.756C69.1087 322.612 71.8413 321.809 73.0949 319.88C73.4053 319.435 73.6188 318.931 73.7216 318.399C73.8245 317.867 73.8143 317.319 73.6919 316.791C73.5695 316.263 73.3374 315.767 73.0109 315.334C72.6843 314.902 72.2705 314.542 71.7962 314.28C68.8923 312.783 63.6796 315.542 61.6324 317.598C61.4701 317.761 59.4319 320.303 59.0982 320.79C59.1433 320.628 59.1794 320.457 59.2245 320.294C60.1216 317.479 61.2654 314.748 62.6425 312.134C63.382 310.682 64.1756 309.339 64.9783 308.04C65.8801 308.509 70.1639 310.574 72.4275 310.664C74.6912 310.755 77.3967 310.259 78.8667 308.473C79.2239 308.066 79.4914 307.588 79.652 307.07C79.8126 306.553 79.8626 306.007 79.7988 305.469C79.7351 304.931 79.5589 304.412 79.2818 303.947C79.0047 303.481 78.6329 303.078 78.1904 302.766C75.4848 300.962 69.9925 303.135 67.7199 304.948C67.5936 305.047 66.4483 306.192 65.6186 307.04C65.9883 306.463 66.3581 305.858 66.7278 305.308C68.0896 303.253 69.4334 301.458 70.696 299.898C71.4084 298.997 72.0668 298.212 72.6891 297.473C73.8344 297.473 78.4519 297.31 80.472 296.364C82.4922 295.417 84.6927 293.713 85.1707 291.459C85.3009 290.933 85.319 290.385 85.2235 289.852C85.1281 289.318 84.9214 288.811 84.6168 288.362C84.3122 287.914 83.9166 287.535 83.4558 287.25C82.9949 286.965 82.4792 286.78 81.942 286.707C78.6954 286.355 74.8445 290.8 73.6541 293.46C73.5548 293.695 72.3644 297.473 72.4275 297.473H72.4907C71.8774 298.176 71.2281 298.925 70.5337 299.763C69.262 301.323 67.8281 303.099 66.4302 305.128C64.9052 307.281 63.5021 309.518 62.2276 311.828C60.7822 314.443 59.5748 317.183 58.6202 320.015V320.114C58.6202 319.158 58.6202 316.507 58.5661 316.282C58.1873 313.396 55.7704 308.031 52.5598 307.436C52.0258 307.351 51.4798 307.379 50.9573 307.518C50.4348 307.658 49.9476 307.906 49.5273 308.246C49.107 308.586 48.7631 309.011 48.518 309.493C48.2729 309.975 48.132 310.503 48.1047 311.043C47.9153 313.333 49.5837 315.633 51.207 317.084C53.0107 318.716 58.1152 320.303 58.521 320.43C57.6101 323.333 56.8931 326.294 56.3746 329.293C56.059 331.042 55.8065 332.81 55.563 334.586C55.563 333.756 55.563 333.017 55.563 332.918C55.1842 330.023 52.7582 324.658 49.5476 324.063C49.014 323.981 48.4691 324.011 47.9478 324.151C47.4264 324.292 46.9403 324.54 46.5207 324.88C46.1011 325.219 45.7572 325.643 45.5112 326.124C45.2653 326.604 45.1226 327.131 45.0925 327.67C44.9121 329.969 46.5715 332.269 48.1949 333.72C49.8182 335.172 54.147 336.624 55.2924 336.993C55.2112 337.67 55.121 338.355 55.0399 339.031C54.6431 342.313 54.2733 345.577 53.8044 348.778C53.642 349.905 53.4346 351.005 53.2362 352.106C53.2362 351.375 53.2362 350.753 53.2362 350.663C52.8574 347.777 50.4314 342.412 47.2299 341.817C46.6959 341.732 46.1499 341.76 45.6274 341.899C45.1049 342.039 44.6177 342.287 44.1974 342.627C43.7771 342.967 43.4332 343.392 43.1881 343.874C42.943 344.356 42.8021 344.884 42.7747 345.424C42.5853 347.714 44.2447 350.014 45.8681 351.465C47.4914 352.917 51.4054 354.233 52.7672 354.675C52.5237 355.793 52.2892 356.92 52.0097 358.003C51.8022 358.733 51.6489 359.454 51.3964 360.185C51.1439 360.915 50.9365 361.618 50.702 362.322C50.215 363.674 49.719 365.027 49.2049 366.37C48.8622 367.272 48.5105 368.173 48.1588 369.003C48.3391 367.885 48.6368 365.685 48.6368 365.504C48.6022 362.938 47.9098 360.423 46.6256 358.201C46.6343 357.917 46.6162 357.633 46.5715 357.353C46.5049 356.815 46.3257 356.297 46.0456 355.833C45.7655 355.369 45.3908 354.969 44.9458 354.66C44.5008 354.35 43.9956 354.138 43.463 354.036C42.9305 353.935 42.3825 353.947 41.8549 354.071C38.6984 354.91 36.6963 360.446 36.552 363.358C36.552 363.53 36.6512 365.405 36.7414 366.586C36.579 365.901 36.4347 365.234 36.2634 364.531C35.9297 363.133 35.5599 361.753 35.1721 360.266C34.9557 359.553 34.7393 358.832 34.5138 358.102C34.2883 357.371 34.0088 356.641 33.7562 355.902C33.134 354.197 32.4125 352.493 31.6549 350.798C32.8814 350.51 37.2013 349.409 38.9329 348.093C40.6644 346.777 42.4952 344.604 42.4771 342.295C42.4902 341.754 42.3894 341.215 42.1811 340.715C41.9728 340.215 41.6618 339.764 41.2681 339.392C40.8745 339.019 40.407 338.734 39.896 338.554C39.3849 338.374 38.8417 338.303 38.3016 338.346C35.0549 338.698 32.2411 343.864 31.6549 346.722C31.6549 346.894 31.4205 348.995 31.3393 350.149C30.8793 349.13 30.4374 348.111 29.9144 347.101C28.4624 344.18 26.9112 341.267 25.4051 338.364C24.9271 337.462 24.5033 336.561 24.0072 335.659C24.4401 335.56 29.5987 334.36 31.5467 332.864C33.2692 331.538 35.1541 329.374 35.091 327.075C35.1054 326.533 35.0054 325.993 34.7977 325.492C34.59 324.991 34.2792 324.539 33.8854 324.165C33.4916 323.792 33.0237 323.506 32.512 323.325C32.0003 323.144 31.4564 323.073 30.9154 323.117C27.6688 323.468 24.855 328.635 24.2688 331.493C24.2237 331.71 23.9531 334.721 23.9171 335.497C22.898 333.522 21.8969 331.556 20.9861 329.573C19.748 326.903 18.6846 324.156 17.8025 321.349C18.01 321.304 23.403 320.078 25.3871 318.545C27.1186 317.229 28.9494 315.056 28.9313 312.756C28.947 312.214 28.8483 311.675 28.6416 311.174C28.435 310.673 28.125 310.221 27.7319 309.847C27.3388 309.474 26.8714 309.187 26.3602 309.006C25.8489 308.826 25.3053 308.755 24.7648 308.798C21.5181 309.15 18.7044 314.316 18.1092 317.174C18.0641 317.4 17.7755 320.646 17.7665 321.232C17.7123 321.07 17.6402 320.907 17.5951 320.745C16.7902 317.905 16.2379 314.999 15.9447 312.062C15.7643 310.439 15.6742 308.879 15.6291 307.355C16.6572 307.238 21.3558 306.607 23.2948 305.435C25.2338 304.262 27.2178 302.351 27.4523 300.025C27.5097 299.481 27.4513 298.932 27.281 298.413C27.1107 297.894 26.8323 297.417 26.4643 297.013C26.0962 296.609 25.6468 296.288 25.1455 296.07C24.6443 295.853 24.1027 295.744 23.5563 295.751C20.3006 295.751 16.9277 300.575 16.0349 303.352C15.9808 303.496 15.6561 305.083 15.4307 306.246C15.4307 305.561 15.4307 304.849 15.4307 304.199C15.4307 301.729 15.584 299.466 15.7463 297.464C15.8365 296.328 15.9537 295.309 16.062 294.344C16.9638 293.695 20.7876 291.035 21.942 289.132C23.0964 287.23 24.0072 284.624 23.1595 282.442C22.9768 281.931 22.6888 281.465 22.3142 281.073C21.9396 280.681 21.4867 280.372 20.985 280.166C20.4833 279.961 19.9439 279.863 19.4019 279.879C18.8598 279.895 18.3272 280.025 17.8386 280.26C14.9437 281.757 14.1771 287.599 14.6551 290.467C14.7002 290.719 15.7914 294.524 15.8455 294.497L15.8996 294.452C15.7734 295.354 15.6471 296.364 15.5299 297.446C15.3315 299.447 15.124 301.711 15.0699 304.19C14.9793 306.858 15.0426 309.528 15.2593 312.188C15.4842 315.162 15.9731 318.11 16.7203 320.998V321.106C16.2063 320.294 14.7002 318.094 14.5649 317.932C12.653 315.732 7.67476 312.594 4.64455 313.865C4.15138 314.091 3.71131 314.419 3.3529 314.826C2.99449 315.233 2.72577 315.711 2.56418 316.229C2.40259 316.747 2.35174 317.293 2.41494 317.832C2.47814 318.371 2.65398 318.89 2.93103 319.357C4.09442 321.403 6.75487 322.395 8.91029 322.711Z" fill="#0D4BA0"/>
<path d="M64.879 307.382C64.9332 307.382 65.9252 303.577 65.9522 303.325C66.3581 300.439 65.4382 294.623 62.4982 293.208C62.0036 292.985 61.4676 292.869 60.925 292.867C60.3825 292.865 59.8457 292.977 59.3496 293.197C58.8535 293.416 58.4092 293.738 58.0458 294.141C57.6824 294.543 57.4079 295.018 57.2404 295.534C56.4558 297.698 57.4568 300.358 58.6382 302.18C60.0271 304.326 64.879 307.382 64.879 307.382Z" fill="#0D4BA0"/>
<path d="M64.32 46.9324H517.454C519.956 46.9324 522.355 47.926 524.124 49.6948C525.894 51.4636 526.887 53.8625 526.887 56.3639V353.242H54.8866V56.3639C54.8866 53.8625 55.8805 51.4636 57.6496 49.6948C59.4187 47.926 61.8181 46.9324 64.32 46.9324Z" fill="#D8D8D8" stroke="#212121" stroke-miterlimit="10"/>
<path d="M507.48 67.7431H74.1772V323.982H507.48V67.7431Z" fill="#F6F8FA" stroke="#212121" stroke-linecap="round" stroke-linejoin="round"/>
<path d="M226.95 144.692H82.6455V166.233H226.95V144.692Z" fill="#F6F8FA" stroke="#212121" stroke-linecap="round" stroke-linejoin="round"/>
<path d="M226.95 253.624H82.6455V275.165H226.95V253.624Z" fill="#F6F8FA" stroke="#212121" stroke-linecap="round" stroke-linejoin="round"/>
<path d="M376.315 144.692H232.01V166.233H376.315V144.692Z" fill="#F6F8FA" stroke="#212121" stroke-linecap="round" stroke-linejoin="round"/>
<path d="M226.95 225.51H82.6455V247.051H226.95V225.51Z" fill="#F6F8FA" stroke="#212121" stroke-linecap="round" stroke-linejoin="round"/>
<path d="M376.315 225.51H232.01V247.051H376.315V225.51Z" fill="#F6F8FA" stroke="#212121" stroke-linecap="round" stroke-linejoin="round"/>
<path d="M375.692 171.626H82.6455V193.167H375.692V171.626Z" fill="#F6F8FA" stroke="#212121" stroke-linecap="round" stroke-linejoin="round"/>
<path d="M375.692 198.559H82.6455V220.1H375.692V198.559Z" fill="#F6F8FA" stroke="#212121" stroke-linecap="round" stroke-linejoin="round"/>
<path d="M86.8391 115.744H86.3391V116.244V125.072V125.572H86.8391H88.1829C88.7425 125.572 89.2324 125.393 89.5673 124.982C89.8864 124.59 89.9996 124.064 89.9996 123.503V117.804C89.9996 117.239 89.8801 116.714 89.5537 116.325C89.2136 115.919 88.7215 115.744 88.1649 115.744H86.8391ZM88.1829 115.653C88.9397 115.653 89.4144 115.879 89.7097 116.219C90.0156 116.57 90.1991 117.124 90.1991 117.913V123.53C90.1991 124.303 90.0164 124.841 89.7132 125.183C89.4193 125.513 88.9437 125.735 88.1829 125.735H86.0856V115.653H88.1829Z" fill="#424242" stroke="#212121"/>
<path d="M93.0866 120.595L95.2855 120.565V120.668H93.0799H92.5799V121.168V125.108V125.608H93.0799H95.9078V125.735H92.3534V115.653H95.9078V115.817H93.0799H92.5799V116.317V120.095V120.601L93.0866 120.595Z" fill="#424242" stroke="#212121"/>
<path d="M98.7796 125.572H101.409V125.735H98.0441V115.653H98.2796V125.072V125.572H98.7796Z" fill="#424242" stroke="#212121"/>
<path d="M103.61 115.653V125.735H103.374V115.653H103.61Z" fill="#424242" stroke="#212121"/>
<path d="M107.573 125.735L105.677 115.658L105.886 115.656L107.613 124.884H108.596L110.324 115.653H110.442L108.547 125.735H107.573Z" fill="#424242" stroke="#212121"/>
<path d="M113.225 120.595L115.424 120.565V120.668H113.218H112.718V121.168V125.108V125.608H113.218H116.037V125.735H112.483V115.653H116.037V115.817H113.218H112.718V116.317V120.095V120.601L113.225 120.595Z" fill="#424242" stroke="#212121"/>
<path d="M121.573 120.137C121.797 119.797 121.889 119.361 121.889 118.859V117.795C121.889 117.256 121.794 116.739 121.483 116.352C121.153 115.943 120.664 115.78 120.108 115.78H118.909H118.409V116.28V120.374V120.874H118.909H119.6L119.543 120.893L119.92 121.004C119.872 121.002 119.823 121.001 119.775 121.001H118.873H118.373V121.501V125.735H118.137V115.653H120.144C120.933 115.653 121.391 115.856 121.661 116.148C121.939 116.447 122.106 116.934 122.106 117.687V118.589C122.106 119.145 122.009 119.541 121.846 119.817C121.774 119.938 121.685 120.045 121.573 120.137ZM121.307 121.488C121.262 121.446 121.215 121.408 121.166 121.372C121.514 121.49 121.731 121.683 121.874 121.935C122.036 122.222 122.125 122.628 122.125 123.178V124.881C122.103 125.164 122.119 125.449 122.172 125.726H121.954C121.886 125.466 121.863 125.196 121.887 124.926L121.889 124.904V124.882V123.142C121.889 122.452 121.727 121.877 121.307 121.488Z" fill="#424242" stroke="#212121"/>
<path d="M126.209 122.259V122.178L126.184 122.102L124.056 115.653H124.288L125.9 120.715L126.374 122.204L126.852 120.717L128.481 115.653H128.588L126.452 122.101L126.426 122.178V122.259V125.735H126.209V122.259Z" fill="#424242" stroke="#212121"/>
<path d="M133.872 123.499L133.452 123.497L133.378 123.911L133.055 125.735H132.906L134.834 115.662H135.811L137.73 125.735H137.493L137.139 123.912L137.061 123.509L136.65 123.508L133.872 123.499ZM133.533 122.839L133.416 123.435H134.024H136.495H137.099L136.986 122.841L135.769 116.457L134.787 116.455L133.533 122.839Z" fill="#424242" stroke="#212121"/>
<path d="M140.544 115.744H140.044V116.244V125.072V125.572H140.544H141.888C142.448 125.572 142.937 125.393 143.272 124.982C143.591 124.59 143.705 124.064 143.705 123.503V117.804C143.705 117.241 143.588 116.717 143.265 116.326C142.927 115.919 142.436 115.744 141.879 115.744H140.544ZM141.888 115.653C142.645 115.653 143.12 115.879 143.415 116.219C143.721 116.57 143.904 117.124 143.904 117.913V123.53C143.904 124.303 143.722 124.841 143.418 125.183C143.124 125.513 142.649 125.735 141.888 125.735H139.791V115.653H141.888Z" fill="#424242" stroke="#212121"/>
<path d="M146.803 115.744H146.303V116.244V125.072V125.572H146.803H148.147C148.707 125.572 149.196 125.393 149.528 124.98C149.844 124.587 149.955 124.062 149.955 123.503V117.804C149.955 117.241 149.838 116.717 149.515 116.326C149.177 115.919 148.686 115.744 148.129 115.744H146.803ZM148.147 115.653C148.909 115.653 149.383 115.88 149.677 116.218C149.981 116.569 150.163 117.123 150.163 117.913V123.53C150.163 124.304 149.982 124.842 149.68 125.183C149.388 125.513 148.913 125.735 148.147 125.735H146.059V115.653H148.147Z" fill="#424242" stroke="#212121"/>
<path d="M155.717 120.137C155.941 119.797 156.033 119.361 156.033 118.859V117.795C156.033 117.256 155.938 116.739 155.627 116.352C155.297 115.943 154.808 115.78 154.252 115.78H153.053H152.553V116.28V120.374V120.874H153.053H153.744L153.687 120.893L154.064 121.004C154.016 121.002 153.967 121.001 153.919 121.001H153.017H152.517V121.501V125.735H152.281V115.653H154.288C155.077 115.653 155.535 115.856 155.805 116.148C156.083 116.447 156.25 116.934 156.25 117.687V118.589C156.25 119.145 156.153 119.541 155.99 119.817C155.918 119.938 155.829 120.045 155.717 120.137ZM155.451 121.488C155.406 121.446 155.359 121.408 155.31 121.372C155.658 121.49 155.875 121.683 156.018 121.935C156.18 122.222 156.269 122.628 156.269 123.178V124.881C156.247 125.164 156.263 125.449 156.316 125.726H156.098C156.03 125.466 156.007 125.196 156.031 124.926L156.033 124.904V124.882V123.142C156.033 122.452 155.871 121.877 155.451 121.488Z" fill="#424242" stroke="#212121"/>
<path d="M159.291 120.595L161.49 120.565V120.668H159.285H158.785V121.168V125.108V125.608H159.285H162.103V125.735H158.549V115.653H162.103V115.817H159.285H158.785V116.317V120.095V120.601L159.291 120.595Z" fill="#424242" stroke="#212121"/>
<path d="M167.544 116.13C167.825 116.459 168.005 116.953 168.034 117.62H167.863C167.847 117.122 167.738 116.653 167.463 116.292C167.143 115.871 166.663 115.681 166.103 115.681C165.543 115.681 165.063 115.871 164.74 116.286C164.436 116.678 164.331 117.197 164.331 117.741C164.331 119.163 165.35 119.981 166.191 120.656C166.255 120.707 166.317 120.757 166.378 120.806C167.304 121.558 168.056 122.262 168.056 123.575C168.056 124.341 167.87 124.901 167.56 125.263C167.26 125.612 166.787 125.843 166.058 125.843C165.328 125.843 164.858 125.612 164.561 125.264C164.253 124.902 164.068 124.342 164.068 123.575V123.444H164.223V123.638C164.223 124.196 164.337 124.722 164.648 125.117C164.976 125.532 165.46 125.725 166.021 125.725C166.583 125.725 167.067 125.532 167.395 125.117C167.706 124.722 167.82 124.196 167.82 123.638C167.82 122.231 166.808 121.414 165.972 120.74C165.908 120.688 165.845 120.637 165.783 120.587C164.862 119.834 164.114 119.127 164.114 117.822C164.114 117.039 164.297 116.479 164.599 116.122C164.89 115.779 165.35 115.554 166.067 115.554C166.781 115.554 167.247 115.782 167.544 116.13Z" fill="#424242" stroke="#212121"/>
<path d="M173.431 116.128C173.709 116.456 173.885 116.951 173.914 117.62H173.743C173.727 117.122 173.618 116.653 173.343 116.292C173.023 115.871 172.543 115.681 171.983 115.681C171.423 115.681 170.944 115.871 170.623 116.288C170.322 116.68 170.22 117.199 170.22 117.741C170.22 119.163 171.237 119.98 172.076 120.655C172.139 120.706 172.202 120.756 172.262 120.806C173.185 121.557 173.936 122.261 173.936 123.575C173.936 124.341 173.75 124.901 173.44 125.263C173.14 125.612 172.667 125.843 171.938 125.843C171.208 125.843 170.738 125.612 170.441 125.264C170.133 124.902 169.949 124.342 169.949 123.575V123.444H170.103V123.638C170.103 124.196 170.217 124.722 170.528 125.117C170.856 125.532 171.34 125.725 171.902 125.725C172.463 125.725 172.947 125.532 173.275 125.117C173.586 124.722 173.7 124.196 173.7 123.638C173.7 122.231 172.691 121.415 171.857 120.74C171.793 120.688 171.73 120.637 171.668 120.587C170.75 119.834 170.003 119.128 170.003 117.822C170.003 117.038 170.184 116.478 170.485 116.122C170.775 115.78 171.234 115.554 171.956 115.554C172.675 115.554 173.138 115.783 173.431 116.128Z" fill="#424242" stroke="#212121"/>
<path d="M91.2672 155.089V155.99H89.229V159.823H88.237V150.959H91.7632V151.861H89.229V155.089H91.2672Z" fill="#424242"/>
<path d="M93.5309 150.995V159.859H92.5388V150.995H93.5309Z" fill="#424242"/>
<path d="M96.4979 150.995C97.8868 150.995 98.473 151.707 98.473 153.024V153.745C98.5277 154.127 98.4478 154.516 98.247 154.845C98.0462 155.174 97.7371 155.423 97.3727 155.549C98.1844 155.792 98.482 156.45 98.482 157.397V158.777C98.4554 159.141 98.5173 159.506 98.6624 159.841H97.6613C97.5213 159.498 97.4656 159.127 97.499 158.759V157.37C97.499 156.369 97.03 156.054 96.2093 156.054H95.5149V159.841H94.5229V150.977L96.4979 150.995ZM96.2454 155.17C97.03 155.17 97.499 154.917 97.499 153.962V153.114C97.499 152.312 97.2104 151.897 96.4709 151.897H95.5149V155.17H96.2454Z" fill="#424242"/>
<path d="M103.361 153.123V153.367H102.459V153.078C102.459 152.275 102.153 151.807 101.449 151.807C100.746 151.807 100.439 152.275 100.439 153.06C100.439 155.044 103.406 155.242 103.406 157.731C103.406 159.074 102.766 159.949 101.413 159.949C100.06 159.949 99.4199 159.047 99.4199 157.731V157.226H100.322V157.794C100.322 158.587 100.646 159.056 101.359 159.056C102.071 159.056 102.396 158.587 102.396 157.794C102.396 155.819 99.438 155.63 99.438 153.132C99.438 151.771 100.069 150.923 101.395 150.923C102.721 150.923 103.361 151.78 103.361 153.123Z" fill="#424242"/>
<path d="M105.516 159.859V151.897H103.884V150.995H108.132V151.897H106.49V159.859H105.516Z" fill="#424242"/>
<path d="M111.622 159.859H110.72V150.995H111.974L114.021 157.397V150.995H114.923V159.859H113.895L111.631 152.69L111.622 159.859Z" fill="#424242"/>
<path d="M116.925 158.073L116.582 159.877H115.68L117.376 151.013H118.81L120.505 159.877H119.513L119.17 158.073H116.925ZM117.051 157.226H119.044L118.043 152.113L117.051 157.226Z" fill="#424242"/>
<path d="M124.527 159.841H123.553L122.083 152.798V159.859H121.182V150.995H122.652L124.113 158.073L125.519 150.995H126.899V159.859H125.997V152.735L124.527 159.841Z" fill="#424242"/>
<path d="M131.03 154.917V155.819H128.865V158.966H131.571V159.868H127.963V151.004H131.571V151.906H128.865V154.926L131.03 154.917Z" fill="#424242"/>
<path d="M237.764 159.859V150.995H238.747V158.957H241.281V159.859H237.764Z" fill="#424242"/>
<path d="M243.021 158.073L242.679 159.877H241.777L243.472 151.013H244.906L246.602 159.877H245.61L245.276 158.073H243.021ZM243.148 157.226H245.123L244.122 152.113L243.148 157.226Z" fill="#424242"/>
<path d="M251.192 153.123V153.367H250.29V153.078C250.29 152.275 249.984 151.807 249.271 151.807C248.559 151.807 248.261 152.275 248.261 153.06C248.261 155.044 251.237 155.242 251.237 157.731C251.237 159.074 250.588 159.949 249.235 159.949C247.882 159.949 247.251 159.047 247.251 157.731V157.226H248.153V157.794C248.153 158.587 248.487 159.056 249.19 159.056C249.893 159.056 250.227 158.587 250.227 157.794C250.227 155.819 247.269 155.63 247.269 153.132C247.269 151.771 247.9 150.923 249.235 150.923C250.57 150.923 251.192 151.78 251.192 153.123Z" fill="#424242"/>
<path d="M253.348 159.859V151.897H251.715V150.995H255.954V151.897H254.322V159.859H253.348Z" fill="#424242"/>
<path d="M259.453 159.859H258.551V150.995H259.805L261.861 157.397V150.995H262.763V159.859H261.744L259.471 152.69L259.453 159.859Z" fill="#424242"/>
<path d="M264.756 158.073L264.413 159.877H263.511L265.207 151.013H266.641L268.336 159.877H267.353L267.011 158.073H264.756ZM264.882 157.226H266.857L265.856 152.113L264.882 157.226Z" fill="#424242"/>
<path d="M272.359 159.841H271.457L269.987 152.798V159.859H269.13V150.995H270.51L271.962 158.073L273.369 150.995H274.748V159.859H273.847V152.735L272.359 159.841Z" fill="#424242"/>
<path d="M278.87 154.917V155.819H276.705V158.966H279.357V159.868H275.749V151.004H279.357V151.906H276.705V154.926L278.87 154.917Z" fill="#424242"/>
<path d="M89.4906 184.339L89.1479 186.143H88.246L89.9505 177.288H91.3754L93.0709 186.143H92.0789L91.7362 184.339H89.4906ZM89.6168 183.492H91.5919L90.5908 178.379L89.6168 183.492Z" fill="#424242"/>
<path d="M95.9117 177.27C97.2916 177.27 97.9229 178.109 97.9229 179.47V183.978C97.9229 185.331 97.2916 186.161 95.9117 186.161H93.8375V177.27H95.9117ZM95.9117 185.232C96.6242 185.232 96.9669 184.79 96.9669 183.978V179.47C96.9669 178.659 96.6242 178.217 95.9027 178.217H94.8385V185.277L95.9117 185.232Z" fill="#424242"/>
<path d="M100.917 177.27C102.297 177.27 102.928 178.109 102.928 179.47V183.978C102.928 185.331 102.297 186.161 100.917 186.161H98.8427V177.27H100.917ZM100.917 185.232C101.62 185.232 101.963 184.79 101.963 183.978V179.47C101.963 178.659 101.62 178.217 100.899 178.217H99.8348V185.277L100.917 185.232Z" fill="#424242"/>
<path d="M105.832 177.27C107.221 177.27 107.798 177.982 107.798 179.299V180.02C107.798 180.994 107.464 181.598 106.698 181.823C107.51 182.058 107.816 182.725 107.816 183.627V185.006C107.785 185.37 107.844 185.735 107.987 186.07H106.995C106.851 185.732 106.792 185.364 106.824 184.997V183.609C106.824 182.608 106.355 182.292 105.534 182.292H104.84V186.07H103.857V177.27H105.832ZM105.571 181.445C106.355 181.445 106.824 181.192 106.824 180.228V179.38C106.824 178.586 106.536 178.172 105.805 178.172H104.84V181.445H105.571Z" fill="#424242"/>
<path d="M111.992 181.237V182.139H109.827V185.295H112.488V186.197H108.88V177.27H112.488V178.172H109.827V181.237H111.992Z" fill="#424242"/>
<path d="M117.24 179.434V179.668H116.339V179.38C116.339 178.586 116.032 178.118 115.32 178.118C114.607 178.118 114.309 178.586 114.309 179.371C114.309 181.355 117.286 181.544 117.286 184.042C117.286 185.376 116.636 186.251 115.283 186.251C113.931 186.251 113.299 185.349 113.299 184.042V183.528H114.201V184.087C114.201 184.889 114.535 185.358 115.238 185.358C115.942 185.358 116.285 184.889 116.285 184.087C116.285 182.112 113.317 181.923 113.317 179.434C113.317 178.063 113.949 177.216 115.283 177.216C116.618 177.216 117.24 178.054 117.24 179.434Z" fill="#424242"/>
<path d="M121.93 179.434V179.668H121.028V179.38C121.028 178.586 120.722 178.118 120.009 178.118C119.297 178.118 118.999 178.586 118.999 179.371C118.999 181.355 121.975 181.544 121.975 184.042C121.975 185.376 121.326 186.251 119.973 186.251C118.62 186.251 117.989 185.349 117.989 184.042V183.528H118.891V184.087C118.891 184.889 119.225 185.358 119.928 185.358C120.631 185.358 120.965 184.889 120.965 184.087C120.965 182.112 118.007 181.923 118.007 179.434C118.007 178.063 118.638 177.216 119.973 177.216C121.308 177.216 121.93 178.054 121.93 179.434Z" fill="#424242"/>
<path d="M124.771 186.124V177.27H125.754V185.232H128.288V186.133L124.771 186.124Z" fill="#424242"/>
<path d="M130.02 177.27V186.124H129.028V177.27H130.02Z" fill="#424242"/>
<path d="M131.905 186.124H131.003V177.27H132.247L134.303 183.672V177.27H135.205V186.124H134.177L131.914 178.965L131.905 186.124Z" fill="#424242"/>
<path d="M139.354 181.237V182.139H137.189V185.295H139.85V186.197H136.242V177.27H139.85V178.172H137.189V181.237H139.354Z" fill="#424242"/>
<path d="M144.53 178.875C144.161 179.105 143.739 179.235 143.304 179.254V178.451C143.654 178.458 143.995 178.344 144.271 178.129C144.547 177.914 144.74 177.611 144.819 177.27H145.504V186.124H144.53V178.875Z" fill="#424242"/>
<path d="M89.4906 212.796L89.1479 214.6H88.246L89.9505 205.745H91.3754L93.0709 214.6H92.0789L91.7362 212.796H89.4906ZM89.6168 211.949H91.5919L90.5908 206.836L89.6168 211.949Z" fill="#424242"/>
<path d="M95.9117 205.745C97.2916 205.745 97.9229 206.575 97.9229 207.945V212.408C97.9229 213.761 97.2916 214.6 95.9117 214.6H93.8375V205.745H95.9117ZM95.9117 213.698C96.6242 213.698 96.9669 213.256 96.9669 212.444V207.891C96.9669 207.079 96.6242 206.638 95.9027 206.638H94.8385V213.698H95.9117Z" fill="#424242"/>
<path d="M100.917 205.745C102.297 205.745 102.928 206.575 102.928 207.945V212.408C102.928 213.761 102.297 214.6 100.917 214.6H98.8427V205.745H100.917ZM100.917 213.698C101.62 213.698 101.963 213.256 101.963 212.444V207.891C101.963 207.079 101.62 206.638 100.899 206.638H99.8348V213.698H100.917Z" fill="#424242"/>
<path d="M105.832 205.745C107.221 205.745 107.798 206.448 107.798 207.765V208.486C107.798 209.46 107.464 210.073 106.698 210.289C107.51 210.533 107.816 211.191 107.816 212.138V213.517C107.787 213.881 107.846 214.246 107.987 214.581H106.995C106.851 214.243 106.792 213.875 106.824 213.508V212.111C106.824 211.11 106.355 210.794 105.534 210.794H104.84V214.6H103.857V205.745H105.832ZM105.571 209.92C106.355 209.92 106.824 209.667 106.824 208.703V207.855C106.824 207.052 106.536 206.638 105.805 206.638H104.84V209.92H105.571Z" fill="#424242"/>
<path d="M111.992 209.667V210.569H109.827V213.698H112.488V214.6H108.88V205.745H112.488V206.647H109.827V209.676L111.992 209.667Z" fill="#424242"/>
<path d="M117.24 207.864V208.107H116.339V207.819C116.339 207.016 116.032 206.548 115.32 206.548C114.607 206.548 114.309 207.016 114.309 207.801C114.309 209.794 117.286 209.983 117.286 212.472C117.286 213.815 116.636 214.69 115.283 214.69C113.931 214.69 113.299 213.788 113.299 212.472V211.967H114.201V212.526C114.201 213.319 114.535 213.788 115.238 213.788C115.942 213.788 116.285 213.319 116.285 212.526C116.285 210.551 113.317 210.362 113.317 207.864C113.317 206.502 113.949 205.655 115.283 205.655C116.618 205.655 117.24 206.529 117.24 207.864Z" fill="#424242"/>
<path d="M121.93 207.864V208.107H121.028V207.819C121.028 207.016 120.722 206.548 120.009 206.548C119.297 206.548 118.999 207.016 118.999 207.801C118.999 209.794 121.975 209.983 121.975 212.472C121.975 213.815 121.326 214.69 119.973 214.69C118.62 214.69 117.989 213.788 117.989 212.472V211.967H118.891V212.526C118.891 213.319 119.225 213.788 119.928 213.788C120.631 213.788 120.965 213.319 120.965 212.526C120.965 210.551 118.007 210.362 118.007 207.864C118.007 206.502 118.638 205.655 119.973 205.655C121.308 205.655 121.93 206.529 121.93 207.864Z" fill="#424242"/>
<path d="M124.771 214.6V205.745H125.754V213.698H128.288V214.6H124.771Z" fill="#424242"/>
<path d="M130.02 205.745V214.6H129.028V205.745H130.02Z" fill="#424242"/>
<path d="M131.905 214.6H131.003V205.745H132.247L134.303 212.147V205.745H135.205V214.6H134.177L131.914 207.44L131.905 214.6Z" fill="#424242"/>
<path d="M139.354 209.667V210.569H137.189V213.698H139.85V214.6H136.242V205.745H139.85V206.647H137.189V209.676L139.354 209.667Z" fill="#424242"/>
<path d="M146.704 207.891C146.704 210.596 143.71 211.498 143.692 213.563V213.698H146.605V214.6H142.718V213.842C142.718 210.984 145.721 210.425 145.721 207.927C145.721 207.025 145.414 206.539 144.684 206.539C143.953 206.539 143.647 207.052 143.647 207.846V208.63H142.745V207.909C142.745 206.548 143.367 205.655 144.729 205.655C146.091 205.655 146.704 206.539 146.704 207.891Z" fill="#424242"/>
<path d="M89.8784 240.748V232.795H88.237V231.894H92.4847V232.795H90.8524V240.748H89.8784Z" fill="#424242"/>
<path d="M93.0709 234.04C93.0709 232.687 93.7473 231.813 95.1001 231.813C96.4528 231.813 97.1383 232.714 97.1383 234.04V238.62C97.1802 238.906 97.158 239.198 97.0732 239.474C96.9884 239.75 96.8432 240.004 96.6481 240.218C96.4529 240.431 96.2128 240.598 95.945 240.707C95.6773 240.816 95.3887 240.864 95.1001 240.847C93.7473 240.847 93.0709 239.946 93.0709 238.62V234.04ZM94.0449 238.674C94.0449 239.486 94.3876 239.955 95.1001 239.955C95.8125 239.955 96.1462 239.486 96.1462 238.674V233.995C96.1462 233.192 95.8215 232.714 95.1001 232.714C94.3786 232.714 94.0449 233.192 94.0449 233.995V238.674Z" fill="#424242"/>
<path d="M100.43 240.748H99.0682L97.8597 231.894H98.8157L99.8528 239.432L100.845 231.903H101.819L102.793 239.45L103.794 231.894H104.615L103.451 240.748H102.144L101.296 234.743L100.43 240.748Z" fill="#424242"/>
<path d="M106.319 240.748H105.417V231.894H106.671L108.718 238.296V231.894H109.62V240.748H108.583L106.319 233.589V240.748Z" fill="#424242"/>
<path d="M114.67 231.903L111.18 240.748H110.278L113.777 231.894L114.67 231.903Z" fill="#424242"/>
<path d="M119.288 234.04V234.842H118.386V233.995C118.386 233.192 118.07 232.714 117.349 232.714C116.627 232.714 116.312 233.192 116.312 233.995V238.674C116.312 239.468 116.645 239.955 117.349 239.955C118.052 239.955 118.386 239.468 118.386 238.674V237.52H119.288V238.62C119.288 239.964 118.656 240.847 117.295 240.847C115.933 240.847 115.302 239.946 115.302 238.62V234.04C115.302 232.696 115.933 231.813 117.295 231.813C118.656 231.813 119.288 232.696 119.288 234.04Z" fill="#424242"/>
<path d="M121.173 231.903V240.748H120.19V231.894L121.173 231.903Z" fill="#424242"/>
<path d="M123.463 240.748V232.795H121.831V231.894H126.07V232.795H124.455V240.748H123.463Z" fill="#424242"/>
<path d="M128.306 237.583L126.439 231.903H127.458L128.838 236.258L130.236 231.903H131.138L129.244 237.583V240.748H128.27L128.306 237.583Z" fill="#424242"/>
<path d="M90.185 260.892C91.5829 260.892 92.1691 261.712 92.1691 263.056V264.12C92.1691 265.526 91.5197 266.257 90.1128 266.257H89.211V269.755H88.219V260.892H90.185ZM90.1128 265.4C90.8433 265.4 91.1951 265.057 91.1951 264.21V263.038C91.1951 262.226 90.9065 261.82 90.185 261.82H89.2381V265.427L90.1128 265.4Z" fill="#424242"/>
<path d="M93.9187 265.77V269.755H92.9356V260.892H93.9187V264.877H96.1011V260.892H97.0841V269.755H96.1011V265.77H93.9187Z" fill="#424242"/>
<path d="M98.0221 263.029C98.0221 261.676 98.6894 260.802 100.042 260.802C101.395 260.802 102.08 261.703 102.08 263.029V267.609C102.08 268.953 101.413 269.836 100.042 269.836C98.6714 269.836 98.0221 268.935 98.0221 267.609V263.029ZM98.9961 267.663C98.9961 268.475 99.3388 268.944 100.042 268.944C100.746 268.944 101.097 268.475 101.097 267.663V262.984C101.097 262.181 100.764 261.703 100.042 261.703C99.3207 261.703 98.9961 262.181 98.9961 262.984V267.663Z" fill="#424242"/>
<path d="M103.893 269.755H102.991V260.892H104.245L106.292 267.294V260.892H107.194V269.755H106.166L103.902 262.587L103.893 269.755Z" fill="#424242"/>
<path d="M111.342 264.814V265.716H109.178V268.872H111.829V269.773H108.222V260.91H111.829V261.811H109.169V264.832L111.342 264.814Z" fill="#424242"/>
<path d="M115.581 269.755H114.679V260.892H115.933L117.98 267.294V260.892H118.882V269.755H117.854L115.59 262.587L115.581 269.755Z" fill="#424242"/>
<path d="M120.848 267.663C120.848 268.457 121.164 268.944 121.885 268.944C122.606 268.944 122.913 268.457 122.913 267.663V260.892H123.815V267.609C123.815 268.953 123.193 269.854 121.831 269.854C120.469 269.854 119.856 268.953 119.856 267.609V260.892H120.848V267.663Z" fill="#424242"/>
<path d="M128.063 269.737H127.161L125.691 262.695V269.755H124.789V260.892H126.16L127.621 267.97L129.028 260.892H130.407V269.755H129.506V262.623L128.063 269.737Z" fill="#424242"/>
<path d="M133.384 260.892C134.763 260.892 135.305 261.55 135.305 262.857V263.29C135.305 264.192 135.043 264.805 134.267 265.048C135.169 265.292 135.458 265.95 135.458 266.951V267.69C135.504 267.969 135.484 268.254 135.4 268.524C135.316 268.793 135.17 269.039 134.973 269.241C134.777 269.444 134.536 269.598 134.269 269.69C134.002 269.782 133.717 269.811 133.438 269.773H131.4V260.91L133.384 260.892ZM133.14 264.652C133.925 264.652 134.331 264.399 134.331 263.479V262.957C134.331 262.172 134.069 261.793 133.357 261.793H132.383V264.652H133.14ZM133.438 268.854C134.159 268.854 134.484 268.475 134.484 267.654V266.897C134.484 265.905 134.096 265.58 133.248 265.58H132.346V268.881L133.438 268.854Z" fill="#424242"/>
<path d="M139.507 264.814V265.716H137.343V268.872H140.048V269.773H136.441V260.91H140.048V261.811H137.343V264.832L139.507 264.814Z" fill="#424242"/>
<path d="M142.889 260.892C144.278 260.892 144.855 261.604 144.855 262.92V263.642C144.855 264.616 144.521 265.22 143.755 265.445C144.566 265.68 144.873 266.347 144.873 267.249V268.7C144.844 269.063 144.903 269.429 145.044 269.764H144.052C143.909 269.422 143.851 269.051 143.881 268.682V267.294C143.881 266.293 143.412 265.977 142.591 265.977H141.897V269.764H140.914V260.901L142.889 260.892ZM142.628 265.066C143.412 265.066 143.881 264.814 143.881 263.858V263.011C143.881 262.208 143.592 261.793 142.862 261.793H141.897V265.094L142.628 265.066Z" fill="#424242"/>
<path d="M239.694 231.903C241.091 231.903 241.687 232.723 241.687 234.067V235.131C241.687 236.537 241.028 237.268 239.621 237.268H238.72V240.748H237.737V231.894L239.694 231.903ZM239.621 236.411C240.352 236.411 240.704 236.068 240.704 235.221V234.04C240.704 233.237 240.415 232.831 239.694 232.831H238.792V236.438L239.621 236.411Z" fill="#424242"/>
<path d="M242.381 234.04C242.381 232.687 243.048 231.813 244.401 231.813C245.754 231.813 246.439 232.714 246.439 234.04V238.62C246.439 239.964 245.772 240.847 244.401 240.847C243.03 240.847 242.381 239.946 242.381 238.62V234.04ZM243.355 238.674C243.355 239.486 243.698 239.955 244.401 239.955C245.105 239.955 245.456 239.486 245.456 238.674V233.995C245.456 233.192 245.123 232.714 244.401 232.714C243.68 232.714 243.355 233.192 243.355 233.995V238.674Z" fill="#424242"/>
<path d="M251.21 234.031V234.265H250.308V233.977C250.308 233.183 250.002 232.714 249.298 232.714C248.595 232.714 248.288 233.183 248.288 233.968C248.288 235.951 251.255 236.141 251.255 238.638C251.255 239.973 250.615 240.847 249.262 240.847C247.909 240.847 247.269 239.946 247.269 238.638V238.133H248.171V238.683C248.171 239.486 248.496 239.955 249.208 239.955C249.921 239.955 250.245 239.486 250.245 238.683C250.245 236.709 247.278 236.519 247.278 234.031C247.278 232.66 247.918 231.813 249.244 231.813C250.57 231.813 251.21 232.687 251.21 234.031Z" fill="#424242"/>
<path d="M253.357 240.748V232.795H251.724V231.894H255.963V232.795H254.322V240.748H253.357Z" fill="#424242"/>
<path d="M262.51 234.04V234.842H261.608V233.995C261.608 233.192 261.293 232.714 260.571 232.714C259.85 232.714 259.534 233.192 259.534 233.995V238.674C259.534 239.468 259.859 239.955 260.571 239.955C261.284 239.955 261.608 239.468 261.608 238.674V237.52H262.51V238.62C262.51 239.964 261.87 240.847 260.508 240.847C259.146 240.847 258.524 239.946 258.524 238.62V234.04C258.524 232.696 259.155 231.813 260.508 231.813C261.861 231.813 262.51 232.696 262.51 234.04Z" fill="#424242"/>
<path d="M263.34 234.04C263.34 232.687 264.007 231.813 265.36 231.813C266.713 231.813 267.398 232.714 267.398 234.04V238.62C267.398 239.964 266.731 240.847 265.36 240.847C263.989 240.847 263.34 239.946 263.34 238.62V234.04ZM264.314 238.674C264.314 239.486 264.657 239.955 265.36 239.955C266.064 239.955 266.415 239.486 266.415 238.674V233.995C266.415 233.192 266.082 232.714 265.36 232.714C264.639 232.714 264.314 233.192 264.314 233.995V238.674Z" fill="#424242"/>
<path d="M270.402 231.903C271.781 231.903 272.413 232.741 272.413 234.103V238.611C272.413 239.964 271.781 240.793 270.402 240.793H268.327V231.939L270.402 231.903ZM270.402 239.865C271.105 239.865 271.448 239.423 271.448 238.611V234.058C271.448 233.246 271.105 232.804 270.383 232.804H269.319V239.846L270.402 239.865Z" fill="#424242"/>
<path d="M276.489 235.825V236.727H274.325V239.847H276.985V240.748H273.333V231.894H276.985V232.795H274.325V235.816L276.489 235.825Z" fill="#424242"/>
<path d="M507.48 67.7431H74.1772V94.6762H507.48V67.7431Z" fill="#F0F7FF" stroke="#212121" stroke-linecap="round" stroke-linejoin="round"/>
<path d="M272.359 75.4434H210.023V94.6762H272.359V75.4434Z" fill="#F6F8FA" stroke="#212121" stroke-linecap="round" stroke-linejoin="round"/>
<path d="M341.621 75.4434H279.285V94.6762H341.621V75.4434Z" fill="#F6F8FA" stroke="#212121" stroke-linecap="round" stroke-linejoin="round"/>
<path d="M410.892 75.4434H348.556V94.6762H410.892V75.4434Z" fill="#F6F8FA" stroke="#212121" stroke-linecap="round" stroke-linejoin="round"/>
<path d="M480.154 75.4434H417.818V94.6762H480.154V75.4434Z" fill="#F6F8FA" stroke="#212121" stroke-linecap="round" stroke-linejoin="round"/>
<path d="M454.162 338.499H129.776V354.477H454.162V338.499Z" fill="#9E9E9E" stroke="#212121" stroke-linecap="round" stroke-linejoin="round"/>
<path d="M454.162 346.191H129.776V354.477H454.162V346.191Z" fill="#F6F8FA" stroke="#212121" stroke-linecap="round" stroke-linejoin="round"/>
<path d="M16.7204 363.945C16.7204 363.945 22.0413 370.455 38.022 375.784H545.907C545.907 375.784 557.749 372.826 563.043 364.54L16.7204 363.945Z" fill="#D8D8D8" stroke="#212121" stroke-linecap="round" stroke-linejoin="round"/>
<path d="M562.52 352.286H17.3336C16.3922 352.286 15.6291 353.049 15.6291 353.99V363.025C15.6291 363.966 16.3922 364.729 17.3336 364.729H562.52C563.461 364.729 564.224 363.966 564.224 363.025V353.99C564.224 353.049 563.461 352.286 562.52 352.286Z" fill="#D8D8D8" stroke="#212121" stroke-miterlimit="10"/>
<path d="M294.905 56.2016C294.905 55.3831 294.662 54.5829 294.207 53.9023C293.752 53.2217 293.106 52.6912 292.349 52.378C291.593 52.0647 290.761 51.9827 289.958 52.1424C289.155 52.3021 288.417 52.6963 287.838 53.2751C287.259 53.8539 286.865 54.5914 286.705 55.3942C286.546 56.197 286.628 57.0292 286.941 57.7854C287.254 58.5417 287.785 59.1881 288.465 59.6428C289.146 60.0976 289.947 60.3403 290.765 60.3403C291.863 60.3403 292.916 59.9043 293.692 59.1281C294.469 58.352 294.905 57.2993 294.905 56.2016Z" fill="#424242" stroke="#212121" stroke-linecap="round" stroke-linejoin="round"/>
<path d="M59.3368 132.633H59.3327C59.152 132.633 58.9786 132.561 58.8509 132.433L58.4973 132.787L58.8509 132.433C58.7231 132.306 58.6513 132.132 58.6513 131.952V97.6334C58.6583 97.4588 58.7322 97.2935 58.8578 97.1717C58.985 97.0485 59.1553 96.9795 59.3325 96.9796H59.3327C59.515 96.9796 59.6898 97.0516 59.8192 97.1799C59.9481 97.3079 60.0214 97.4814 60.0232 97.663V131.979C60.0161 132.155 59.9415 132.321 59.8148 132.443C59.6865 132.566 59.5149 132.634 59.3368 132.633Z" fill="#424242" stroke="#212121"/>
<path d="M467.519 109.725H408.628C407.906 109.725 407.32 110.311 407.32 111.033V147.073C407.32 147.795 407.906 148.38 408.628 148.38H467.519C468.241 148.38 468.826 147.795 468.826 147.073V111.033C468.826 110.311 468.241 109.725 467.519 109.725Z" fill="#0D4BA0"/>
<path d="M464.101 113.359H452.467V121.907H464.101V113.359Z" fill="#F6F8FA"/>
<path d="M413.814 132.168H420.992" stroke="#F6F8FA" stroke-miterlimit="10"/>
<path d="M413.814 116.776H420.992" stroke="#F6F8FA" stroke-miterlimit="10"/>
<path d="M413.814 142.087H420.992" stroke="#F6F8FA" stroke-miterlimit="10"/>
<path d="M425.096 142.087H432.283" stroke="#F6F8FA" stroke-miterlimit="10"/>
<path d="M424.419 132.168H431.598" stroke="#F6F8FA" stroke-miterlimit="10"/>
<path d="M435.025 132.168H442.204" stroke="#F6F8FA" stroke-miterlimit="10"/>
<path d="M445.622 132.168H452.81" stroke="#F6F8FA" stroke-miterlimit="10"/>
<path d="M456.228 132.168H463.415" stroke="#F6F8FA" stroke-miterlimit="10"/>
<path d="M353.273 280.765C353.273 280.765 339.086 271.919 341.548 271.504C344.011 271.09 382.078 272.541 385.369 272.947C388.661 273.353 399.564 274.597 400.998 275.21C402.432 275.824 417.042 280.972 426.304 281.793C435.566 282.613 445.243 282 446.875 282.821C448.508 283.641 454.694 290.034 453.252 292.279C451.809 294.524 447.904 295.165 447.904 295.165L417.457 298.456C417.457 298.456 412.524 292.694 408.61 291.044C404.696 289.394 378.371 281.585 370.967 281.585C363.563 281.585 353.273 280.765 353.273 280.765Z" fill="#212121" stroke="#424242" stroke-miterlimit="10"/>
<path d="M349.782 297.22C349.782 297.22 336.39 322.72 322.42 332.178C322.42 332.178 320.157 333.008 324.269 333.008C328.381 333.008 341.143 319.221 345.255 314.289C349.368 309.357 353.687 306.264 359.035 306.264H366.854L349.782 297.22Z" fill="#212121" stroke="#424242" stroke-miterlimit="10"/>
<path d="M362.949 319.023C357.334 319.021 351.843 320.685 347.173 323.803C342.503 326.921 338.863 331.354 336.713 336.541C334.563 341.728 334 347.436 335.095 352.943C336.19 358.45 338.894 363.509 342.865 367.479C346.836 371.449 351.896 374.153 357.404 375.248C362.912 376.343 368.621 375.78 373.809 373.63C378.997 371.481 383.431 367.841 386.55 363.172C389.669 358.503 391.332 353.013 391.331 347.399C391.331 339.873 388.34 332.655 383.018 327.334C377.695 322.012 370.477 319.023 362.949 319.023ZM362.949 363.656C359.739 363.656 356.6 362.704 353.931 360.921C351.261 359.137 349.18 356.603 347.952 353.637C346.723 350.671 346.402 347.408 347.028 344.259C347.654 341.111 349.2 338.219 351.471 335.949C353.741 333.679 356.633 332.134 359.782 331.507C362.931 330.881 366.195 331.203 369.162 332.431C372.128 333.659 374.663 335.74 376.447 338.409C378.231 341.078 379.183 344.216 379.183 347.426C379.183 351.73 377.472 355.859 374.428 358.902C371.384 361.946 367.255 363.656 362.949 363.656Z" fill="#212121" stroke="#424242" stroke-miterlimit="10"/>
<path d="M362.949 335.677C360.631 335.677 358.364 336.364 356.436 337.652C354.508 338.94 353.005 340.771 352.118 342.913C351.23 345.055 350.998 347.412 351.451 349.686C351.903 351.959 353.02 354.048 354.659 355.687C356.299 357.327 358.388 358.443 360.662 358.895C362.936 359.348 365.294 359.115 367.436 358.228C369.578 357.341 371.409 355.839 372.698 353.911C373.986 351.983 374.673 349.717 374.673 347.399C374.673 344.29 373.438 341.308 371.24 339.11C369.041 336.912 366.059 335.677 362.949 335.677ZM362.949 354.116C361.62 354.118 360.32 353.726 359.214 352.989C358.108 352.251 357.246 351.203 356.736 349.976C356.226 348.748 356.091 347.397 356.35 346.094C356.608 344.79 357.247 343.592 358.186 342.652C359.126 341.712 360.323 341.071 361.626 340.811C362.93 340.551 364.281 340.684 365.509 341.192C366.738 341.7 367.788 342.561 368.526 343.666C369.265 344.771 369.659 346.07 369.659 347.399C369.659 349.179 368.953 350.886 367.694 352.146C366.436 353.405 364.73 354.114 362.949 354.116Z" fill="#212121" stroke="#424242" stroke-miterlimit="10"/>
<path d="M362.949 327.039C358.921 327.033 354.981 328.223 351.628 330.457C348.276 332.691 345.662 335.869 344.116 339.589C342.571 343.308 342.164 347.403 342.947 351.354C343.729 355.305 345.667 358.936 348.513 361.786C351.36 364.636 354.989 366.578 358.94 367.365C362.89 368.153 366.986 367.752 370.709 366.211C374.431 364.671 377.613 362.062 379.852 358.713C382.091 355.364 383.286 351.427 383.286 347.399C383.288 342.003 381.147 336.827 377.334 333.009C373.52 329.191 368.346 327.044 362.949 327.039ZM362.949 363.656C359.739 363.656 356.6 362.704 353.931 360.921C351.261 359.137 349.18 356.603 347.952 353.637C346.723 350.671 346.402 347.408 347.028 344.259C347.654 341.111 349.2 338.219 351.471 335.949C353.741 333.679 356.633 332.134 359.782 331.507C362.931 330.881 366.195 331.203 369.162 332.431C372.128 333.659 374.663 335.74 376.447 338.409C378.231 341.078 379.183 344.216 379.183 347.426C379.183 351.73 377.472 355.859 374.428 358.902C371.384 361.946 367.255 363.656 362.949 363.656Z" fill="#F6F8FA" stroke="#212121" stroke-miterlimit="10"/>
<path d="M375.702 307.914L367.675 329.717L371.382 331.15L379.607 309.348L375.702 307.914Z" fill="#424242" stroke="#212121" stroke-miterlimit="10"/>
<path d="M367.675 329.717C367.675 329.717 359.243 326.011 352.452 331.151C345.661 336.29 344.84 342.638 344.84 342.638C344.84 342.638 355.536 350.446 369.524 351.655C383.512 352.863 397.707 350.834 404.696 348.778C408.979 347.506 413.114 345.784 417.033 343.639L399.754 324.703C399.754 324.703 397.292 321.205 391.529 324.496C385.766 327.787 385.559 332.106 385.559 332.106L367.675 329.717Z" fill="#424242" stroke="#212121" stroke-miterlimit="10"/>
<path d="M379.607 309.348L373.645 331.358L390.925 339.175C390.739 336.661 391.311 334.149 392.566 331.962C394.622 328.671 397.301 328.869 397.914 329.257C398.527 329.645 402.234 331.52 402.234 331.52L400.593 318.563L379.607 309.348Z" fill="#424242" stroke="#212121" stroke-miterlimit="10"/>
<path d="M533.697 319.023C528.081 319.021 522.59 320.685 517.92 323.803C513.25 326.921 509.61 331.354 507.46 336.541C505.31 341.728 504.747 347.436 505.842 352.943C506.937 358.45 509.642 363.509 513.613 367.479C517.584 371.449 522.643 374.153 528.151 375.248C533.659 376.343 539.368 375.78 544.556 373.63C549.744 371.481 554.178 367.841 557.297 363.172C560.416 358.503 562.079 353.013 562.078 347.399C562.078 343.672 561.344 339.982 559.917 336.54C558.491 333.097 556.4 329.969 553.765 327.334C551.13 324.699 548.001 322.609 544.558 321.183C541.114 319.757 537.424 319.023 533.697 319.023ZM533.697 363.656C530.486 363.656 527.347 362.704 524.678 360.921C522.008 359.137 519.928 356.603 518.699 353.637C517.47 350.671 517.149 347.408 517.775 344.259C518.401 341.111 519.948 338.219 522.218 335.949C524.488 333.679 527.381 332.134 530.53 331.507C533.678 330.881 536.942 331.203 539.909 332.431C542.875 333.659 545.41 335.74 547.194 338.409C548.978 341.078 549.93 344.216 549.93 347.426C549.93 351.73 548.219 355.859 545.175 358.902C542.131 361.946 538.002 363.656 533.697 363.656Z" fill="#212121" stroke="#424242" stroke-miterlimit="10"/>
<path d="M533.696 335.677C531.378 335.677 529.111 336.364 527.183 337.652C525.255 338.94 523.752 340.771 522.865 342.913C521.978 345.055 521.745 347.412 522.198 349.686C522.65 351.959 523.767 354.048 525.406 355.687C527.046 357.327 529.135 358.443 531.409 358.895C533.683 359.348 536.041 359.115 538.183 358.228C540.325 357.341 542.156 355.839 543.445 353.911C544.733 351.983 545.421 349.717 545.421 347.399C545.421 344.29 544.185 341.308 541.987 339.11C539.788 336.912 536.806 335.677 533.696 335.677ZM533.696 354.116C532.367 354.118 531.067 353.726 529.961 352.989C528.855 352.251 527.993 351.203 527.483 349.976C526.973 348.748 526.838 347.397 527.097 346.094C527.355 344.79 527.994 343.592 528.933 342.652C529.873 341.712 531.07 341.071 532.373 340.811C533.677 340.551 535.028 340.684 536.256 341.192C537.485 341.7 538.535 342.561 539.273 343.666C540.012 344.771 540.406 346.07 540.406 347.399C540.406 349.179 539.7 350.886 538.442 352.146C537.183 353.405 535.477 354.114 533.696 354.116Z" fill="#212121" stroke="#424242" stroke-miterlimit="10"/>
<path d="M533.697 327.039C529.669 327.039 525.732 328.233 522.383 330.47C519.034 332.707 516.424 335.887 514.883 339.607C513.342 343.328 512.938 347.421 513.724 351.371C514.51 355.32 516.449 358.948 519.297 361.795C522.145 364.643 525.774 366.582 529.724 367.367C533.674 368.153 537.768 367.75 541.489 366.209C545.21 364.668 548.391 362.058 550.628 358.71C552.866 355.362 554.06 351.426 554.06 347.399C554.06 341.999 551.915 336.82 548.096 333.002C544.277 329.184 539.097 327.039 533.697 327.039ZM533.697 363.656C530.486 363.656 527.347 362.704 524.678 360.921C522.008 359.137 519.928 356.603 518.699 353.637C517.47 350.671 517.149 347.408 517.775 344.259C518.401 341.111 519.948 338.219 522.218 335.949C524.488 333.679 527.381 332.134 530.53 331.507C533.678 330.881 536.942 331.203 539.909 332.431C542.875 333.659 545.41 335.74 547.194 338.409C548.978 341.078 549.93 344.216 549.93 347.426C549.93 351.73 548.219 355.859 545.175 358.902C542.131 361.946 538.002 363.656 533.697 363.656Z" fill="#F6F8FA" stroke="#212121" stroke-miterlimit="10"/>
<path d="M507.651 320.998L530.044 327.886C530.044 327.886 542.102 318.779 555.873 321.98C555.873 321.98 550.958 307.959 519.952 305.498L507.651 320.998Z" fill="#424242" stroke="#212121" stroke-miterlimit="10"/>
<path d="M530.693 347.399L511.394 313.784L515.236 311.584L534.535 345.226C534.76 345.635 534.817 346.116 534.694 346.567C534.571 347.018 534.278 347.403 533.877 347.642L533.101 348.084C532.689 348.304 532.208 348.355 531.759 348.227C531.31 348.099 530.928 347.802 530.693 347.399Z" fill="#424242" stroke="#212121" stroke-miterlimit="10"/>
<path d="M487.81 259.584C487.81 259.584 505.91 268.222 510.853 271.919C515.795 275.616 525.868 283.641 527.51 285.904C529.151 288.167 533.886 295.57 532.244 298.041C530.603 300.511 529.539 301.945 528.538 302.549C527.537 303.153 522.784 303.983 520.52 306.661C518.257 309.339 499.327 339.365 499.327 339.365C499.327 339.365 492.545 350.266 491.508 350.266C490.471 350.266 478.548 354.585 463.334 353.963C448.12 353.341 429.803 349.238 426.512 349.031C423.22 348.823 419.513 346.975 418.07 346.145C416.627 345.316 412.524 342.656 406.554 336.479C400.583 330.303 396.679 328.256 397.093 320.439C397.093 320.439 350.197 299.871 347.925 297.608C345.652 295.345 340.313 284.858 342.577 283.01C344.84 281.161 354.301 279.097 366.232 280.539C378.164 281.982 404.29 287.942 409.431 291.441C412.397 293.416 415.095 295.768 417.457 298.438L447.904 295.146L449.752 298.456C449.752 298.456 438.849 312.639 438.849 313.667C438.849 314.695 450.988 335.064 450.988 335.064C450.988 335.064 444.612 335.884 440.084 336.092C435.557 336.299 431.652 336.912 431.652 336.912C431.652 336.912 471.974 339.175 478.35 338.761C484.726 338.346 488.838 331.547 489.867 328.887C490.895 326.227 488.216 313.261 490.48 305.444C492.743 297.626 495.629 292.487 492.545 287.14C489.461 281.793 478.756 269.863 478.756 266.401C478.756 262.939 487.81 259.584 487.81 259.584Z" fill="#424242" stroke="#212121" stroke-miterlimit="10"/>
<path d="M487.81 259.584C487.81 259.584 475.879 266.572 475.879 267.808C475.879 269.043 485.962 288.375 487.396 292.487C488.829 296.598 484.519 323.54 483.491 326.426C482.462 329.311 476.492 335.442 476.492 335.442L450.988 335.037L446.163 336.119L440.085 336.065C440.085 336.065 433.095 332.774 431.86 332.566C430.624 332.359 408.61 326.597 405.526 328.454C402.441 330.312 403.469 332.566 404.705 332.963C405.941 333.36 451.195 341.601 452.223 341.601C453.252 341.601 475.879 345.298 483.698 342.421C491.517 339.545 499.12 328.436 500.77 324.731L502.411 321.034L495.629 315.065C495.629 315.065 495.828 309.303 497.063 306.219C498.299 303.135 502.411 293.884 501.185 290.593C499.958 287.302 482.489 269.25 482.67 266.572C482.85 263.894 487.81 259.584 487.81 259.584Z" fill="#212121" stroke="#424242" stroke-miterlimit="10"/>
<path d="M490.281 320.664C488.054 321.286 485.826 323.026 483.851 325.046C483.707 325.686 483.581 326.155 483.491 326.426C482.462 329.302 476.492 335.442 476.492 335.442L450.988 335.037L446.163 336.119L440.085 336.065C437.743 336.622 435.45 337.37 433.23 338.301C443.07 340.104 451.782 341.619 452.223 341.619C453.252 341.619 475.879 345.316 483.698 342.44C491.517 339.563 499.12 328.454 500.77 324.749L502.411 321.052C498.501 319.694 494.27 319.559 490.281 320.664Z" fill="#212121" stroke="#424242" stroke-miterlimit="10"/>
<path d="M489.253 241.479C489.253 241.479 478.548 237.574 474.643 239.215C470.738 240.856 464.362 246.005 463.533 249.503C462.703 253.002 464.362 254.643 467.032 257.114C469.701 259.584 476.907 267.393 476.907 267.393L487.81 259.584L489.253 257.727C489.253 257.727 494.394 256.293 494.601 255.265C494.744 252.144 494.397 249.019 493.573 246.005C493.293 244.948 492.75 243.978 491.995 243.187C491.239 242.396 490.296 241.808 489.253 241.479Z" fill="#424242" stroke="#212121" stroke-miterlimit="10"/>
<path d="M488.802 242.308C488.802 242.308 486.999 245.798 488.388 248.268C489.776 250.739 492.897 257.519 493.735 255.482C494.574 253.444 493.33 246.844 491.932 244.995C491.083 243.895 490.018 242.98 488.802 242.308Z" fill="#F6F8FA" stroke="#212121" stroke-miterlimit="10"/>
<path d="M470.233 260.315C473.3 263.48 476.907 267.393 476.907 267.393L487.81 259.584L489.253 257.727C490.741 257.31 492.191 256.774 493.591 256.122C489.389 254.138 479.955 249.972 477.728 251.559C475.5 253.146 471.947 257.943 470.233 260.315Z" fill="#424242" stroke="#212121" stroke-miterlimit="10"/>
<path d="M473.2 243.949C473.2 243.949 473.002 229.351 470.495 228.936C467.988 228.521 463.497 230.379 463.497 230.379C462.505 228.969 461.831 227.362 461.52 225.667C461.208 223.972 461.267 222.23 461.693 220.56C461.747 220.343 461.81 220.118 461.882 219.883C463.731 213.716 472.786 225.23 473.606 227.097C474.118 228.541 474.327 230.076 474.22 231.605L475.455 243.129C475.455 243.129 478.954 245.184 477.313 245.392C475.671 245.599 469.079 245.392 470.729 243.742C472.38 242.092 473.2 243.949 473.2 243.949Z" fill="#212121" stroke="#424242" stroke-miterlimit="10"/>
<path d="M485.069 261.55L463.352 251.631C463.533 253.768 464.976 255.184 467.032 257.042C469.737 259.512 476.907 267.321 476.907 267.321L485.069 261.55Z" fill="#212121" stroke="#424242" stroke-miterlimit="10"/>
<path d="M377.471 211.994H329.399C323.876 211.994 319.399 216.471 319.399 221.994V260.54C319.399 266.063 323.876 270.54 329.399 270.54H377.471C382.993 270.54 387.471 266.063 387.471 260.54V221.994C387.471 216.471 382.993 211.994 377.471 211.994Z" fill="#0D4BA0" stroke="#0D4BA0" stroke-miterlimit="10"/>
<path d="M381.618 270.549H324.522V272.009H381.618V270.549Z" fill="#212121" stroke="#424242" stroke-miterlimit="10"/>
<path d="M448.039 335.424C449.779 335.235 450.988 335.082 450.988 335.082C450.988 335.082 438.849 314.686 438.849 313.667C438.849 312.648 449.752 298.456 449.752 298.456L447.904 295.165L417.457 298.456C417.457 298.456 434.944 318.816 440.499 325.398C443.193 328.601 445.71 331.948 448.039 335.424Z" fill="#424242" stroke="#212121" stroke-miterlimit="10"/>
<path d="M527.708 296.715L531.271 297.644" stroke="#212121" stroke-miterlimit="10"/>
<path d="M502.979 290.268L524.723 295.94" stroke="#212121" stroke-miterlimit="10"/>
<path d="M515.777 291.738L501.996 279.935L510.113 282.144L524.389 293.956L515.777 291.738Z" fill="#F6F8FA" stroke="#212121" stroke-miterlimit="10"/>
<path d="M424.194 316.787C427.531 317.084 429.912 317.319 429.912 317.319" stroke="#212121" stroke-miterlimit="10"/>
<path d="M398.536 319.194C398.536 319.194 398.536 316.246 405.183 315.876C410.603 315.827 416.021 316.061 421.416 316.579" stroke="#212121" stroke-miterlimit="10"/>
<path d="M449.518 270.377C448.697 270.179 444.026 266.347 444.864 266.248C452.287 265.346 471.478 267.555 474.725 268.051C479.09 268.673 473.146 293.794 471.694 302.721C470.441 310.412 472.181 315.588 472.028 317.147C472.015 317.268 472.031 317.389 472.077 317.501C472.123 317.613 472.196 317.711 472.29 317.788L473.191 318.581C473.337 318.712 473.43 318.892 473.453 319.086L473.76 322.035C473.782 322.223 473.874 322.397 474.017 322.522C474.16 322.647 474.345 322.714 474.535 322.711C476.763 322.7 478.976 322.354 481.101 321.683C483.59 320.646 487.531 319.194 486.512 321.475C485.493 323.757 482.156 327.913 480.289 328.743C478.422 329.573 468.457 332.269 465.959 332.9C464.092 333.36 459.537 333.36 457.373 333.333C457.246 333.333 457.121 333.301 457.01 333.24C456.899 333.179 456.805 333.09 456.738 332.983C456.67 332.876 456.631 332.753 456.624 332.627C456.617 332.5 456.642 332.374 456.697 332.26C457.598 330.204 459.573 325.614 459.736 322.936C459.943 319.402 460.782 297.175 462.649 290.737C464.281 285.12 466.554 278.402 467.104 275.291C467.126 275.194 467.129 275.094 467.112 274.995C467.095 274.897 467.059 274.803 467.005 274.719C466.951 274.635 466.881 274.563 466.799 274.506C466.717 274.45 466.624 274.41 466.527 274.39L449.518 270.377Z" fill="#212121" stroke="#212121" stroke-miterlimit="10"/>
<path d="M460.782 326.976L466.031 329.5C466.126 329.549 466.23 329.577 466.337 329.582C467.429 329.582 473.967 329.816 475.103 330.195C476.24 330.573 476.97 330.817 475.933 332.061C474.896 333.306 470.333 335.424 465.354 336.425C460.916 337.413 456.37 337.831 451.827 337.67C450.106 337.604 448.395 337.387 446.713 337.02C446.517 336.977 446.346 336.858 446.238 336.689C446.13 336.52 446.093 336.315 446.136 336.119L447.371 329.257C447.4 329.099 447.477 328.955 447.592 328.843C447.707 328.731 447.853 328.659 448.012 328.635L460.313 326.886C460.475 326.863 460.64 326.895 460.782 326.976Z" fill="#F6F8FA" stroke="#212121" stroke-miterlimit="10"/>
<path d="M475.933 332.061C476.835 330.952 476.465 330.664 475.482 330.321L474.634 330.42C472.912 331.565 469.927 332.909 464.714 334.144C458.926 335.615 452.929 336.081 446.984 335.524C446.793 335.505 446.601 335.558 446.448 335.673C446.294 335.788 446.189 335.957 446.154 336.146C446.111 336.342 446.148 336.547 446.256 336.716C446.364 336.885 446.535 337.004 446.731 337.047C448.413 337.414 450.124 337.631 451.845 337.697C456.388 337.858 460.934 337.44 465.372 336.452C470.333 335.424 474.896 333.315 475.933 332.061Z" fill="#F6F8FA" stroke="#212121" stroke-miterlimit="10"/>
<path d="M407.239 256.978C407.239 256.978 404.75 272.55 405.995 276.491C407.239 280.431 436.216 283.794 444.107 283.172C450.284 282.685 449.337 283.407 455.714 282.947C456.309 282.902 456.85 283.208 456.733 283.803L447.669 327.868C447.648 327.974 447.65 328.083 447.675 328.188C447.7 328.293 447.746 328.391 447.812 328.476C447.878 328.562 447.961 328.632 448.056 328.683C448.151 328.733 448.256 328.763 448.363 328.77C450.766 328.949 453.179 328.928 455.578 328.707C457.625 328.417 459.62 327.837 461.503 326.985C461.601 326.94 461.687 326.875 461.757 326.794C461.827 326.713 461.879 326.618 461.909 326.516L462.604 324.271C462.622 324.181 462.622 324.089 462.604 324L462.207 317.869C462.199 317.764 462.214 317.66 462.252 317.562C463.154 315.119 472.84 282.081 473.841 278.078C474.878 273.93 476.122 270.612 473.426 268.745C470.729 266.879 435.846 259.873 435.846 259.873L407.239 256.978Z" fill="#212121" stroke="#212121" stroke-miterlimit="10"/>
<path d="M414.706 266.969C414.706 266.969 428 262.407 435.882 259.909" stroke="#212121" stroke-miterlimit="10"/>
<path d="M457.012 282.442C457.012 282.442 463.325 282.063 468.069 279.16" stroke="#212121" stroke-miterlimit="10"/>
<path d="M457.481 284.552C457.481 284.552 465.354 283.127 468.691 281.441" stroke="#212121" stroke-miterlimit="10"/>
<path d="M440.039 235.789L441.239 245.969L449.617 248.061L463.533 249.503L453.802 252.849L435.846 256.437L440.039 235.789Z" fill="#FFCB05" stroke="#212121" stroke-miterlimit="10"/>
<path d="M434.845 200.344C434.845 200.344 430.281 199.307 423.22 205.943C416.862 212.07 412.467 219.948 410.594 228.576C408.727 236.456 406.86 251.406 406.238 254.309C405.616 257.213 406.446 257.628 407.898 258.457C409.35 259.287 418.278 260.955 426.169 261.37C434.06 261.784 437.794 260.324 438.795 258.872C439.796 257.42 438.795 242.065 440.039 237.078C441.284 232.092 443.773 214.87 443.773 214.87L435.656 200.759L434.845 200.344Z" fill="#FFCB05" stroke="#212121" stroke-miterlimit="10"/>
<path d="M442.943 191.832L436.721 200.966L446.262 211.137C446.262 211.137 452.909 202.625 453.946 202.003C454.983 201.381 457.265 200.344 457.265 200.344L442.943 191.832Z" fill="#F6F8FA" stroke="#212121" stroke-miterlimit="10"/>
<path d="M446.091 199.199L449.879 206.385L453.946 202.003L446.091 199.199Z" fill="#212121" stroke="#424242" stroke-miterlimit="10"/>
<path d="M463.497 185.611L464.119 188.721C464.119 188.721 466.608 191.21 465.986 192.662C465.363 194.113 462.459 195.367 462.459 195.367C462.459 195.367 458.654 203.292 457.815 204.122C456.976 204.952 450.42 202.219 447.516 200.56C444.612 198.901 443.981 194.122 443.981 194.122L442.529 193.085C442.529 193.085 438.173 192.049 437.758 189.767C437.343 187.486 437.135 184.988 439.625 183.537C442.114 182.085 443.98 181.255 445.036 181.255C446.091 181.255 460.611 183.537 460.611 183.537L463.497 185.611Z" fill="#F6F8FA" stroke="#212121" stroke-miterlimit="10"/>
<path d="M461.422 196.404C461.422 196.404 457.689 196.187 456.85 193.906" stroke="#212121" stroke-miterlimit="10"/>
<path d="M448.968 183.942C448.968 183.942 447.308 188.099 446.677 188.514C446.046 188.929 445.847 185.187 442.114 186.025C438.38 186.864 439.002 191.003 440.039 191.832C440.792 192.386 441.634 192.806 442.529 193.076L440.544 195.547C440.544 195.547 439.643 194.528 436.513 194.321C433.384 194.113 429.659 190.588 429.452 187.892C429.244 185.196 431.733 181.869 431.733 181.869C431.621 182.281 431.665 182.721 431.856 183.103C432.048 183.486 432.373 183.785 432.771 183.942C433.838 184.307 434.984 184.378 436.089 184.15L448.968 183.942Z" fill="#212121" stroke="#424242" stroke-miterlimit="10"/>
<path d="M434.223 184.565L464.741 185.818C464.741 185.818 463.704 176.729 462.649 173.357C461.594 169.984 450.023 166.143 443.755 166.72C437.487 167.297 435.242 174.394 435.242 174.394L434.223 184.565Z" fill="#FFCB05" stroke="#212121" stroke-miterlimit="10"/>
<path d="M454.532 185.394C458.562 186.325 462.656 186.952 466.779 187.27C473.011 187.684 477.16 185.818 477.16 184.357C477.16 182.896 463.46 185.611 463.46 185.611L454.532 185.394Z" fill="#FFCB05" stroke="#212121" stroke-miterlimit="10"/>
<path d="M435.891 196.187L447.931 212.589L442.943 218.197L433.185 199.929L435.891 196.187Z" fill="#FFCB05" stroke="#212121" stroke-miterlimit="10"/>
<path d="M424.437 245.311L453.36 249.386C453.36 249.386 462.856 247.673 465.399 246.167C467.943 244.661 469.485 245.527 470.008 246.239C470.531 246.952 471.252 251.884 471.505 252.975C471.757 254.066 469.548 254.778 468.664 255.067C467.78 255.355 463.253 253.399 463.253 253.399C463.253 253.399 458.293 255.59 456.453 255.31C455.176 255.075 453.954 254.607 452.846 253.931C452.846 253.931 419.315 257.655 414.436 257.97C409.557 258.286 411.325 253.245 411.866 250.946C412.686 247.448 413.309 244.364 413.309 244.364L424.437 245.311Z" fill="#F6F8FA" stroke="#212121" stroke-miterlimit="10"/>
<path d="M429.957 209.523C427.035 209.658 423.644 212.904 421.939 215.682C417.259 223.4 410.387 247.592 410.387 247.592L432.293 245.491C432.293 245.491 435.178 216.962 434.358 213.932C433.465 210.587 431.815 209.433 429.957 209.523Z" fill="#FFCB05" stroke="#212121" stroke-miterlimit="10"/>
<path d="M468.475 251.352C468.477 250.739 468.296 250.14 467.957 249.63C467.618 249.12 467.135 248.722 466.569 248.487C466.004 248.252 465.381 248.19 464.78 248.309C464.179 248.428 463.627 248.723 463.194 249.156C462.761 249.589 462.466 250.141 462.347 250.742C462.228 251.343 462.29 251.965 462.525 252.531C462.76 253.096 463.158 253.579 463.668 253.918C464.178 254.257 464.778 254.437 465.39 254.436C466.208 254.436 466.993 254.111 467.571 253.532C468.15 252.954 468.475 252.17 468.475 251.352Z" fill="#212121" stroke="#424242" stroke-miterlimit="10"/>
<path d="M338.789 289.809H320.346" stroke="#212121" stroke-miterlimit="10"/>
<path d="M326.497 302.982H287.834" stroke="#212121" stroke-miterlimit="10"/>
<path d="M429.289 192.301H402.928" stroke="#212121" stroke-miterlimit="10"/>
<path d="M311.553 255.545H301.894" stroke="#212121" stroke-miterlimit="10"/>
<path d="M611.174 375.784H634.198" stroke="#424242" stroke-linecap="round" stroke-linejoin="round"/>
<path d="M-0.351624 375.784H605.646" stroke="#424242" stroke-linecap="round" stroke-linejoin="round"/>
</g>
<defs>
<clipPath id="clip0_6_2252">
<rect width="634" height="376" fill="white"/>
</clipPath>
</defs>
</svg>
