<svg width="196" height="88" viewBox="0 0 196 88" fill="none" xmlns="http://www.w3.org/2000/svg">
<g clip-path="url(#clip0_6_2446)">
<path d="M10.8772 58.3184C12.4025 58.3184 13.8306 58.606 15.1587 59.1786C16.4867 59.7538 17.6465 60.5348 18.638 61.5216C19.6295 62.5085 20.4132 63.6747 20.9838 65.0125C21.5572 66.3529 21.8412 67.7804 21.8412 69.2976C21.8412 70.8148 21.5545 72.2317 20.9838 73.5484C20.4105 74.865 19.6295 76.0181 18.638 77.0049C17.6465 77.9918 16.4815 78.7702 15.1455 79.3375C13.8095 79.9048 12.3789 80.1871 10.8535 80.1871H4.96785V85.2638C4.96785 85.6015 4.9021 85.9234 4.77324 86.2295C4.64437 86.5356 4.46291 86.7968 4.23411 87.0105C4.00531 87.2243 3.74232 87.3984 3.44515 87.5277C3.14797 87.657 2.82187 87.7229 2.47209 87.7229C2.12232 87.7229 1.81462 87.657 1.50955 87.5277C1.20449 87.3984 0.941498 87.2243 0.720588 87.0105C0.499678 86.7968 0.323476 86.5356 0.194611 86.2295C0.0657471 85.9234 0 85.6015 0 85.2638V60.8198C0 60.4688 0.0657471 60.139 0.194611 59.8329C0.323476 59.5269 0.499678 59.263 0.720588 59.0413C0.941498 58.8197 1.20449 58.6429 1.50955 58.5136C1.81462 58.3843 2.13547 58.3184 2.47209 58.3184H10.8772ZM4.97048 63.3027V75.2028H10.9456C11.7687 75.2028 12.5445 75.0418 13.2704 74.7199C13.9962 74.398 14.6248 73.9653 15.1587 73.4217C15.6925 72.8782 16.1133 72.2502 16.4184 71.5378C16.7234 70.8253 16.876 70.0786 16.876 69.2976C16.876 68.5166 16.7182 67.7672 16.4078 67.0469C16.0949 66.3265 15.6715 65.688 15.1376 65.1286C14.6037 64.5692 13.9778 64.1259 13.2599 63.7961C12.5419 63.4663 11.7714 63.3027 10.9482 63.3027H4.97048Z" fill="#0D4BA0"/>
<path d="M23.4954 77.0419C23.4954 75.5247 23.7847 74.1051 24.3659 72.7805C24.9471 71.456 25.7308 70.295 26.7249 69.3002C27.7164 68.3055 28.8735 67.5192 30.1937 66.9466C31.5139 66.3714 32.9209 66.0864 34.4173 66.0864C35.9137 66.0864 37.347 66.374 38.6751 66.9466C40.0032 67.5218 41.1603 68.3055 42.1439 69.3002C43.1275 70.295 43.9033 71.456 44.4687 72.7805C45.0341 74.1051 45.3155 75.5247 45.3155 77.0419V85.174C45.3155 85.5276 45.2498 85.8548 45.1209 86.1609C44.9921 86.467 44.8106 86.7361 44.5818 86.9657C44.353 87.1952 44.0821 87.3799 43.7692 87.5171C43.4562 87.6543 43.1248 87.7229 42.7724 87.7229C42.1781 87.7229 41.6732 87.5462 41.2603 87.1952C40.8474 86.8443 40.5739 86.3984 40.4371 85.8627C39.5666 86.5224 38.6251 87.0422 37.61 87.4248C36.5948 87.8074 35.5297 88 34.4147 88C32.9183 88 31.5113 87.7124 30.1911 87.1398C28.8709 86.5646 27.7137 85.7809 26.7223 84.7862C25.7308 83.7914 24.9445 82.6278 24.3633 81.2953C23.7821 79.9628 23.4928 78.5459 23.4928 77.0445L23.4954 77.0419ZM28.4632 77.0419C28.4632 77.8546 28.6184 78.6224 28.934 79.3507C29.247 80.0789 29.673 80.7148 30.2174 81.2584C30.7591 81.8019 31.3877 82.232 32.1056 82.546C32.8236 82.86 33.5941 83.0157 34.4173 83.0157C35.2405 83.0157 36.0163 82.86 36.7421 82.546C37.468 82.232 38.0965 81.8046 38.6304 81.2584C39.1642 80.7148 39.585 80.0789 39.8901 79.3507C40.1952 78.6224 40.3477 77.8546 40.3477 77.0419C40.3477 76.2292 40.1952 75.4376 39.8901 74.7094C39.585 73.9811 39.1642 73.3505 38.6304 72.8148C38.0965 72.2792 37.4653 71.8544 36.7421 71.5404C36.0163 71.2264 35.2431 71.0707 34.4173 71.0707C33.5915 71.0707 32.842 71.229 32.1162 71.5404C31.3903 71.8544 30.7565 72.2792 30.2147 72.8148C29.673 73.3505 29.2443 73.9837 28.9314 74.7094C28.6184 75.4376 28.4606 76.2134 28.4606 77.0419H28.4632Z" fill="#0D4BA0"/>
<path d="M60.4505 76.0524L67.4802 83.5645C67.709 83.7941 67.8799 84.0632 67.9957 84.3693C68.1087 84.6754 68.1666 84.9894 68.1666 85.3113C68.1666 85.6332 68.1061 85.9472 67.9825 86.2533C67.8589 86.5593 67.6696 86.8364 67.4092 87.0791C66.92 87.5382 66.3493 87.7678 65.6919 87.7678C65.371 87.7678 65.0581 87.7018 64.753 87.5726C64.4479 87.4433 64.1797 87.248 63.9509 86.9868L56.9896 79.3375L54.9751 81.2663V85.2875C54.9751 85.6253 54.9094 85.9419 54.7805 86.2401C54.6516 86.5382 54.4754 86.7942 54.2545 87.0105C54.0336 87.2243 53.7785 87.3984 53.4866 87.5277C53.1973 87.657 52.8843 87.7229 52.5477 87.7229C52.2111 87.7229 51.8902 87.657 51.5852 87.5277C51.2801 87.3984 51.0119 87.2243 50.7831 87.0105C50.5543 86.7968 50.3702 86.5409 50.2334 86.2401C50.0967 85.9419 50.0283 85.6226 50.0283 85.2875V60.5454C50.0283 60.2076 50.0967 59.891 50.2334 59.5928C50.3702 59.2947 50.5543 59.0387 50.7831 58.8223C51.0119 58.6086 51.2801 58.4345 51.5852 58.3052C51.8902 58.1759 52.2111 58.1099 52.5477 58.1099C52.8843 58.1099 53.2236 58.1759 53.5208 58.3052C53.818 58.4345 54.0731 58.6086 54.2887 58.8223C54.5017 59.0361 54.6753 59.292 54.8042 59.5928C54.933 59.891 54.9988 60.2103 54.9988 60.5454V74.7199L62.8069 67.0469C63.0357 66.8173 63.2882 66.6484 63.5617 66.5403C63.8378 66.4321 64.1192 66.3793 64.4085 66.3793C64.7136 66.3793 65.0239 66.4453 65.3368 66.5746C65.6498 66.7038 65.9365 66.907 66.1968 67.1841C66.4256 67.4295 66.6018 67.7012 66.7228 67.9994C66.8438 68.2976 66.9016 68.6036 66.8937 68.9176C66.8858 69.2316 66.8201 69.5377 66.6991 69.8359C66.5781 70.134 66.3941 70.3979 66.1495 70.6275L60.4479 76.0498L60.4505 76.0524Z" fill="#0D4BA0"/>
<path d="M75.2436 79.2689C75.4409 79.8362 75.7196 80.3533 76.0799 80.8204C76.4376 81.2874 76.8531 81.6858 77.3265 82.0156C77.7999 82.3455 78.318 82.5988 78.8834 82.7729C79.4488 82.9497 80.0432 83.0368 80.6691 83.0368C82.2417 83.0368 83.4778 82.6225 84.3772 81.7966C84.6823 81.5829 84.9795 81.4246 85.2714 81.327C85.5607 81.2267 85.8368 81.1766 86.0945 81.1766C86.5206 81.1766 86.9045 81.2874 87.2385 81.509C87.5752 81.7307 87.8487 82.0183 88.0617 82.3719C88.2142 82.6172 88.3247 82.8811 88.393 83.1634C88.4614 83.4458 88.4772 83.7334 88.4404 84.0236C88.4009 84.3139 88.3115 84.6015 88.1642 84.8864C88.0196 85.1688 87.8013 85.4274 87.512 85.6569C87.1754 85.963 86.7941 86.2585 86.368 86.5409C85.9394 86.8232 85.4476 87.0738 84.89 87.2876C84.3325 87.5013 83.7066 87.6754 83.0123 87.8047C82.318 87.934 81.5343 88 80.6664 88C79.1543 88 77.7368 87.7124 76.4087 87.1398C75.0806 86.5646 73.9208 85.7809 72.9293 84.7862C71.9379 83.7914 71.1515 82.6304 70.5703 81.3059C69.9891 79.9813 69.6998 78.5617 69.6998 77.0445C69.6998 75.5273 69.9891 74.1051 70.5703 72.7726C71.1515 71.4401 71.9352 70.2791 72.9293 69.2923C73.9208 68.3055 75.0806 67.5244 76.4087 66.9492C77.7368 66.374 79.1569 66.0891 80.6664 66.0891C82.176 66.0891 83.5698 66.3714 84.89 66.9387C86.2102 67.506 87.37 68.2765 88.3694 69.2475C89.3687 70.2211 90.163 71.3636 90.7494 72.6829C91.3359 73.9996 91.6383 75.4086 91.6541 76.91C91.6541 77.6145 91.4279 78.1844 90.9782 78.6224C90.5285 79.0578 89.9368 79.2768 89.2031 79.2768H75.2357L75.2436 79.2689ZM86.5548 75.1342C86.3864 74.5062 86.1235 73.9389 85.7658 73.4349C85.4081 72.9283 84.9768 72.5008 84.4719 72.1473C83.967 71.7963 83.4042 71.5272 82.7782 71.3425C82.1523 71.1578 81.4896 71.0681 80.7874 71.0681C80.0852 71.0681 79.4251 71.1631 78.8071 71.3557C78.1891 71.5483 77.6316 71.8227 77.1345 72.1816C76.6375 72.5404 76.2141 72.9705 75.8643 73.4692C75.5119 73.9679 75.2541 74.522 75.0858 75.1342H86.5548Z" fill="#0D4BA0"/>
<path d="M99.6279 66.3582H107.596C107.946 66.3582 108.275 66.4242 108.58 66.5534C108.885 66.6827 109.153 66.8648 109.382 67.0944C109.611 67.3239 109.79 67.5931 109.921 67.8991C110.05 68.2052 110.116 68.535 110.116 68.886C110.116 69.2369 110.05 69.5403 109.921 69.8385C109.792 70.1367 109.611 70.3979 109.382 70.6195C109.153 70.8412 108.885 71.018 108.58 71.1473C108.275 71.2765 107.946 71.3425 107.596 71.3425H99.6279V77.1553C99.6279 77.968 99.7831 78.728 100.096 79.4404C100.409 80.1528 100.832 80.7729 101.366 81.3006C101.9 81.8283 102.531 82.2452 103.255 82.5539C103.98 82.86 104.754 83.013 105.579 83.013C106.313 83.013 106.992 82.9101 107.617 82.7017C108.243 82.4959 108.825 82.1555 109.358 81.6805C109.619 81.4352 109.908 81.232 110.229 81.071C110.55 80.9101 110.886 80.8309 111.236 80.8309C111.802 80.8309 112.312 81.0367 112.769 81.451C113.046 81.6964 113.24 81.9866 113.353 82.3244C113.466 82.6621 113.514 83.0104 113.49 83.3693C113.466 83.7281 113.38 84.079 113.227 84.4141C113.074 84.7519 112.861 85.05 112.585 85.3113C111.67 86.2005 110.616 86.8707 109.424 87.3219C108.233 87.7731 106.952 88 105.577 88C104.065 88 102.65 87.7177 101.329 87.1504C100.009 86.5831 98.8521 85.81 97.8606 84.831C96.8691 83.8521 96.0854 82.699 95.5121 81.3745C94.9388 80.0499 94.6548 78.6303 94.6548 77.1131V62.3634C94.6548 62.0124 94.7232 61.6826 94.8599 61.3765C94.9967 61.0704 95.1808 60.8013 95.4096 60.5717C95.6384 60.3422 95.9066 60.1628 96.2117 60.0308C96.5167 59.9015 96.8376 59.8356 97.1742 59.8356C97.5108 59.8356 97.8264 59.9015 98.1236 60.0308C98.4208 60.1601 98.6811 60.3422 98.902 60.5717C99.123 60.8013 99.2992 61.0704 99.428 61.3765C99.5569 61.6826 99.6226 62.0124 99.6226 62.3634V66.3608H99.6279V66.3582Z" fill="#0D4BA0"/>
<path d="M124.015 82.7386C124.367 82.7386 124.693 82.8072 124.998 82.9444C125.303 83.0817 125.564 83.269 125.777 83.5065C125.99 83.7439 126.158 84.0157 126.282 84.3218C126.403 84.6279 126.466 84.9498 126.466 85.2875C126.466 85.992 126.237 86.5752 125.779 87.0343C125.322 87.4934 124.733 87.7229 124.017 87.7229C122.979 87.7229 122.006 87.5462 121.098 87.1952C120.191 86.8443 119.391 86.3535 118.705 85.7255C118.019 85.0975 117.477 84.3403 117.08 83.4511C116.683 82.5618 116.47 81.5829 116.438 80.5117V60.6166C116.438 60.2657 116.504 59.9358 116.633 59.6298C116.762 59.3237 116.935 59.0598 117.148 58.8382C117.361 58.6165 117.614 58.4398 117.903 58.3105C118.192 58.1812 118.505 58.1152 118.842 58.1152C119.178 58.1152 119.52 58.1812 119.825 58.3105C120.13 58.4398 120.401 58.6165 120.638 58.8382C120.875 59.0598 121.061 59.3237 121.198 59.6298C121.335 59.9358 121.403 60.2657 121.403 60.6166V80.3507C121.403 81.1476 121.648 81.7439 122.137 82.1423C122.626 82.5407 123.252 82.7386 124.015 82.7386Z" fill="#0D4BA0"/>
<path d="M133.814 79.2689C134.011 79.8362 134.29 80.3533 134.65 80.8204C135.008 81.2874 135.423 81.6858 135.897 82.0156C136.37 82.3455 136.888 82.5988 137.454 82.7729C138.019 82.9497 138.613 83.0368 139.239 83.0368C140.812 83.0368 142.048 82.6225 142.947 81.7966C143.252 81.5829 143.55 81.4246 143.842 81.327C144.131 81.2267 144.407 81.1766 144.665 81.1766C145.091 81.1766 145.475 81.2874 145.809 81.509C146.145 81.7307 146.419 82.0183 146.632 82.3719C146.784 82.6172 146.895 82.8811 146.963 83.1634C147.032 83.4458 147.047 83.7334 147.011 84.0236C146.971 84.3139 146.882 84.6015 146.734 84.8864C146.59 85.1688 146.371 85.4274 146.082 85.6569C145.746 85.963 145.364 86.2585 144.938 86.5409C144.509 86.8232 144.018 87.0738 143.46 87.2876C142.903 87.5013 142.277 87.6754 141.582 87.8047C140.888 87.934 140.104 88 139.237 88C137.724 88 136.307 87.7124 134.979 87.1398C133.651 86.5646 132.491 85.7809 131.499 84.7862C130.508 83.7914 129.722 82.6304 129.14 81.3059C128.559 79.9813 128.27 78.5617 128.27 77.0445C128.27 75.5273 128.559 74.1051 129.14 72.7726C129.722 71.4401 130.505 70.2791 131.499 69.2923C132.491 68.3055 133.651 67.5244 134.979 66.9492C136.307 66.374 137.727 66.0891 139.237 66.0891C140.746 66.0891 142.14 66.3714 143.46 66.9387C144.78 67.506 145.94 68.2765 146.94 69.2475C147.939 70.2211 148.733 71.3636 149.32 72.6829C149.906 73.9996 150.208 75.4086 150.224 76.91C150.224 77.6145 149.998 78.1844 149.548 78.6224C149.099 79.0578 148.507 79.2768 147.773 79.2768H133.806L133.814 79.2689ZM145.125 75.1342C144.957 74.5062 144.694 73.9389 144.336 73.4349C143.978 72.9283 143.547 72.5008 143.042 72.1473C142.537 71.7963 141.974 71.5272 141.348 71.3425C140.722 71.1578 140.06 71.0681 139.358 71.0681C138.655 71.0681 137.995 71.1631 137.377 71.3557C136.759 71.5483 136.202 71.8227 135.705 72.1816C135.208 72.5404 134.784 72.9705 134.434 73.4692C134.082 73.9679 133.824 74.522 133.656 75.1342H145.125Z" fill="#0D4BA0"/>
<path d="M163.516 0C145.577 0 131.034 14.5915 131.034 32.5894C131.034 42.777 135.694 51.8749 142.995 57.8487V32.1065C142.995 21.4888 151.055 12.7471 161.354 11.66C161.43 11.6521 161.504 11.66 161.572 11.6732C163.071 11.536 164.41 11.5703 165.501 11.6653C165.556 11.6573 165.614 11.6547 165.672 11.6653C166.167 11.718 166.656 11.7893 167.14 11.8763C167.981 12.0188 168.462 12.1613 168.462 12.1613C175.603 13.9424 181.267 19.4834 183.245 26.5654C185.275 33.4469 182.761 39.1727 182.761 39.1727C179.889 47.0568 172.352 52.7008 163.51 52.7008H155.013L147.771 61.0599C147.771 61.0599 147.75 61.081 147.742 61.0915C152.412 63.7011 157.79 65.1893 163.518 65.1893C181.457 65.1893 196 50.5978 196 32.5999C196 14.602 181.457 0.0079158 163.518 0.0079158V0H163.516Z" fill="#0D4BA0"/>
<path d="M163.521 27.8874C161.201 27.8874 159.313 29.7819 159.313 32.1091C159.313 34.4364 161.201 36.3309 163.521 36.3309C165.84 36.3309 167.731 34.4364 167.731 32.1091C167.731 29.7819 165.84 27.8874 163.521 27.8874Z" fill="#0D4BA0"/>
<path d="M178.459 30.0932C178.453 30.0748 178.448 30.0563 178.446 30.0352C177.643 24.2012 173.514 19.4227 168.044 17.6918L167.997 17.676C167.219 17.4332 166.414 17.2512 165.585 17.1351C165.541 17.1298 165.499 17.1192 165.457 17.106C163.923 16.9108 162.537 16.9873 161.47 17.1298C161.462 17.1298 161.456 17.1298 161.449 17.1351C154.111 18.1483 148.441 24.473 148.441 32.1091V51.9567L151.721 48.1729C152.239 47.5766 152.988 47.2336 153.777 47.2336H163.516C169.733 47.2336 175.077 43.4393 177.378 38.0381C177.444 37.885 177.504 37.7346 177.562 37.5816C177.57 37.5605 177.58 37.5367 177.588 37.5156C177.641 37.3811 177.688 37.2465 177.735 37.1119C177.756 37.0565 177.775 36.9985 177.793 36.9404C177.822 36.8507 177.851 36.761 177.88 36.6739C177.906 36.5895 177.933 36.505 177.956 36.4206C177.983 36.3283 178.009 36.2385 178.035 36.1488C178.054 36.0855 178.069 36.0222 178.085 35.9615C178.109 35.8691 178.133 35.7794 178.154 35.6871L178.185 35.5525C178.217 35.4153 178.246 35.2781 178.275 35.1435C178.28 35.1119 178.288 35.0802 178.293 35.0512C178.317 34.9245 178.34 34.7979 178.364 34.6739C178.364 34.6607 178.369 34.6448 178.372 34.6316C178.669 32.8559 178.606 31.278 178.453 30.0932H178.459ZM163.518 41.7928H156.589C155.084 41.7928 153.867 40.5711 153.867 39.0618V32.1091C153.867 26.7712 158.195 22.4255 163.518 22.4255C168.841 22.4255 173.173 26.7686 173.173 32.1091C173.173 37.4497 168.844 41.7928 163.518 41.7928Z" fill="#0D4BA0"/>
</g>
<defs>
<clipPath id="clip0_6_2446">
<rect width="196" height="88" fill="white"/>
</clipPath>
</defs>
</svg>
