<svg width="129" height="57" viewBox="0 0 129 57" fill="none" xmlns="http://www.w3.org/2000/svg">
<path d="M7.15897 37.7744C8.16289 37.7744 9.10277 37.9607 9.97687 38.3316C10.851 38.7042 11.6143 39.2101 12.2668 39.8493C12.9194 40.4885 13.4352 41.2439 13.8108 42.1104C14.1881 42.9786 14.3751 43.9032 14.3751 44.886C14.3751 45.8687 14.1864 46.7865 13.8108 47.6393C13.4335 48.4921 12.9194 49.239 12.2668 49.8782C11.6143 50.5174 10.8475 51.0216 9.96821 51.3891C9.08892 51.7565 8.14731 51.9394 7.1434 51.9394H3.26966V55.2277C3.26966 55.4464 3.22638 55.655 3.14157 55.8532C3.05676 56.0515 2.93733 56.2207 2.78674 56.3591C2.63615 56.4975 2.46306 56.6103 2.26747 56.6941C2.07188 56.7778 1.85725 56.8206 1.62704 56.8206C1.39683 56.8206 1.19432 56.7778 0.993533 56.6941C0.792749 56.6103 0.61966 56.4975 0.474265 56.3591C0.32887 56.2207 0.2129 56.0515 0.128086 55.8532C0.0432723 55.655 0 55.4464 0 55.2277V39.3946C0 39.1673 0.0432723 38.9537 0.128086 38.7554C0.2129 38.5572 0.32887 38.3863 0.474265 38.2427C0.61966 38.0991 0.792749 37.9846 0.993533 37.9009C1.19432 37.8171 1.40549 37.7744 1.62704 37.7744H7.15897ZM3.27139 41.0029V48.7109H7.20398C7.74575 48.7109 8.25636 48.6067 8.73409 48.3981C9.21181 48.1896 9.6255 47.9093 9.97687 47.5573C10.3282 47.2052 10.6052 46.7984 10.806 46.337C11.0067 45.8755 11.1071 45.3918 11.1071 44.886C11.1071 44.3801 11.0033 43.8947 10.799 43.4281C10.5931 42.9615 10.3144 42.5479 9.96302 42.1856C9.61165 41.8233 9.1997 41.5361 8.72716 41.3225C8.25463 41.1089 7.74748 41.0029 7.20571 41.0029H3.27139Z" fill="#FFCB05"/>
<path d="M15.4638 49.9021C15.4638 48.9193 15.6542 47.9998 16.0368 47.1419C16.4193 46.2839 16.9351 45.5319 17.5894 44.8876C18.2419 44.2433 19.0035 43.7339 19.8724 43.3631C20.7413 42.9905 21.6673 42.8059 22.6522 42.8059C23.6371 42.8059 24.5804 42.9922 25.4545 43.3631C26.3286 43.7357 27.0902 44.2433 27.7376 44.8876C28.3849 45.5319 28.8956 46.2839 29.2677 47.1419C29.6398 47.9998 29.825 48.9193 29.825 49.9021V55.1695C29.825 55.3985 29.7818 55.6104 29.697 55.8087C29.6121 56.007 29.4927 56.1813 29.3421 56.33C29.1915 56.4787 29.0133 56.5983 28.8073 56.6872C28.6013 56.776 28.3832 56.8205 28.1513 56.8205C27.7601 56.8205 27.4278 56.706 27.156 56.4787C26.8843 56.2513 26.7042 55.9625 26.6142 55.6156C26.0413 56.0428 25.4217 56.3795 24.7535 56.6273C24.0854 56.8752 23.3844 56.9999 22.6505 56.9999C21.6656 56.9999 20.7396 56.8136 19.8707 56.4428C19.0018 56.0702 18.2402 55.5626 17.5876 54.9183C16.9351 54.2739 16.4175 53.5202 16.035 52.6571C15.6525 51.794 15.4621 50.8762 15.4621 49.9038L15.4638 49.9021ZM18.7335 49.9021C18.7335 50.4285 18.8356 50.9258 19.0433 51.3975C19.2493 51.8692 19.5297 52.2811 19.888 52.6332C20.2446 52.9853 20.6582 53.2639 21.1308 53.4672C21.6033 53.6706 22.1105 53.7715 22.6522 53.7715C23.194 53.7715 23.7046 53.6706 24.1823 53.4672C24.6601 53.2639 25.0737 52.987 25.4251 52.6332C25.7765 52.2811 26.0534 51.8692 26.2542 51.3975C26.455 50.9258 26.5554 50.4285 26.5554 49.9021C26.5554 49.3757 26.455 48.8629 26.2542 48.3912C26.0534 47.9195 25.7765 47.511 25.4251 47.1641C25.0737 46.8171 24.6583 46.542 24.1823 46.3386C23.7046 46.1352 23.1957 46.0344 22.6522 46.0344C22.1087 46.0344 21.6154 46.1369 21.1377 46.3386C20.66 46.542 20.2428 46.8171 19.8863 47.1641C19.5297 47.511 19.2476 47.9212 19.0416 48.3912C18.8356 48.8629 18.7318 49.3654 18.7318 49.9021H18.7335Z" fill="#FFCB05"/>
<path d="M39.7863 49.2612L44.413 54.127C44.5636 54.2757 44.6761 54.4501 44.7522 54.6483C44.8266 54.8466 44.8647 55.0499 44.8647 55.2585C44.8647 55.467 44.8249 55.6704 44.7436 55.8686C44.6622 56.0669 44.5376 56.2463 44.3662 56.4035C44.0443 56.7009 43.6687 56.8496 43.236 56.8496C43.0248 56.8496 42.8188 56.8069 42.618 56.7232C42.4172 56.6394 42.2407 56.5129 42.0901 56.3437L37.5084 51.3891L36.1826 52.6384V55.2431C36.1826 55.4618 36.1393 55.6669 36.0545 55.8601C35.9697 56.0532 35.8537 56.219 35.7083 56.3591C35.5629 56.4976 35.395 56.6104 35.2029 56.6941C35.0125 56.7778 34.8065 56.8206 34.585 56.8206C34.3634 56.8206 34.1522 56.7778 33.9514 56.6941C33.7507 56.6104 33.5741 56.4976 33.4235 56.3591C33.2729 56.2207 33.1518 56.0549 33.0618 55.8601C32.9718 55.6669 32.9268 55.4601 32.9268 55.2431V39.2169C32.9268 38.9981 32.9718 38.793 33.0618 38.5999C33.1518 38.4068 33.2729 38.241 33.4235 38.1009C33.5741 37.9624 33.7507 37.8496 33.9514 37.7659C34.1522 37.6821 34.3634 37.6394 34.585 37.6394C34.8065 37.6394 35.0298 37.6821 35.2254 37.7659C35.421 37.8496 35.5889 37.9624 35.7308 38.1009C35.871 38.2393 35.9852 38.4051 36.0701 38.5999C36.1549 38.793 36.1981 38.9998 36.1981 39.2169V48.3982L41.3372 43.4281C41.4878 43.2794 41.6539 43.17 41.8339 43.1C42.0157 43.0299 42.2009 42.9957 42.3913 42.9957C42.5921 42.9957 42.7963 43.0384 43.0023 43.1222C43.2083 43.2059 43.3969 43.3375 43.5683 43.517C43.7189 43.6759 43.8348 43.852 43.9145 44.0451C43.9941 44.2382 44.0322 44.4365 44.027 44.6399C44.0218 44.8432 43.9785 45.0415 43.8989 45.2346C43.8193 45.4277 43.6981 45.5987 43.5371 45.7473L39.7846 49.2595L39.7863 49.2612Z" fill="#FFCB05"/>
<path d="M49.5226 51.3445C49.6524 51.712 49.8359 52.047 50.073 52.3495C50.3084 52.652 50.5819 52.9101 50.8934 53.1237C51.205 53.3373 51.546 53.5014 51.9181 53.6142C52.2903 53.7287 52.6814 53.7851 53.0934 53.7851C54.1285 53.7851 54.942 53.5168 55.534 52.9819C55.7347 52.8434 55.9303 52.7409 56.1225 52.6776C56.3129 52.6127 56.4946 52.5802 56.6642 52.5802C56.9446 52.5802 57.1973 52.652 57.4172 52.7956C57.6387 52.9391 57.8187 53.1254 57.9589 53.3544C58.0593 53.5134 58.132 53.6843 58.177 53.8672C58.222 54.05 58.2324 54.2363 58.2082 54.4243C58.1822 54.6123 58.1234 54.7986 58.0264 54.9832C57.9312 55.1661 57.7876 55.3336 57.5972 55.4823C57.3756 55.6805 57.1246 55.8719 56.8442 56.0548C56.5621 56.2377 56.2384 56.4 55.8715 56.5385C55.5045 56.6769 55.0926 56.7897 54.6356 56.8735C54.1787 56.9572 53.6629 56.9999 53.0917 56.9999C52.0964 56.9999 51.1635 56.8136 50.2894 56.4428C49.4152 56.0702 48.6519 55.5626 47.9994 54.9183C47.3468 54.2739 46.8293 53.5219 46.4468 52.664C46.0642 51.806 45.8738 50.8865 45.8738 49.9038C45.8738 48.921 46.0642 47.9998 46.4468 47.1368C46.8293 46.2737 47.3451 45.5217 47.9994 44.8825C48.6519 44.2433 49.4152 43.7374 50.2894 43.3648C51.1635 42.9922 52.0981 42.8076 53.0917 42.8076C54.0852 42.8076 55.0026 42.9905 55.8715 43.3579C56.7404 43.7254 57.5037 44.2245 58.1614 44.8534C58.8192 45.4841 59.3419 46.2241 59.7279 47.0786C60.1139 47.9315 60.313 48.8441 60.3233 49.8166C60.3233 50.2729 60.1745 50.6421 59.8785 50.9258C59.5825 51.2078 59.1931 51.3497 58.7101 51.3497H49.5174L49.5226 51.3445ZM56.9671 48.6664C56.8564 48.2596 56.6833 47.8922 56.4479 47.5657C56.2125 47.2376 55.9286 46.9607 55.5963 46.7317C55.2639 46.5044 54.8935 46.3301 54.4816 46.2104C54.0696 46.0908 53.6334 46.0327 53.1713 46.0327C52.7091 46.0327 52.2747 46.0942 51.8679 46.219C51.4612 46.3437 51.0942 46.5215 50.7671 46.7539C50.4399 46.9864 50.1613 47.2649 49.9311 47.588C49.6991 47.911 49.5295 48.2699 49.4187 48.6664H56.9671Z" fill="#FFCB05"/>
<path d="M65.5714 42.982H70.816C71.0462 42.982 71.2626 43.0247 71.4634 43.1084C71.6641 43.1922 71.8407 43.3101 71.9913 43.4588C72.1419 43.6075 72.2596 43.7818 72.3461 43.9801C72.4309 44.1783 72.4742 44.392 72.4742 44.6193C72.4742 44.8466 72.4309 45.0431 72.3461 45.2363C72.2613 45.4294 72.1419 45.5986 71.9913 45.7421C71.8407 45.8857 71.6641 46.0002 71.4634 46.084C71.2626 46.1677 71.0462 46.2104 70.816 46.2104H65.5714V49.9756C65.5714 50.502 65.6735 50.9942 65.8795 51.4556C66.0855 51.9171 66.3641 52.3187 66.7155 52.6606C67.0669 53.0024 67.4823 53.2724 67.9583 53.4724C68.436 53.6706 68.9449 53.7698 69.4884 53.7698C69.9713 53.7698 70.4179 53.7031 70.8298 53.5681C71.2418 53.4348 71.6243 53.2143 71.9757 52.9067C72.1471 52.7477 72.3375 52.6161 72.5486 52.5119C72.7598 52.4076 72.9813 52.3563 73.2116 52.3563C73.5837 52.3563 73.9195 52.4897 74.2207 52.758C74.4024 52.9169 74.5305 53.1049 74.6049 53.3237C74.6794 53.5425 74.7105 53.7681 74.6949 54.0005C74.6794 54.2329 74.6222 54.4602 74.5218 54.6773C74.4215 54.8961 74.2813 55.0892 74.0995 55.2584C73.4972 55.8343 72.8031 56.2685 72.019 56.5607C71.2349 56.853 70.3919 57 69.4867 57C68.4914 57 67.5602 56.8171 66.6913 56.4496C65.8224 56.0822 65.0608 55.5814 64.4082 54.9473C63.7557 54.3133 63.2399 53.5664 62.8625 52.7084C62.4852 51.8504 62.2983 50.931 62.2983 49.9482V40.3944C62.2983 40.1671 62.3433 39.9534 62.4333 39.7552C62.5233 39.5569 62.6445 39.3826 62.795 39.2339C62.9456 39.0852 63.1222 38.969 63.323 38.8836C63.5237 38.7998 63.7349 38.7571 63.9565 38.7571C64.178 38.7571 64.3857 38.7998 64.5813 38.8836C64.7769 38.9673 64.9483 39.0852 65.0937 39.2339C65.2391 39.3826 65.355 39.5569 65.4398 39.7552C65.5247 39.9534 65.5679 40.1671 65.5679 40.3944V42.9837H65.5714V42.982Z" fill="#FFCB05"/>
<path d="M81.622 53.5921C81.8539 53.5921 82.0685 53.6365 82.2693 53.7254C82.4701 53.8143 82.6415 53.9356 82.7817 54.0894C82.9219 54.2433 83.0326 54.4193 83.114 54.6175C83.1936 54.8158 83.2352 55.0243 83.2352 55.2431C83.2352 55.6994 83.0846 56.0771 82.7834 56.3745C82.4822 56.6719 82.0945 56.8206 81.6237 56.8206C80.94 56.8206 80.2996 56.7061 79.7024 56.4787C79.1052 56.2514 78.579 55.9335 78.1273 55.5268C77.6755 55.12 77.319 54.6295 77.0576 54.0535C76.7962 53.4776 76.656 52.8435 76.6353 52.1496V39.263C76.6353 39.0357 76.6785 38.8221 76.7633 38.6238C76.8482 38.4256 76.9624 38.2547 77.1026 38.1111C77.2428 37.9676 77.409 37.853 77.5994 37.7693C77.7898 37.6856 77.9957 37.6428 78.2173 37.6428C78.4388 37.6428 78.6639 37.6856 78.8646 37.7693C79.0654 37.853 79.2437 37.9676 79.3995 38.1111C79.5553 38.2547 79.6782 38.4256 79.7682 38.6238C79.8582 38.8221 79.9032 39.0357 79.9032 39.263V52.0454C79.9032 52.5615 80.0642 52.9478 80.3861 53.2058C80.708 53.4639 81.12 53.5921 81.622 53.5921Z" fill="#FFCB05"/>
<path d="M88.0713 51.3445C88.2011 51.712 88.3846 52.047 88.6217 52.3495C88.8571 52.652 89.1306 52.9101 89.4421 53.1237C89.7537 53.3373 90.0947 53.5014 90.4668 53.6142C90.839 53.7287 91.2302 53.7851 91.6421 53.7851C92.6772 53.7851 93.4907 53.5168 94.0827 52.9819C94.2834 52.8434 94.479 52.7409 94.6712 52.6776C94.8616 52.6127 95.0433 52.5802 95.2129 52.5802C95.4933 52.5802 95.7461 52.652 95.9659 52.7956C96.1874 52.9391 96.3674 53.1254 96.5076 53.3544C96.608 53.5134 96.6807 53.6843 96.7257 53.8672C96.7707 54.05 96.7811 54.2363 96.7569 54.4243C96.7309 54.6123 96.6721 54.7986 96.5752 54.9832C96.48 55.1661 96.3363 55.3336 96.1459 55.4823C95.9243 55.6805 95.6734 55.8719 95.3929 56.0548C95.1108 56.2377 94.7871 56.4 94.4202 56.5385C94.0532 56.6769 93.6413 56.7897 93.1843 56.8735C92.7274 56.9572 92.2116 56.9999 91.6404 56.9999C90.6451 56.9999 89.7122 56.8136 88.8381 56.4428C87.964 56.0702 87.2006 55.5626 86.5481 54.9183C85.8955 54.2739 85.378 53.5219 84.9955 52.664C84.6129 51.806 84.4225 50.8865 84.4225 49.9038C84.4225 48.921 84.6129 47.9998 84.9955 47.1368C85.378 46.2737 85.8938 45.5217 86.5481 44.8825C87.2006 44.2433 87.964 43.7374 88.8381 43.3648C89.7122 42.9922 90.6468 42.8076 91.6404 42.8076C92.6339 42.8076 93.5513 42.9905 94.4202 43.3579C95.2891 43.7254 96.0524 44.2245 96.7102 44.8534C97.3679 45.4841 97.8906 46.2241 98.2766 47.0786C98.6626 47.9315 98.8617 48.8441 98.872 49.8166C98.872 50.2729 98.7232 50.6421 98.4272 50.9258C98.1312 51.2078 97.7418 51.3497 97.2589 51.3497H88.0661L88.0713 51.3445ZM95.5158 48.6664C95.4051 48.2596 95.232 47.8922 94.9966 47.5657C94.7612 47.2376 94.4773 46.9607 94.145 46.7317C93.8126 46.5044 93.4422 46.3301 93.0303 46.2104C92.6183 46.0908 92.1821 46.0327 91.72 46.0327C91.2578 46.0327 90.8234 46.0942 90.4166 46.219C90.0099 46.3437 89.6429 46.5215 89.3158 46.7539C88.9886 46.9864 88.71 47.2649 88.4798 47.588C88.2478 47.911 88.0782 48.2699 87.9674 48.6664H95.5158Z" fill="#FFCB05"/>
<path d="M107.62 0C95.8136 0 86.2418 9.45129 86.2418 21.109C86.2418 27.7078 89.3089 33.6008 94.1139 37.4702V20.7963C94.1139 13.9189 99.419 8.25663 106.197 7.55249C106.247 7.54736 106.296 7.55249 106.341 7.56103C107.327 7.47216 108.209 7.49438 108.927 7.55591C108.963 7.55078 109.001 7.54907 109.039 7.55591C109.365 7.59009 109.687 7.63623 110.005 7.69263C110.559 7.78492 110.876 7.87722 110.876 7.87722C115.575 9.03085 119.304 12.62 120.605 17.2072C121.941 21.6645 120.287 25.3732 120.287 25.3732C118.397 30.48 113.436 34.1357 107.617 34.1357H102.024L97.2572 39.5501C97.2572 39.5501 97.2433 39.5638 97.2381 39.5707C100.312 41.261 103.852 42.2249 107.622 42.2249C119.428 42.2249 129 32.7736 129 21.1159C129 9.45813 119.428 0.00512728 107.622 0.00512728V0H107.62Z" fill="#FFCB05"/>
<path d="M107.623 18.0635C106.097 18.0635 104.854 19.2906 104.854 20.798C104.854 22.3054 106.097 23.5326 107.623 23.5326C109.15 23.5326 110.395 22.3054 110.395 20.798C110.395 19.2906 109.15 18.0635 107.623 18.0635Z" fill="#FFCB05"/>
<path d="M117.455 19.4922C117.452 19.4802 117.448 19.4682 117.446 19.4546C116.918 15.6758 114.201 12.5806 110.601 11.4594L110.569 11.4492C110.057 11.2919 109.527 11.174 108.982 11.0988C108.953 11.0954 108.925 11.0886 108.897 11.08C107.888 10.9535 106.976 11.0031 106.273 11.0954C106.268 11.0954 106.265 11.0954 106.26 11.0988C101.43 11.7551 97.6985 15.8518 97.6985 20.7979V33.6537L99.857 31.2029C100.198 30.8166 100.691 30.5944 101.211 30.5944H107.62C111.712 30.5944 115.229 28.1368 116.744 24.6383C116.787 24.5391 116.827 24.4417 116.865 24.3426C116.87 24.3289 116.877 24.3135 116.882 24.2999C116.917 24.2127 116.948 24.1255 116.979 24.0384C116.993 24.0025 117.005 23.9649 117.017 23.9273C117.036 23.8692 117.055 23.8111 117.074 23.7547C117.091 23.7 117.109 23.6453 117.124 23.5906C117.142 23.5308 117.159 23.4726 117.176 23.4145C117.188 23.3735 117.199 23.3325 117.209 23.2932C117.225 23.2334 117.24 23.1753 117.254 23.1154L117.275 23.0283C117.296 22.9394 117.315 22.8505 117.334 22.7634C117.337 22.7429 117.342 22.7224 117.346 22.7036C117.361 22.6215 117.377 22.5395 117.393 22.4592C117.393 22.4506 117.396 22.4404 117.398 22.4318C117.593 21.2816 117.552 20.2596 117.452 19.4922H117.455ZM107.622 27.0703H103.061C102.071 27.0703 101.269 26.279 101.269 25.3014V20.7979C101.269 17.3404 104.118 14.5255 107.622 14.5255C111.125 14.5255 113.976 17.3387 113.976 20.7979C113.976 24.2571 111.127 27.0703 107.622 27.0703Z" fill="#FFCB05"/>
</svg>
