<svg width="24" height="24" viewBox="0 0 24 24" fill="none" xmlns="http://www.w3.org/2000/svg">
<path d="M21.0002 20H6.2002C5.08009 20 4.51962 20 4.0918 19.782C3.71547 19.5902 3.40973 19.2844 3.21799 18.908C3 18.4802 3 17.9201 3 16.8V5M21 7L15.1543 12.115C14.4542 12.7275 14.1041 13.0339 13.7207 13.161C13.2685 13.311 12.7775 13.2946 12.3363 13.1149C11.9623 12.9625 11.6336 12.6337 10.9758 11.9759C10.3323 11.3324 10.0105 11.0106 9.64355 10.8584C9.21071 10.6788 8.72875 10.6569 8.28142 10.7965C7.90221 10.9149 7.55252 11.2062 6.8534 11.7888L3 15" stroke="white" stroke-width="1.5" stroke-linecap="round" stroke-linejoin="round"/>
</svg>
