<svg width="20" height="21" viewBox="0 0 20 21" fill="none" xmlns="http://www.w3.org/2000/svg">
<path d="M7.197 10.3741C6.9041 10.0812 6.42923 10.0812 6.13634 10.3741C5.84344 10.667 5.84344 11.1419 6.13634 11.4348L7.197 10.3741ZM10.2022 14.44L9.67187 14.9703C9.81253 15.111 10.0033 15.19 10.2022 15.19C10.4011 15.19 10.5919 15.111 10.7325 14.9703L10.2022 14.44ZM17.8032 7.89921C18.0961 7.60631 18.0961 7.13144 17.8032 6.83855C17.5103 6.54567 17.0354 6.54568 16.7425 6.83858L17.8032 7.89921ZM3.03033 10.3741C2.73744 10.0812 2.26256 10.0812 1.96967 10.3741C1.67678 10.667 1.67678 11.1419 1.96967 11.4348L3.03033 10.3741ZM5.5052 14.9703C5.7981 15.2632 6.27297 15.2632 6.56586 14.9703C6.85876 14.6774 6.85876 14.2026 6.56586 13.9097L5.5052 14.9703ZM13.6393 7.89681C13.9309 7.60259 13.9287 7.12772 13.6345 6.83616C13.3403 6.5446 12.8654 6.54676 12.5739 6.84098L13.6393 7.89681ZM9.88393 9.55549C9.59237 9.84971 9.59453 10.3246 9.88875 10.6161C10.183 10.9077 10.6578 10.9055 10.9494 10.6113L9.88393 9.55549ZM6.13634 11.4348L9.67187 14.9703L10.7325 13.9097L7.197 10.3741L6.13634 11.4348ZM10.7325 14.9703L17.8032 7.89921L16.7425 6.83858L9.67185 13.9097L10.7325 14.9703ZM1.96967 11.4348L5.5052 14.9703L6.56586 13.9097L3.03033 10.3741L1.96967 11.4348ZM12.5739 6.84098L9.88393 9.55549L10.9494 10.6113L13.6393 7.89681L12.5739 6.84098Z" fill="white"/>
</svg>
