<svg width="20" height="20" viewBox="0 0 20 20" fill="none" xmlns="http://www.w3.org/2000/svg">
<path d="M9.46965 11.9697C9.17676 12.2626 9.17676 12.7375 9.46965 13.0304C9.76254 13.3233 10.2374 13.3233 10.5303 13.0304L9.46965 11.9697ZM12.5 10L13.0303 10.5304C13.3232 10.2375 13.3232 9.7626 13.0303 9.46971L12.5 10ZM10.5303 6.96971C10.2374 6.67682 9.76254 6.67682 9.46965 6.96971C9.17676 7.2626 9.17676 7.73748 9.46965 8.03037L10.5303 6.96971ZM3.33331 9.25004C2.9191 9.25004 2.58331 9.58583 2.58331 10C2.58331 10.4143 2.9191 10.75 3.33331 10.75L3.33331 9.25004ZM8.52863 16.5399L8.24161 17.2328L8.52863 16.5399ZM8.24998 14.1667C8.24998 13.7525 7.91419 13.4167 7.49998 13.4167C7.08577 13.4167 6.74998 13.7525 6.74998 14.1667H8.24998ZM7.62685 15.6378L6.93394 15.9249H6.93394L7.62685 15.6378ZM16.4852 15.7567L15.8169 15.4162L16.4852 15.7567ZM15.7565 16.485L15.416 15.8168L15.7565 16.485ZM15.7565 3.51503L16.097 2.84677L15.7565 3.51503ZM16.4852 4.24341L15.8169 4.5839L16.4852 4.24341ZM6.74998 5.83336C6.74998 6.24758 7.08577 6.58336 7.49998 6.58336C7.91419 6.58336 8.24998 6.24758 8.24998 5.83336H6.74998ZM10.5303 13.0304L13.0303 10.5304L11.9696 9.46971L9.46965 11.9697L10.5303 13.0304ZM13.0303 9.46971L10.5303 6.96971L9.46965 8.03037L11.9696 10.5304L13.0303 9.46971ZM12.5 9.25004L3.33331 9.25004L3.33331 10.75L12.5 10.75L12.5 9.25004ZM9.99998 4.08337H14V2.58337H9.99998V4.08337ZM15.9166 6V14H17.4166V6H15.9166ZM14 15.9167H9.99998V17.4167H14V15.9167ZM9.99998 15.9167C9.60143 15.9167 9.34002 15.9163 9.13898 15.9026C8.94464 15.8893 8.86212 15.8662 8.81564 15.8469L8.24161 17.2328C8.50141 17.3404 8.76629 17.3807 9.03692 17.3991C9.30084 17.4171 9.62196 17.4167 9.99998 17.4167V15.9167ZM6.74998 14.1667C6.74998 14.5447 6.74957 14.8658 6.76758 15.1297C6.78604 15.4003 6.82634 15.6651 6.93394 15.9249L8.31976 15.3508C8.30049 15.3043 8.27735 15.2218 8.2641 15.0276C8.25039 14.8266 8.24998 14.5653 8.24998 14.1667H6.74998ZM8.81564 15.8469C8.59122 15.754 8.41287 15.5756 8.31976 15.3508L6.93394 15.9249C7.17914 16.5168 7.64927 16.9874 8.24161 17.2328L8.81564 15.8469ZM15.9166 14C15.9166 14.4792 15.9161 14.7934 15.8965 15.0338C15.8776 15.2654 15.8448 15.3614 15.8169 15.4162L17.1534 16.0972C17.3071 15.7955 17.3651 15.4799 17.3915 15.1557C17.4173 14.8401 17.4166 14.4543 17.4166 14H15.9166ZM14 17.4167C14.4543 17.4167 14.8401 17.4173 15.1557 17.3915C15.48 17.365 15.7954 17.3069 16.097 17.1533L15.416 15.8168C15.361 15.8448 15.2649 15.8776 15.0335 15.8965C14.7932 15.9161 14.4791 15.9167 14 15.9167V17.4167ZM15.8169 15.4162C15.7292 15.5883 15.5888 15.7287 15.416 15.8168L16.097 17.1533C16.5513 16.9218 16.9215 16.5523 17.1534 16.0972L15.8169 15.4162ZM14 4.08337C14.4791 4.08337 14.7932 4.08396 15.0335 4.10359C15.2649 4.1225 15.361 4.1553 15.416 4.18328L16.097 2.84677C15.7954 2.69311 15.4799 2.63507 15.1556 2.60857C14.8401 2.58279 14.4543 2.58337 14 2.58337V4.08337ZM17.4166 6C17.4166 5.54574 17.4173 5.15989 17.3915 4.84441C17.3651 4.52015 17.3071 4.2046 17.1534 3.90292L15.8169 4.5839C15.8449 4.63873 15.8776 4.73477 15.8965 4.96632C15.9161 5.20665 15.9166 5.52084 15.9166 6H17.4166ZM15.416 4.18328C15.5888 4.27133 15.7292 4.41173 15.8169 4.5839L17.1534 3.90292C16.9216 3.44788 16.5514 3.07831 16.097 2.84677L15.416 4.18328ZM8.24998 5.83336C8.24998 5.43482 8.25039 5.17347 8.2641 4.97249C8.27735 4.77825 8.30049 4.69576 8.31976 4.64924L6.93394 4.07521C6.82634 4.33497 6.78604 4.59977 6.76758 4.87038C6.74957 5.13426 6.74998 5.45534 6.74998 5.83336H8.24998ZM9.99998 2.58337C9.62195 2.58337 9.30083 2.58297 9.0369 2.60097C8.76627 2.61943 8.5014 2.65972 8.24161 2.76733L8.81564 4.15315C8.86213 4.13389 8.94465 4.11075 9.13899 4.09749C9.34003 4.08378 9.60144 4.08337 9.99998 4.08337V2.58337ZM8.31976 4.64924C8.41286 4.42446 8.59119 4.24612 8.81564 4.15315L8.24161 2.76733C7.6493 3.01268 7.17915 3.48323 6.93394 4.07521L8.31976 4.64924Z" fill="white"/>
</svg>
