<svg width="25" height="25" viewBox="0 0 25 25" fill="none" xmlns="http://www.w3.org/2000/svg">
<path d="M3.16675 2.75C2.75253 2.75 2.41675 3.08579 2.41675 3.5C2.41675 3.91421 2.75253 4.25 3.16675 4.25V2.75ZM5.43823 4.76477L6.17158 4.60762L5.43823 4.76477ZM7.89619 16.2353L7.16284 16.3924L7.89619 16.2353ZM8.16024 17.0802L7.5494 17.5154H7.5494L8.16024 17.0802ZM8.57886 17.418L8.87638 16.7295L8.57886 17.418ZM4.75454 3.58205L5.05206 2.89358H5.05206L4.75454 3.58205ZM5.17261 3.9198L5.78345 3.48463V3.48463L5.17261 3.9198ZM6.16675 5.75C5.75253 5.75 5.41675 6.08579 5.41675 6.5C5.41675 6.91421 5.75253 7.25 6.16675 7.25V5.75ZM20.5777 8.54346L21.2983 8.75133L20.5777 8.54346ZM19.1931 13.3435L18.4725 13.1356L19.1931 13.3435ZM7.89722 13.75C7.483 13.75 7.14722 14.0858 7.14722 14.5C7.14722 14.9142 7.483 15.25 7.89722 15.25V13.75ZM18.8923 14.1193L19.4812 14.5838H19.4812L18.8923 14.1193ZM18.4838 14.426L18.7669 15.1206L18.4838 14.426ZM20.3647 6.65036L19.9692 7.28759L20.3647 6.65036ZM20.7996 7.22876L21.5215 7.02535L20.7996 7.22876ZM17.1667 20.75C16.4764 20.75 15.9167 20.1904 15.9167 19.5H14.4167C14.4167 21.0188 15.648 22.25 17.1667 22.25V20.75ZM15.9167 19.5C15.9167 18.8096 16.4764 18.25 17.1667 18.25V16.75C15.648 16.75 14.4167 17.9812 14.4167 19.5H15.9167ZM17.1667 18.25C17.8571 18.25 18.4167 18.8096 18.4167 19.5H19.9167C19.9167 17.9812 18.6855 16.75 17.1667 16.75V18.25ZM18.4167 19.5C18.4167 20.1904 17.8571 20.75 17.1667 20.75V22.25C18.6855 22.25 19.9167 21.0188 19.9167 19.5H18.4167ZM8.16675 20.75C7.47639 20.75 6.91675 20.1904 6.91675 19.5H5.41675C5.41675 21.0188 6.64796 22.25 8.16675 22.25V20.75ZM6.91675 19.5C6.91675 18.8096 7.47639 18.25 8.16675 18.25V16.75C6.64796 16.75 5.41675 17.9812 5.41675 19.5H6.91675ZM8.16675 18.25C8.8571 18.25 9.41675 18.8096 9.41675 19.5H10.9167C10.9167 17.9812 9.68553 16.75 8.16675 16.75V18.25ZM9.41675 19.5C9.41675 20.1904 8.8571 20.75 8.16675 20.75V22.25C9.68553 22.25 10.9167 21.0188 10.9167 19.5H9.41675ZM3.16675 4.25H3.87328V2.75H3.16675V4.25ZM4.70488 4.92192L7.16284 16.3924L8.62955 16.0781L6.17158 4.60762L4.70488 4.92192ZM9.46069 18.25H17.1667V16.75H9.46069V18.25ZM7.16284 16.3924C7.20871 16.6064 7.25102 16.8072 7.29932 16.9732C7.35031 17.1485 7.4214 17.3357 7.5494 17.5154L8.77108 16.645C8.77907 16.6563 8.76646 16.6465 8.7396 16.5542C8.71004 16.4526 8.68033 16.3151 8.62955 16.0781L7.16284 16.3924ZM9.46069 16.75C9.2191 16.75 9.07828 16.7495 8.97314 16.7418C8.87742 16.7347 8.86452 16.7244 8.87638 16.7295L8.28134 18.1064C8.48305 18.1936 8.68045 18.2243 8.86287 18.2377C9.03587 18.2505 9.24103 18.25 9.46069 18.25V16.75ZM7.5494 17.5154C7.73547 17.7766 7.98964 17.9804 8.28134 18.1064L8.87638 16.7295C8.83317 16.7108 8.7967 16.681 8.77108 16.645L7.5494 17.5154ZM3.87328 4.25C4.11488 4.25 4.25552 4.25047 4.36047 4.25822C4.45587 4.26526 4.46873 4.27557 4.45703 4.27051L5.05206 2.89358C4.8505 2.80648 4.65335 2.77576 4.4709 2.76229C4.298 2.74953 4.09294 2.75 3.87328 2.75V4.25ZM6.17158 4.60762C6.12544 4.39229 6.08277 4.19165 6.03375 4.02485C5.9821 3.84909 5.91056 3.66305 5.78345 3.48463L4.56176 4.35497C4.55467 4.345 4.56762 4.35594 4.59461 4.4478C4.62424 4.54862 4.65438 4.68624 4.70488 4.92192L6.17158 4.60762ZM4.45703 4.27051C4.49933 4.2888 4.53558 4.31822 4.56176 4.35497L5.78345 3.48463C5.59794 3.22424 5.34466 3.02003 5.05206 2.89358L4.45703 4.27051ZM6.16675 7.25H19.04V5.75H6.16675V7.25ZM19.8571 8.33559L18.4725 13.1356L19.9137 13.5513L21.2983 8.75133L19.8571 8.33559ZM17.6551 13.75H7.89722V15.25H17.6551V13.75ZM18.4725 13.1356C18.4098 13.3529 18.3731 13.4787 18.3392 13.5709C18.3086 13.6544 18.2964 13.6638 18.3035 13.6549L19.4812 14.5838C19.7157 14.2865 19.8127 13.9017 19.9137 13.5513L18.4725 13.1356ZM17.6551 15.25C18.0197 15.25 18.4162 15.2635 18.7669 15.1206L18.2008 13.7315C18.2113 13.7272 18.1988 13.7363 18.1102 13.7426C18.0123 13.7496 17.8813 13.75 17.6551 13.75V15.25ZM18.3035 13.6549C18.2776 13.6876 18.2422 13.7146 18.2008 13.7315L18.7669 15.1206C19.0457 15.0069 19.2928 14.8226 19.4812 14.5838L18.3035 13.6549ZM19.04 7.25C19.4148 7.25 19.646 7.2507 19.8155 7.26583C19.9802 7.28052 19.9941 7.30309 19.9692 7.28759L20.7602 6.01313C20.493 5.84727 20.2055 5.79466 19.9488 5.77176C19.697 5.7493 19.3869 5.75 19.04 5.75V7.25ZM21.2983 8.75133C21.3946 8.41756 21.481 8.11981 21.5291 7.87128C21.578 7.61797 21.6067 7.3275 21.5215 7.02535L20.0778 7.43217C20.0699 7.40445 20.0877 7.42458 20.0563 7.58664C20.0241 7.75347 19.9609 7.97586 19.8571 8.33559L21.2983 8.75133ZM19.9692 7.28759C20.0219 7.32034 20.0607 7.37176 20.0778 7.43217L21.5215 7.02535C21.4031 6.60499 21.1318 6.24378 20.7602 6.01313L19.9692 7.28759Z" fill="#212121"/>
</svg>
