<svg width="24" height="24" viewBox="0 0 24 24" fill="none" xmlns="http://www.w3.org/2000/svg">
<path d="M3 2.25C2.58579 2.25 2.25 2.58579 2.25 3C2.25 3.41421 2.58579 3.75 3 3.75V2.25ZM4.8418 4.30957L4.10426 4.44573L4.8418 4.30957ZM7.00004 16L6.2625 16.1362C6.32817 16.4919 6.63834 16.75 7.00004 16.75L7.00004 16ZM4.17246 3.08548L3.86906 3.77137L4.17246 3.08548ZM4.59375 3.43616L3.97434 3.85904H3.97434L4.59375 3.43616ZM5.5 5.25C5.08579 5.25 4.75 5.58579 4.75 6C4.75 6.41421 5.08579 6.75 5.5 6.75V5.25ZM20.5477 7.95972L19.817 7.79107V7.79107L20.5477 7.95972ZM18.9785 14.7597L19.7093 14.9284L18.9785 14.7597ZM17.4195 16V15.25H17.4195L17.4195 16ZM18.7051 15.5891L19.3111 16.031L18.7051 15.5891ZM18.2896 15.9198L17.9953 15.2299L18.2896 15.9198ZM20.256 6.14192L19.8709 6.78548L20.256 6.14192ZM20.6946 6.69263L19.9809 6.92319L20.6946 6.69263ZM18 20.25C17.8619 20.25 17.75 20.1381 17.75 20H16.25C16.25 20.9665 17.0335 21.75 18 21.75V20.25ZM18.25 20C18.25 20.1381 18.1381 20.25 18 20.25V21.75C18.9665 21.75 19.75 20.9665 19.75 20H18.25ZM18 19.75C18.1381 19.75 18.25 19.8619 18.25 20H19.75C19.75 19.0335 18.9665 18.25 18 18.25V19.75ZM18 18.25C17.0335 18.25 16.25 19.0335 16.25 20H17.75C17.75 19.8619 17.8619 19.75 18 19.75V18.25ZM8 20.25C7.86193 20.25 7.75 20.1381 7.75 20H6.25C6.25 20.9665 7.0335 21.75 8 21.75V20.25ZM8.25 20C8.25 20.1381 8.13807 20.25 8 20.25V21.75C8.9665 21.75 9.75 20.9665 9.75 20H8.25ZM8 19.75C8.13807 19.75 8.25 19.8619 8.25 20H9.75C9.75 19.0335 8.9665 18.25 8 18.25V19.75ZM8 18.25C7.0335 18.25 6.25 19.0335 6.25 20H7.75C7.75 19.8619 7.86193 19.75 8 19.75V18.25ZM3 3.75H3.26835V2.25H3V3.75ZM4.10426 4.44573L6.2625 16.1362L7.73758 15.8639L5.57933 4.17341L4.10426 4.44573ZM3.26835 3.75C3.51638 3.75 3.66141 3.75049 3.76959 3.75859C3.86839 3.76599 3.88147 3.77686 3.86906 3.77137L4.47586 2.39959C4.27022 2.30862 4.06812 2.27675 3.88163 2.26278C3.7045 2.24951 3.49409 2.25 3.26835 2.25V3.75ZM5.57933 4.17341C5.53837 3.95152 5.50068 3.74454 5.45554 3.57285C5.40799 3.39203 5.33999 3.19905 5.21316 3.01328L3.97434 3.85904C3.96665 3.84777 3.97967 3.85855 4.00485 3.95432C4.03244 4.05924 4.05921 4.20171 4.10426 4.44573L5.57933 4.17341ZM3.86906 3.77137C3.91156 3.79017 3.94802 3.82049 3.97434 3.85904L5.21316 3.01328C5.0294 2.74411 4.77411 2.53151 4.47586 2.39959L3.86906 3.77137ZM5.5 6.75H18.9887V5.25H5.5V6.75ZM19.817 7.79107L18.2477 14.5911L19.7093 14.9284L21.2785 8.12836L19.817 7.79107ZM17.4195 15.25L7.00004 15.25L7.00004 16.75L17.4195 16.75L17.4195 15.25ZM18.2477 14.5911C18.1941 14.8233 18.1626 14.9581 18.132 15.0574C18.1041 15.1476 18.0915 15.1576 18.0991 15.1473L19.3111 16.031C19.439 15.8555 19.512 15.6722 19.5653 15.4997C19.6157 15.3362 19.6607 15.139 19.7093 14.9284L18.2477 14.5911ZM17.4195 16.75C17.6359 16.75 17.8383 16.7505 18.0091 16.738C18.1893 16.7248 18.3843 16.6948 18.5839 16.6097L17.9953 15.2299C18.0069 15.225 17.9941 15.2351 17.8998 15.242C17.7962 15.2495 17.6575 15.25 17.4195 15.25V16.75ZM18.0991 15.1473C18.0723 15.184 18.0365 15.2124 17.9953 15.2299L18.5839 16.6097C18.8744 16.4857 19.1254 16.2857 19.3111 16.031L18.0991 15.1473ZM18.9887 6.75C19.3459 6.75 19.5646 6.75068 19.7253 6.76484C19.8799 6.77847 19.8939 6.79924 19.8709 6.78548L20.6412 5.49836C20.381 5.34268 20.1049 5.29249 19.8569 5.27064C19.615 5.24931 19.3186 5.25 18.9887 5.25V6.75ZM21.2785 8.12836C21.3527 7.80702 21.4201 7.51827 21.4537 7.27772C21.4882 7.03125 21.5016 6.75071 21.4083 6.46206L19.9809 6.92319C19.9727 6.89753 19.9898 6.9158 19.9682 7.06976C19.9458 7.22965 19.8973 7.44294 19.817 7.79107L21.2785 8.12836ZM19.8709 6.78548C19.9236 6.81704 19.9626 6.86639 19.9809 6.92319L21.4083 6.46206C21.2777 6.05774 21.0042 5.71564 20.6412 5.49836L19.8709 6.78548Z" fill="white"/>
</svg>
