<svg width="21" height="20" viewBox="0 0 21 20" fill="none" xmlns="http://www.w3.org/2000/svg">
<path d="M12.1667 12.5833C11.7525 12.5833 11.4167 12.9191 11.4167 13.3333C11.4167 13.7475 11.7525 14.0833 12.1667 14.0833V12.5833ZM16.3333 13.3333H17.0833C17.0833 12.9191 16.7475 12.5833 16.3333 12.5833V13.3333ZM15.5833 17.5C15.5833 17.9142 15.9191 18.25 16.3333 18.25C16.7475 18.25 17.0833 17.9142 17.0833 17.5H15.5833ZM8.83333 7.41667C9.24755 7.41667 9.58333 7.08088 9.58333 6.66667C9.58333 6.25245 9.24755 5.91667 8.83333 5.91667V7.41667ZM4.66667 6.66667H3.91667C3.91667 7.08088 4.25245 7.41667 4.66667 7.41667V6.66667ZM5.41667 2.5C5.41667 2.08579 5.08088 1.75 4.66667 1.75C4.25245 1.75 3.91667 2.08579 3.91667 2.5H5.41667ZM15.9859 7.78359C16.1411 8.16764 16.5782 8.35319 16.9622 8.19802C17.3463 8.04285 17.5318 7.60573 17.3767 7.22168L15.9859 7.78359ZM14.4233 4.60999L13.982 5.21636H13.982L14.4233 4.60999ZM7.38558 4.10551L7.03521 3.44238V3.44238L7.38558 4.10551ZM4.09008 6.26929C3.88172 6.62728 4.00302 7.0864 4.36102 7.29476C4.71901 7.50312 5.17813 7.38181 5.38649 7.02382L4.09008 6.26929ZM5.01375 12.2164C4.85858 11.8323 4.42146 11.6468 4.0374 11.802C3.65335 11.9571 3.4678 12.3943 3.62297 12.7783L5.01375 12.2164ZM16.9093 13.7307C17.1176 13.3727 16.9963 12.9136 16.6383 12.7053C16.2803 12.4969 15.8212 12.6182 15.6128 12.9762L16.9093 13.7307ZM12.1667 14.0833H16.3333V12.5833H12.1667V14.0833ZM15.5833 13.3333V17.5H17.0833V13.3333H15.5833ZM8.83333 5.91667H4.66667V7.41667H8.83333V5.91667ZM5.41667 6.66667V2.5H3.91667V6.66667H5.41667ZM17.3767 7.22168C16.8569 5.93512 15.9866 4.82019 14.8647 4.00361L13.982 5.21636C14.877 5.8678 15.5712 6.75724 15.9859 7.78359L17.3767 7.22168ZM14.8647 4.00361C13.7428 3.18703 12.4146 2.70155 11.0305 2.60234L10.9233 4.0985C12.0274 4.17765 13.087 4.56492 13.982 5.21636L14.8647 4.00361ZM11.0305 2.60234C9.6465 2.50314 8.26211 2.79414 7.03521 3.44238L7.73595 4.76864C8.71466 4.25153 9.81911 4.01936 10.9233 4.0985L11.0305 2.60234ZM7.03521 3.44238C5.8083 4.09063 4.78804 5.07007 4.09008 6.26929L5.38649 7.02382C5.94333 6.06706 6.75725 5.28574 7.73595 4.76864L7.03521 3.44238ZM3.62297 12.7783C4.14277 14.0649 5.01307 15.1798 6.13494 15.9964L7.01768 14.7836C6.1227 14.1322 5.42842 13.2428 5.01375 12.2164L3.62297 12.7783ZM6.13494 15.9964C7.25685 16.813 8.58567 17.2985 9.96966 17.3977L10.0769 15.9015C8.97274 15.8224 7.91262 15.435 7.01768 14.7836L6.13494 15.9964ZM9.96966 17.3977C11.3537 17.4969 12.7377 17.2058 13.9645 16.5576L13.2638 15.2313C12.285 15.7485 11.181 15.9807 10.0769 15.9015L9.96966 17.3977ZM13.9645 16.5576C15.1915 15.9093 16.2113 14.9299 16.9093 13.7307L15.6128 12.9762C15.0559 13.9331 14.2424 14.7143 13.2638 15.2313L13.9645 16.5576Z" fill="#212121"/>
</svg>
