<svg width="20" height="20" viewBox="0 0 20 20" fill="none" xmlns="http://www.w3.org/2000/svg">
<path d="M15.8333 10.75C16.2475 10.75 16.5833 10.4142 16.5833 10C16.5833 9.58579 16.2475 9.25 15.8333 9.25V10.75ZM4.16663 10L3.6363 9.46967C3.3434 9.76256 3.3434 10.2374 3.6363 10.5303L4.16663 10ZM8.6363 15.5303C8.92919 15.8232 9.40406 15.8232 9.69696 15.5303C9.98985 15.2374 9.98985 14.7626 9.69696 14.4697L8.6363 15.5303ZM9.69696 5.53033C9.98985 5.23744 9.98985 4.76256 9.69696 4.46967C9.40406 4.17678 8.92919 4.17678 8.6363 4.46967L9.69696 5.53033ZM15.8333 9.25L4.16663 9.25L4.16663 10.75L15.8333 10.75V9.25ZM9.69696 14.4697L4.69696 9.46967L3.6363 10.5303L8.6363 15.5303L9.69696 14.4697ZM4.69696 10.5303L9.69696 5.53033L8.6363 4.46967L3.6363 9.46967L4.69696 10.5303Z" fill="#0D4BA0"/>
</svg>
