<svg width="21" height="20" viewBox="0 0 21 20" fill="none" xmlns="http://www.w3.org/2000/svg">
<path d="M4.74317 16.4851L5.08367 15.8168L4.74317 16.4851ZM4.015 15.7568L3.34674 16.0973H3.34674L4.015 15.7568ZM16.9852 15.7568L16.3169 15.4163L16.9852 15.7568ZM16.2565 16.4851L15.916 15.8168L16.2565 16.4851ZM16.2565 3.51507L16.597 2.84682L16.2565 3.51507ZM16.9852 4.24345L16.3169 4.58394L16.9852 4.24345ZM4.74317 3.51507L5.08367 4.18333L4.74317 3.51507ZM4.015 4.24345L4.68325 4.58394L4.015 4.24345ZM13.8333 13.3334V12.5834C13.4191 12.5834 13.0833 12.9192 13.0833 13.3334H13.8333ZM13.835 13.3334L14.5848 13.3509C14.5895 13.149 14.5126 12.9538 14.3715 12.8093C14.2304 12.6649 14.037 12.5834 13.835 12.5834V13.3334ZM13.835 13.3351L13.817 14.0849C14.016 14.0896 14.2086 14.0151 14.3526 13.8778C14.4966 13.7405 14.5801 13.5515 14.5848 13.3526L13.835 13.3351ZM13.8333 13.335H13.0833C13.0833 13.7423 13.4083 14.0751 13.8154 14.0848L13.8333 13.335ZM10.5 13.3334V12.5834C10.0858 12.5834 9.75001 12.9192 9.75001 13.3334H10.5ZM10.5017 13.3334L11.2515 13.3509C11.2562 13.149 11.1793 12.9538 11.0382 12.8093C10.897 12.6649 10.7036 12.5834 10.5017 12.5834V13.3334ZM10.5016 13.3351L10.4837 14.0849C10.6826 14.0896 10.8753 14.0151 11.0193 13.8778C11.1633 13.7405 11.2468 13.5515 11.2514 13.3526L10.5016 13.3351ZM10.5 13.335H9.75001C9.75001 13.7423 10.075 14.0751 10.4821 14.0848L10.5 13.335ZM7.16668 13.3334V12.5834C6.75246 12.5834 6.41668 12.9192 6.41668 13.3334H7.16668ZM7.16834 13.3334L7.91814 13.3509C7.92286 13.149 7.84595 12.9538 7.70483 12.8093C7.56371 12.6649 7.37029 12.5834 7.16834 12.5834V13.3334ZM7.1683 13.3351L7.15037 14.0849C7.34929 14.0896 7.54196 14.0151 7.68595 13.8778C7.82994 13.7405 7.91345 13.5515 7.9181 13.3526L7.1683 13.3351ZM7.16668 13.335H6.41668C6.41668 13.7423 6.74163 14.0751 7.14874 14.0848L7.16668 13.335ZM13.835 10.0001H14.585C14.585 9.58587 14.2492 9.25008 13.835 9.25008V10.0001ZM13.835 10.0017L13.817 10.7515C14.019 10.7564 14.2144 10.6795 14.3589 10.5384C14.5035 10.3972 14.585 10.2038 14.585 10.0017H13.835ZM13.8333 10.0017H13.0833C13.0833 10.4089 13.4083 10.7418 13.8154 10.7515L13.8333 10.0017ZM13.8333 10.0001V9.25008C13.4191 9.25008 13.0833 9.58587 13.0833 10.0001H13.8333ZM10.5 10.0001V9.25008C10.0858 9.25008 9.75001 9.58587 9.75001 10.0001H10.5ZM10.5017 10.0001L11.2515 10.0176C11.2562 9.81571 11.1793 9.62044 11.0382 9.47598C10.897 9.33152 10.7036 9.25008 10.5017 9.25008V10.0001ZM10.5016 10.0017L10.4837 10.7515C10.6826 10.7563 10.8753 10.6818 11.0193 10.5445C11.1633 10.4071 11.2468 10.2182 11.2514 10.0193L10.5016 10.0017ZM10.5 10.0017H9.75001C9.75001 10.4089 10.075 10.7418 10.4821 10.7515L10.5 10.0017ZM7.16668 10.0001V9.25008C6.75246 9.25008 6.41668 9.58587 6.41668 10.0001H7.16668ZM7.16834 10.0001L7.91814 10.0176C7.92286 9.81571 7.84595 9.62044 7.70483 9.47598C7.56371 9.33152 7.37029 9.25008 7.16834 9.25008V10.0001ZM7.1683 10.0017L7.15037 10.7515C7.34929 10.7563 7.54196 10.6818 7.68595 10.5445C7.82994 10.4071 7.91345 10.2182 7.9181 10.0193L7.1683 10.0017ZM7.16668 10.0017H6.41668C6.41668 10.4089 6.74163 10.7418 7.14874 10.7515L7.16668 10.0017ZM3.83334 5.91675C3.41913 5.91675 3.08334 6.25253 3.08334 6.66675C3.08334 7.08096 3.41913 7.41675 3.83334 7.41675V5.91675ZM17.1667 7.41675C17.5809 7.41675 17.9167 7.08096 17.9167 6.66675C17.9167 6.25253 17.5809 5.91675 17.1667 5.91675V7.41675ZM14.5833 1.66675C14.5833 1.25253 14.2476 0.916748 13.8333 0.916748C13.4191 0.916748 13.0833 1.25253 13.0833 1.66675H14.5833ZM13.0833 3.33341C13.0833 3.74763 13.4191 4.08341 13.8333 4.08341C14.2476 4.08341 14.5833 3.74763 14.5833 3.33341H13.0833ZM7.91668 1.66675C7.91668 1.25253 7.58089 0.916748 7.16668 0.916748C6.75246 0.916748 6.41668 1.25253 6.41668 1.66675H7.91668ZM6.41668 3.33341C6.41668 3.74763 6.75246 4.08341 7.16668 4.08341C7.58089 4.08341 7.91668 3.74763 7.91668 3.33341H6.41668ZM6.50017 4.08341H14.5002V2.58341H6.50017V4.08341ZM16.4167 6.00004V14H17.9167V6.00004H16.4167ZM14.5002 15.9167H6.50017V17.4167H14.5002V15.9167ZM4.58334 14V6.00004H3.08334V14H4.58334ZM6.50017 15.9167C6.0211 15.9167 5.70679 15.9162 5.46641 15.8965C5.23473 15.8776 5.13854 15.8448 5.08367 15.8168L4.40268 17.1533C4.70432 17.307 5.01993 17.365 5.34426 17.3915C5.65989 17.4173 6.04582 17.4167 6.50017 17.4167V15.9167ZM3.08334 14C3.08334 14.4544 3.08276 14.8403 3.10854 15.1558C3.13504 15.4801 3.19306 15.7956 3.34674 16.0973L4.68325 15.4163C4.65528 15.3614 4.62248 15.2652 4.60356 15.0337C4.58393 14.7934 4.58334 14.4791 4.58334 14H3.08334ZM5.08367 15.8168C4.9113 15.729 4.7712 15.5889 4.68325 15.4163L3.34674 16.0973C3.57838 16.5519 3.94784 16.9216 4.40268 17.1533L5.08367 15.8168ZM16.4167 14C16.4167 14.4792 16.4161 14.7934 16.3965 15.0338C16.3777 15.2654 16.3449 15.3615 16.3169 15.4163L17.6535 16.0973C17.8072 15.7956 17.8651 15.48 17.8916 15.1557C17.9173 14.8402 17.9167 14.4543 17.9167 14H16.4167ZM14.5002 17.4167C14.9545 17.4167 15.3403 17.4173 15.6558 17.3915C15.9801 17.365 16.2954 17.307 16.597 17.1533L15.916 15.8168C15.861 15.8448 15.765 15.8776 15.5336 15.8965C15.2934 15.9162 14.9793 15.9167 14.5002 15.9167V17.4167ZM16.3169 15.4163C16.2293 15.5884 16.0889 15.7287 15.916 15.8168L16.597 17.1533C17.0513 16.9218 17.4216 16.5524 17.6535 16.0973L16.3169 15.4163ZM14.5002 4.08341C14.9793 4.08341 15.2934 4.084 15.5336 4.10363C15.765 4.12254 15.8611 4.15533 15.916 4.18333L16.597 2.84682C16.2954 2.69316 15.98 2.63512 15.6558 2.60861C15.3403 2.58283 14.9545 2.58341 14.5002 2.58341V4.08341ZM17.9167 6.00004C17.9167 5.54578 17.9173 5.15993 17.8916 4.84445C17.8651 4.52019 17.8072 4.20464 17.6535 3.90296L16.3169 4.58394C16.3449 4.63877 16.3777 4.73481 16.3965 4.96636C16.4161 5.20669 16.4167 5.52088 16.4167 6.00004H17.9167ZM15.916 4.18333C16.0888 4.27137 16.2292 4.41177 16.3169 4.58394L17.6535 3.90296C17.4216 3.44792 17.0514 3.07835 16.597 2.84682L15.916 4.18333ZM6.50017 2.58341C6.04583 2.58341 5.6599 2.58283 5.34428 2.60861C5.01995 2.6351 4.70434 2.69311 4.40268 2.84682L5.08367 4.18333C5.13853 4.15537 5.2347 4.12256 5.46639 4.10363C5.70678 4.084 6.02109 4.08341 6.50017 4.08341V2.58341ZM4.58334 6.00004C4.58334 5.52095 4.58393 5.20676 4.60356 4.96648C4.62248 4.73497 4.65527 4.63886 4.68325 4.58394L3.34674 3.90296C3.19307 4.20456 3.13504 4.52003 3.10854 4.84433C3.08276 5.15986 3.08334 5.54571 3.08334 6.00004H4.58334ZM4.40268 2.84682C3.94776 3.07861 3.57834 3.44842 3.34674 3.90296L4.68325 4.58394C4.77124 4.41127 4.91138 4.27111 5.08367 4.18333L4.40268 2.84682ZM13.8333 14.0834H13.835V12.5834H13.8333V14.0834ZM13.0852 13.3159L13.0852 13.3176L14.5848 13.3526L14.5848 13.3509L13.0852 13.3159ZM13.8529 12.5853L13.8513 12.5853L13.8154 14.0848L13.817 14.0849L13.8529 12.5853ZM14.5833 13.335V13.3334H13.0833V13.335H14.5833ZM10.5 14.0834H10.5017V12.5834H10.5V14.0834ZM9.75188 13.3159L9.75184 13.3176L11.2514 13.3526L11.2515 13.3509L9.75188 13.3159ZM10.5196 12.5853L10.5179 12.5853L10.4821 14.0848L10.4837 14.0849L10.5196 12.5853ZM11.25 13.335V13.3334H9.75001V13.335H11.25ZM7.16668 14.0834H7.16834V12.5834H7.16668V14.0834ZM6.41855 13.3159L6.41851 13.3176L7.9181 13.3526L7.91814 13.3509L6.41855 13.3159ZM7.18624 12.5853L7.18462 12.5853L7.14874 14.0848L7.15037 14.0849L7.18624 12.5853ZM7.91668 13.335V13.3334H6.41668V13.335H7.91668ZM13.085 10.0001V10.0017H14.585V10.0001H13.085ZM13.8529 9.25196L13.8513 9.25192L13.8154 10.7515L13.817 10.7515L13.8529 9.25196ZM14.5833 10.0017V10.0001H13.0833V10.0017H14.5833ZM13.8333 10.7501H13.835V9.25008H13.8333V10.7501ZM10.5 10.7501H10.5017V9.25008H10.5V10.7501ZM9.75188 9.98256L9.75184 9.98423L11.2514 10.0193L11.2515 10.0176L9.75188 9.98256ZM10.5196 9.25196L10.5179 9.25192L10.4821 10.7515L10.4837 10.7515L10.5196 9.25196ZM11.25 10.0017V10.0001H9.75001V10.0017H11.25ZM7.16668 10.7501H7.16834V9.25008H7.16668V10.7501ZM6.41855 9.98256L6.41851 9.98423L7.9181 10.0193L7.91814 10.0176L6.41855 9.98256ZM7.18624 9.25196L7.18462 9.25192L7.14874 10.7515L7.15037 10.7515L7.18624 9.25196ZM7.91668 10.0017V10.0001H6.41668V10.0017H7.91668ZM3.83334 7.41675H17.1667V5.91675H3.83334V7.41675ZM13.0833 1.66675V3.33341H14.5833V1.66675H13.0833ZM6.41668 1.66675V3.33341H7.91668V1.66675H6.41668Z" fill="white"/>
</svg>
