<svg width="21" height="21" viewBox="0 0 21 21" fill="none" xmlns="http://www.w3.org/2000/svg">
<path d="M13.5303 9.36366C13.8232 9.07077 13.8232 8.5959 13.5303 8.303C13.2374 8.01011 12.7626 8.01011 12.4697 8.303L13.5303 9.36366ZM9.66667 12.1667L9.13634 12.697C9.42923 12.9899 9.9041 12.9899 10.197 12.697L9.66667 12.1667ZM8.53033 9.96967C8.23744 9.67678 7.76256 9.67678 7.46967 9.96967C7.17678 10.2626 7.17678 10.7374 7.46967 11.0303L8.53033 9.96967ZM10.5 17.25C6.77208 17.25 3.75 14.2279 3.75 10.5H2.25C2.25 15.0563 5.94365 18.75 10.5 18.75V17.25ZM3.75 10.5C3.75 6.77208 6.77208 3.75 10.5 3.75V2.25C5.94365 2.25 2.25 5.94365 2.25 10.5H3.75ZM10.5 3.75C14.2279 3.75 17.25 6.77208 17.25 10.5H18.75C18.75 5.94365 15.0563 2.25 10.5 2.25V3.75ZM17.25 10.5C17.25 14.2279 14.2279 17.25 10.5 17.25V18.75C15.0563 18.75 18.75 15.0563 18.75 10.5H17.25ZM12.4697 8.303L9.13634 11.6363L10.197 12.697L13.5303 9.36366L12.4697 8.303ZM10.197 11.6363L8.53033 9.96967L7.46967 11.0303L9.13634 12.697L10.197 11.6363Z" fill="#212121"/>
</svg>
