<svg width="20" height="20" viewBox="0 0 20 20" fill="none" xmlns="http://www.w3.org/2000/svg">
<path d="M10.75 5.83333C10.75 5.41912 10.4142 5.08333 10 5.08333C9.58579 5.08333 9.25 5.41912 9.25 5.83333H10.75ZM10 10H9.25C9.25 10.4142 9.58579 10.75 10 10.75V10ZM14.1667 10.75C14.5809 10.75 14.9167 10.4142 14.9167 10C14.9167 9.58579 14.5809 9.25 14.1667 9.25V10.75ZM10 16.75C6.27208 16.75 3.25 13.7279 3.25 10H1.75C1.75 14.5563 5.44365 18.25 10 18.25V16.75ZM3.25 10C3.25 6.27208 6.27208 3.25 10 3.25V1.75C5.44365 1.75 1.75 5.44365 1.75 10H3.25ZM10 3.25C13.7279 3.25 16.75 6.27208 16.75 10H18.25C18.25 5.44365 14.5563 1.75 10 1.75V3.25ZM16.75 10C16.75 13.7279 13.7279 16.75 10 16.75V18.25C14.5563 18.25 18.25 14.5563 18.25 10H16.75ZM9.25 5.83333V10H10.75V5.83333H9.25ZM10 10.75H14.1667V9.25H10V10.75Z" fill="white"/>
</svg>
