<svg width="21" height="20" viewBox="0 0 21 20" fill="none" xmlns="http://www.w3.org/2000/svg">
<path d="M7.16667 9.25C6.75245 9.25 6.41667 9.58579 6.41667 10C6.41667 10.4142 6.75245 10.75 7.16667 10.75V9.25ZM13.8333 10.75C14.2475 10.75 14.5833 10.4142 14.5833 10C14.5833 9.58579 14.2475 9.25 13.8333 9.25V10.75ZM9.75 13.3333C9.75 13.7475 10.0858 14.0833 10.5 14.0833C10.9142 14.0833 11.25 13.7475 11.25 13.3333H9.75ZM11.25 6.66667C11.25 6.25245 10.9142 5.91667 10.5 5.91667C10.0858 5.91667 9.75 6.25245 9.75 6.66667H11.25ZM10.5 16.75C6.77208 16.75 3.75 13.7279 3.75 10H2.25C2.25 14.5563 5.94365 18.25 10.5 18.25V16.75ZM3.75 10C3.75 6.27208 6.77208 3.25 10.5 3.25V1.75C5.94365 1.75 2.25 5.44365 2.25 10H3.75ZM10.5 3.25C14.2279 3.25 17.25 6.27208 17.25 10H18.75C18.75 5.44365 15.0563 1.75 10.5 1.75V3.25ZM17.25 10C17.25 13.7279 14.2279 16.75 10.5 16.75V18.25C15.0563 18.25 18.75 14.5563 18.75 10H17.25ZM7.16667 10.75H13.8333V9.25H7.16667V10.75ZM11.25 13.3333V6.66667H9.75V13.3333H11.25Z" fill="white"/>
</svg>
