<svg width="14" height="14" viewBox="0 0 14 14" fill="none" xmlns="http://www.w3.org/2000/svg">
<path d="M12.1944 3.4H9.44444V2.5C9.44366 1.67189 8.76011 1.00077 7.91667 1H6.08333C5.23989 1.00077 4.55634 1.67189 4.55556 2.5V3.4H1.80556C1.63681 3.4 1.5 3.53433 1.5 3.7C1.5 3.86567 1.63681 4 1.80556 4H2.72222V11.5C2.72301 12.3281 3.40655 12.9992 4.25 13H9.75C10.5934 12.9992 11.277 12.3281 11.2778 11.5V4H12.1944C12.3632 4 12.5 3.86567 12.5 3.7C12.5 3.53433 12.3632 3.4 12.1944 3.4ZM5.16667 2.5C5.16723 2.00316 5.57729 1.60055 6.08333 1.6H7.91667C8.42271 1.60055 8.83277 2.00316 8.83333 2.5V3.4H5.16667V2.5ZM10.6667 11.5C10.6661 11.9968 10.256 12.3995 9.75 12.4H4.25C3.74396 12.3995 3.33389 11.9968 3.33333 11.5V4H10.6667V11.5ZM5.47222 10.6H5.4726C5.64123 10.5999 5.77789 10.4656 5.77778 10.3V6.1C5.77778 5.93433 5.64096 5.8 5.47222 5.8C5.30348 5.8 5.16667 5.93433 5.16667 6.1V10.3003C5.16678 10.4659 5.30356 10.6001 5.47222 10.6ZM8.52778 10.6H8.52815C8.69678 10.5999 8.83345 10.4656 8.83333 10.3V6.1C8.83333 5.93433 8.69652 5.8 8.52778 5.8C8.35904 5.8 8.22222 5.93433 8.22222 6.1V10.3003C8.22233 10.4659 8.35911 10.6001 8.52778 10.6Z" fill="#E64646"/>
</svg>
