<svg width="16" height="16" viewBox="0 0 16 16" fill="none" xmlns="http://www.w3.org/2000/svg">
<path d="M1.33334 12.8334C1.0572 12.8334 0.833344 13.0572 0.833344 13.3334C0.833344 13.6095 1.0572 13.8334 1.33334 13.8334V12.8334ZM14.6667 13.8334C14.9428 13.8334 15.1667 13.6095 15.1667 13.3334C15.1667 13.0572 14.9428 12.8334 14.6667 12.8334V13.8334ZM13.3333 13.3334V13.8334C13.6095 13.8334 13.8333 13.6095 13.8333 13.3334H13.3333ZM12.6258 7.99174L12.2916 8.36368L12.6258 7.99174ZM11.0925 6.6142L11.4266 6.24225V6.24225L11.0925 6.6142ZM8.24096 6.6142L7.90681 6.24225L7.90681 6.24225L8.24096 6.6142ZM7.66586 6.45872C7.46044 6.64327 7.44352 6.9594 7.62807 7.16482C7.81261 7.37024 8.12874 7.38716 8.33416 7.20261L7.66586 6.45872ZM10.0514 5.84914L10.1957 5.37042L10.0514 5.84914ZM9.2818 5.84914L9.42611 6.32787L9.2818 5.84914ZM13.2914 8.88999L13.7756 8.76549L13.2914 8.88999ZM13.1099 8.48333L13.5262 8.20631L13.1099 8.48333ZM2.66668 13.3334H2.16668C2.16668 13.6095 2.39053 13.8334 2.66668 13.8334V13.3334ZM2.812 3.39471L3.2575 3.62171L2.812 3.39471ZM3.39454 2.81201L3.62154 3.25751L3.39454 2.81201ZM7.85483 3.39471L7.40932 3.62171L7.85483 3.39471ZM7.27187 2.81201L7.49886 2.36651V2.36651L7.27187 2.81201ZM1.33334 13.8334H14.6667V12.8334H1.33334V13.8334ZM8.00001 13.8334H13.3333V12.8334H8.00001V13.8334ZM13.8333 13.3334V9.57871H12.8333V13.3334H13.8333ZM12.9599 7.61979L11.4266 6.24225L10.7583 6.98614L12.2916 8.36368L12.9599 7.61979ZM7.90681 6.24225L7.66586 6.45872L8.33416 7.20261L8.57511 6.98614L7.90681 6.24225ZM11.4266 6.24225C11.1804 6.02104 10.9747 5.83581 10.794 5.69728C10.6084 5.55499 10.4192 5.43778 10.1957 5.37042L9.90714 6.32787C9.96859 6.34639 10.0479 6.38531 10.1856 6.49087C10.3282 6.6002 10.5005 6.75456 10.7583 6.98614L11.4266 6.24225ZM8.57511 6.98614C8.83291 6.75453 9.00524 6.60018 9.14782 6.49083C9.28547 6.38527 9.3647 6.34638 9.42611 6.32787L9.1375 5.37042C8.914 5.43779 8.72481 5.55502 8.53927 5.69732C8.35865 5.83584 8.15301 6.02107 7.90681 6.24225L8.57511 6.98614ZM10.1957 5.37042C9.85067 5.2664 9.48257 5.2664 9.1375 5.37042L9.42611 6.32787C9.58296 6.28058 9.75029 6.28058 9.90714 6.32787L10.1957 5.37042ZM13.8333 9.57871C13.8333 9.25418 13.837 9.0044 13.7756 8.76549L12.8071 9.0145C12.8297 9.10229 12.8333 9.20274 12.8333 9.57871H13.8333ZM12.2916 8.36368C12.5711 8.61471 12.6434 8.68481 12.6937 8.76035L13.5262 8.20631C13.3896 8.00102 13.2016 7.83692 12.9599 7.61979L12.2916 8.36368ZM13.7756 8.76549C13.7244 8.56624 13.64 8.37726 13.5262 8.20631L12.6937 8.76035C12.7456 8.83828 12.7839 8.92419 12.8071 9.0145L13.7756 8.76549ZM7.50001 4.79999V13.3334H8.50001V4.79999H7.50001ZM8.00001 12.8334H2.66668V13.8334H8.00001V12.8334ZM3.16668 13.3334V4.79999H2.16668V13.3334H3.16668ZM4.80014 3.16669H5.86681V2.16669H4.80014V3.16669ZM3.16668 4.79999C3.16668 4.41837 3.16707 4.16224 3.18318 3.965C3.19882 3.7736 3.22674 3.68209 3.2575 3.62171L2.3665 3.16772C2.25194 3.39256 2.2072 3.63031 2.1865 3.88356C2.16629 4.13097 2.16668 4.43487 2.16668 4.79999H3.16668ZM4.80014 2.16669C4.43502 2.16669 4.13105 2.1663 3.88357 2.18651C3.63028 2.2072 3.39242 2.25193 3.16755 2.36651L3.62154 3.25751C3.68188 3.22677 3.77345 3.19884 3.96497 3.18319C4.1623 3.16708 4.41853 3.16669 4.80014 3.16669V2.16669ZM3.2575 3.62171C3.33747 3.46478 3.46486 3.33734 3.62154 3.25751L3.16755 2.36651C2.82245 2.54234 2.5422 2.82288 2.3665 3.16772L3.2575 3.62171ZM8.50001 4.79999C8.50001 4.43492 8.50043 4.13102 8.48026 3.88364C8.45961 3.63042 8.41492 3.39261 8.30033 3.16772L7.40932 3.62171C7.44006 3.68203 7.46796 3.7735 7.48357 3.96492C7.49966 4.16219 7.50001 4.41832 7.50001 4.79999H8.50001ZM5.86681 3.16669C6.24843 3.16669 6.5045 3.16708 6.70168 3.18319C6.89299 3.19883 6.98447 3.22674 7.04487 3.25751L7.49886 2.36651C7.27405 2.25196 7.03637 2.20721 6.78314 2.18651C6.53577 2.1663 6.23192 2.16669 5.86681 2.16669V3.16669ZM8.30033 3.16772C8.12446 2.82255 7.84362 2.54217 7.49886 2.36651L7.04487 3.25751C7.20188 3.33751 7.32953 3.46511 7.40932 3.62171L8.30033 3.16772Z" fill="#048848"/>
</svg>
