<svg width="17" height="17" viewBox="0 0 17 17" fill="none" xmlns="http://www.w3.org/2000/svg">
<path d="M12.5 13.1667C13.2364 13.1667 13.8333 12.5697 13.8333 11.8333C13.8333 11.097 13.2364 10.5 12.5 10.5C11.7636 10.5 11.1667 11.097 11.1667 11.8333C11.1667 12.5697 11.7636 13.1667 12.5 13.1667Z" stroke="#E11900" stroke-linecap="round" stroke-linejoin="round"/>
<path d="M3.83333 11.1667V11.8334C3.83333 12.187 3.97381 12.5261 4.22386 12.7762C4.47391 13.0262 4.81304 13.1667 5.16667 13.1667C5.52029 13.1667 5.85943 13.0262 6.10948 12.7762C6.35952 12.5261 6.5 12.187 6.5 11.8334V8.50004H4.5C3.96957 8.50004 3.46086 8.71075 3.08579 9.08583C2.71071 9.4609 2.5 9.96961 2.5 10.5V11.1667H9.16667C9.41376 10.4528 9.85797 9.82348 10.4479 9.35155C11.0378 8.87962 11.7493 8.5844 12.5 8.50004V5.16671C12.5 4.81309 12.3595 4.47395 12.1095 4.2239C11.8594 3.97385 11.5203 3.83337 11.1667 3.83337H10.5" stroke="#E11900" stroke-linecap="round" stroke-linejoin="round"/>
<path d="M4.5 6.5H6.5" stroke="#E11900" stroke-linecap="round" stroke-linejoin="round"/>
</svg>
