<svg width="48" height="48" viewBox="0 0 48 48" fill="none" xmlns="http://www.w3.org/2000/svg">
<mask id="path-1-inside-1_230_143" fill="white">
<path fill-rule="evenodd" clip-rule="evenodd" d="M29.2055 40.8572C37.7272 38.593 44 30.9039 44 21.7667C44 10.8498 35.0457 2 24 2C12.9543 2 4 10.8498 4 21.7667C4 30.9039 10.2728 38.593 18.7945 40.8572L23.2665 45.6834C23.6622 46.1105 24.3378 46.1105 24.7335 45.6834L29.2055 40.8572Z"/>
</mask>
<path fill-rule="evenodd" clip-rule="evenodd" d="M29.2055 40.8572C37.7272 38.593 44 30.9039 44 21.7667C44 10.8498 35.0457 2 24 2C12.9543 2 4 10.8498 4 21.7667C4 30.9039 10.2728 38.593 18.7945 40.8572L23.2665 45.6834C23.6622 46.1105 24.3378 46.1105 24.7335 45.6834L29.2055 40.8572Z" fill="white"/>
<path d="M29.2055 40.8572L28.692 38.9243L28.1322 39.073L27.7385 39.4978L29.2055 40.8572ZM18.7945 40.8572L20.2615 39.4978L19.8678 39.073L19.308 38.9243L18.7945 40.8572ZM23.2665 45.6834L24.7335 44.3241L24.7335 44.3241L23.2665 45.6834ZM24.7335 45.6834L23.2665 44.3241L23.2665 44.3241L24.7335 45.6834ZM42 21.7667C42 29.9603 36.3733 36.8834 28.692 38.9243L29.7191 42.7901C39.081 40.3027 46 31.8474 46 21.7667H42ZM24 4C33.9633 4 42 11.9765 42 21.7667H46C46 9.72322 36.1281 0 24 0V4ZM6 21.7667C6 11.9765 14.0367 4 24 4V0C11.8719 0 2 9.72322 2 21.7667H6ZM19.308 38.9243C11.6267 36.8834 6 29.9603 6 21.7667H2C2 31.8474 8.91895 40.3027 18.2809 42.7901L19.308 38.9243ZM24.7335 44.3241L20.2615 39.4978L17.3274 42.2166L21.7995 47.0428L24.7335 44.3241ZM23.2665 44.3241C23.6622 43.897 24.3378 43.897 24.7335 44.3241L21.7995 47.0428C22.9867 48.3241 25.0133 48.3241 26.2005 47.0428L23.2665 44.3241ZM27.7385 39.4978L23.2665 44.3241L26.2005 47.0428L30.6726 42.2166L27.7385 39.4978Z" fill="#E40808" mask="url(#path-1-inside-1_230_143)"/>
<g clip-path="url(#clip0_230_143)">
<path d="M32.9792 15C32.9792 14.4486 32.5306 14 31.9792 14H16.6459C16.0945 14 15.6459 14.4486 15.6459 15V17.0524C15.6459 17.2365 15.7951 17.3858 15.9792 17.3858C16.1633 17.3858 16.3125 17.2365 16.3125 17.0524V15C16.3125 14.8162 16.4621 14.6667 16.6459 14.6667H26.3125V15.3333C26.3125 15.5171 26.163 15.6667 25.9792 15.6667H22.6459C22.4618 15.6667 22.3125 15.8159 22.3125 16C22.3125 16.1841 22.4618 16.3333 22.6459 16.3333H25.9792C26.5306 16.3333 26.9792 15.8847 26.9792 15.3333V14.6667H31.9792C32.163 14.6667 32.3125 14.8162 32.3125 15V17.75C32.3125 17.9338 32.163 18.0833 31.9792 18.0833H16.6459C16.0945 18.0833 15.6459 18.5319 15.6459 19.0833V21.7917C15.6459 22.3431 16.0945 22.7917 16.6459 22.7917H20.0931C19.9856 23.0548 19.9894 23.3526 20.1134 23.6194C20.2496 23.9125 20.3065 24.1862 20.2874 24.456C20.2272 25.3073 19.3886 25.6882 18.9573 26.9585C18.7494 27.5708 18.6927 28.2329 18.788 28.9306L15.2065 30.7012C15.0415 30.7828 14.9738 30.9827 15.0554 31.1478C15.1367 31.3123 15.3364 31.3807 15.502 31.2988L19.06 29.5398L20.0404 30.568C20.1675 30.7013 20.3784 30.7062 20.5117 30.5792C20.6449 30.4522 20.6499 30.2412 20.5229 30.1079L19.4748 29.0087C19.3598 28.3513 19.398 27.7341 19.5886 27.1728C19.9819 26.0145 20.8731 25.6244 20.9524 24.503C20.9793 24.123 20.9004 23.7312 20.718 23.3385C20.5861 23.0547 20.8448 22.7425 21.1521 22.8104C21.712 22.9339 22.1449 23.3644 22.2821 23.934C22.4451 24.6106 22.391 25.3342 22.1258 26.0265C21.877 26.6755 22.1634 27.402 22.792 27.7162C23.3501 27.9953 24.0391 27.8476 24.4303 27.3651C25.9894 25.443 26.1492 23.9634 27.376 23.29C27.3885 23.2843 27.4006 23.2778 27.4123 23.2706C27.6823 23.1281 28.0047 23.0208 28.4077 22.9488C28.802 22.8785 29.1276 23.2514 29.0076 23.6292C28.9628 23.7703 28.8643 23.8842 28.7302 23.95C26.0998 25.2418 26.2638 27.8303 24.7394 29.4795C23.9511 30.3324 22.7995 30.8963 21.3168 31.1555C21.2554 31.1662 21.2011 31.1934 21.1571 31.2313C21.1153 31.262 21.2116 31.158 19.9863 32.5432L18.7723 31.27C18.6453 31.1368 18.4343 31.1318 18.301 31.2587C18.1678 31.3858 18.1628 31.5968 18.2898 31.73L19.543 33.0443L19.1878 33.4458C18.9975 33.661 19.1525 34 19.4373 34C19.5295 34 19.6212 33.962 19.6871 33.8875L21.5416 31.7911C23.1187 31.4972 24.3594 30.8727 25.2288 29.932C26.8692 28.1573 26.6598 25.7094 29.024 24.5484C29.6762 24.2281 29.909 23.4046 29.4869 22.7916H31.9791C32.5305 22.7916 32.9791 22.343 32.9791 21.7916V19.0833C32.9791 18.8273 32.8824 18.5937 32.7237 18.4166C32.8824 18.2395 32.9791 18.0058 32.9791 17.7499V15H32.9792ZM23.9126 26.9451C23.7166 27.1867 23.3707 27.2603 23.0901 27.1199C22.7212 26.9355 22.639 26.5503 22.7483 26.265C23.062 25.4462 23.1249 24.5861 22.9302 23.7778C22.8387 23.3983 22.6552 23.0616 22.404 22.7916H25.0909C24.8582 23.0712 24.4028 23.9741 24.1858 24.9713C24.1407 25.1788 24.2987 25.3756 24.5118 25.3756C24.6652 25.3756 24.8032 25.2691 24.8372 25.1131C24.972 24.4937 25.2013 23.897 25.5189 23.3395C25.7352 22.9594 26.211 22.8153 26.6048 23.0094C25.5418 23.8724 25.2692 25.2725 23.9126 26.9451V26.9451ZM32.3125 21.7917C32.3125 21.9755 32.163 22.125 31.9792 22.125H16.6459C16.4621 22.125 16.3125 21.9755 16.3125 21.7917V19.0833C16.3125 18.8995 16.4621 18.75 16.6459 18.75H26.3125V19.4167C26.3125 19.6005 26.163 19.75 25.9792 19.75H22.6459C22.4618 19.75 22.3125 19.8993 22.3125 20.0833C22.3125 20.2674 22.4618 20.4167 22.6459 20.4167H25.9792C26.5306 20.4167 26.9792 19.968 26.9792 19.4167V18.75H31.9792C32.163 18.75 32.3125 18.8995 32.3125 19.0833V21.7917Z" fill="#E40808"/>
</g>
<defs>
<clipPath id="clip0_230_143">
<rect width="20" height="20" fill="white" transform="translate(14 14)"/>
</clipPath>
</defs>
</svg>
