<svg width="17" height="16" viewBox="0 0 17 16" fill="none" xmlns="http://www.w3.org/2000/svg">
<path d="M6.18689 7.97001C5.99162 7.77475 5.67504 7.77475 5.47978 7.97001C5.28452 8.16528 5.28452 8.48186 5.47978 8.67712L6.18689 7.97001ZM8.66176 11.152L8.30821 11.5055C8.40198 11.5993 8.52916 11.652 8.66177 11.652C8.79438 11.652 8.92156 11.5993 9.01532 11.5055L8.66176 11.152ZM14.6719 5.84866C14.8671 5.65339 14.8671 5.33681 14.6719 5.14155C14.4766 4.9463 14.16 4.94631 13.9647 5.14157L14.6719 5.84866ZM2.85355 7.97001C2.65829 7.77475 2.34171 7.77475 2.14645 7.97001C1.95118 8.16528 1.95118 8.48186 2.14645 8.67712L2.85355 7.97001ZM4.97487 11.5055C5.17014 11.7008 5.48672 11.7008 5.68198 11.5055C5.87724 11.3103 5.87724 10.9937 5.68198 10.7984L4.97487 11.5055ZM11.3404 5.84706C11.5348 5.65091 11.5334 5.33433 11.3372 5.13996C11.1411 4.94559 10.8245 4.94703 10.6301 5.14318L11.3404 5.84706ZM8.47818 7.31478C8.2838 7.51093 8.28524 7.82751 8.48139 8.02188C8.67754 8.21625 8.99412 8.21481 9.18849 8.01867L8.47818 7.31478ZM5.47978 8.67712L8.30821 11.5055L9.01531 10.7984L6.18689 7.97001L5.47978 8.67712ZM9.01532 11.5055L14.6719 5.84866L13.9647 5.14157L8.3082 10.7985L9.01532 11.5055ZM2.14645 8.67712L4.97487 11.5055L5.68198 10.7984L2.85355 7.97001L2.14645 8.67712ZM10.6301 5.14318L8.47818 7.31478L9.18849 8.01867L11.3404 5.84706L10.6301 5.14318Z" fill="#048848"/>
</svg>
