<svg width="48" height="48" viewBox="0 0 48 48" fill="none" xmlns="http://www.w3.org/2000/svg">
<mask id="path-1-inside-1_222_186" fill="white">
<path fill-rule="evenodd" clip-rule="evenodd" d="M29.2055 40.8572C37.7272 38.593 44 30.9039 44 21.7667C44 10.8498 35.0457 2 24 2C12.9543 2 4 10.8498 4 21.7667C4 30.9039 10.2728 38.593 18.7945 40.8572L23.2665 45.6834C23.6622 46.1105 24.3378 46.1105 24.7335 45.6834L29.2055 40.8572Z"/>
</mask>
<path fill-rule="evenodd" clip-rule="evenodd" d="M29.2055 40.8572C37.7272 38.593 44 30.9039 44 21.7667C44 10.8498 35.0457 2 24 2C12.9543 2 4 10.8498 4 21.7667C4 30.9039 10.2728 38.593 18.7945 40.8572L23.2665 45.6834C23.6622 46.1105 24.3378 46.1105 24.7335 45.6834L29.2055 40.8572Z" fill="white"/>
<path d="M29.2055 40.8572L28.692 38.9243L28.1322 39.073L27.7385 39.4978L29.2055 40.8572ZM18.7945 40.8572L20.2615 39.4978L19.8678 39.073L19.308 38.9243L18.7945 40.8572ZM23.2665 45.6834L24.7335 44.3241L24.7335 44.3241L23.2665 45.6834ZM24.7335 45.6834L23.2665 44.3241L23.2665 44.3241L24.7335 45.6834ZM42 21.7667C42 29.9603 36.3733 36.8834 28.692 38.9243L29.7191 42.7901C39.081 40.3027 46 31.8474 46 21.7667H42ZM24 4C33.9633 4 42 11.9765 42 21.7667H46C46 9.72322 36.1281 0 24 0V4ZM6 21.7667C6 11.9765 14.0367 4 24 4V0C11.8719 0 2 9.72322 2 21.7667H6ZM19.308 38.9243C11.6267 36.8834 6 29.9603 6 21.7667H2C2 31.8474 8.91895 40.3027 18.2809 42.7901L19.308 38.9243ZM24.7335 44.3241L20.2615 39.4978L17.3274 42.2166L21.7995 47.0428L24.7335 44.3241ZM23.2665 44.3241C23.6622 43.897 24.3378 43.897 24.7335 44.3241L21.7995 47.0428C22.9867 48.3241 25.0133 48.3241 26.2005 47.0428L23.2665 44.3241ZM27.7385 39.4978L23.2665 44.3241L26.2005 47.0428L30.6726 42.2166L27.7385 39.4978Z" fill="#029408" mask="url(#path-1-inside-1_222_186)"/>
<g clip-path="url(#clip0_222_186)">
<path d="M31.1345 30.9992L31.0451 31.042C30.8789 31.1215 30.68 31.0511 30.6005 30.8853C30.521 30.7192 30.5911 30.5201 30.7572 30.4406L30.8466 30.3978C31.6937 29.9923 32.148 29.0355 31.9267 28.1227L31.299 25.5332C31.1431 24.89 30.6803 24.3666 30.0611 24.133L27.8472 23.298C27.675 23.233 27.588 23.0408 27.653 22.8685C27.718 22.6963 27.9102 22.6093 28.0825 22.6743L30.2964 23.5092C31.122 23.8207 31.739 24.5185 31.9469 25.3761L32.5746 27.9656C32.8696 29.1827 32.264 30.4585 31.1345 30.9992V30.9992ZM16.701 25.5333C16.8569 24.89 17.3197 24.3667 17.9389 24.1331L22.0725 22.574C24.7699 23.9163 27.9189 21.9146 27.9189 18.9003L27.9167 18.0408C27.9162 17.857 27.767 17.7083 27.5833 17.7083C27.399 17.7083 27.2495 17.858 27.25 18.0425L27.2522 18.9011C27.2522 20.7767 25.7476 22.3136 23.8982 22.3273C22.0304 22.3443 20.4927 20.8333 20.4927 18.9478L20.493 18.0312C20.4931 17.847 20.3439 17.6977 20.1598 17.6977C19.9757 17.6977 19.8264 17.8468 19.8264 18.0309L19.8261 18.9477C19.8261 20.1963 20.3885 21.3516 21.3688 22.1269L17.7037 23.5093C16.8781 23.8207 16.2611 24.5186 16.0532 25.3762L15.4254 27.9657C15.1304 29.1827 15.736 30.4585 16.8655 30.9992L16.9549 31.042C17.1216 31.1217 17.3202 31.0508 17.3995 30.8853C17.479 30.7193 17.4089 30.5202 17.2428 30.4407L17.1534 30.3979C16.3063 29.9924 15.8521 29.0355 16.0733 28.1227L16.701 25.5333ZM22.3692 18.031V18.5906C22.3692 18.7747 22.5185 18.9239 22.7026 18.9239C22.8867 18.9239 23.0359 18.7747 23.0359 18.5906V18.031C23.0359 17.847 22.8867 17.6977 22.7026 17.6977C22.5185 17.6977 22.3692 17.847 22.3692 18.031ZM24.709 18.031V18.5906C24.709 18.7747 24.8582 18.9239 25.0423 18.9239C25.2264 18.9239 25.3757 18.7747 25.3757 18.5906V18.031C25.3757 17.847 25.2264 17.6977 25.0423 17.6977C24.8582 17.6977 24.709 17.847 24.709 18.031ZM27.1052 24H24.3684C24.1843 24 24.035 24.1493 24.035 24.3333C24.035 24.5174 24.1843 24.6667 24.3684 24.6667H27.1052C27.231 24.6667 27.3333 24.769 27.3333 24.8948V31.1053C27.3333 31.2311 27.231 31.3334 27.1052 31.3334H20.8947C20.769 31.3334 20.6667 31.2311 20.6667 31.1053V24.8948C20.6667 24.769 20.769 24.6667 20.8947 24.6667H22.4211V26.2745C22.4211 26.8536 23.0464 27.217 23.5498 26.9295L23.9389 26.707C23.9658 26.6918 23.9992 26.6917 24.026 26.707L24.4152 26.9295C24.9181 27.2168 25.5439 26.8542 25.5439 26.2745V25.6403C25.5439 25.4563 25.3947 25.307 25.2106 25.307C25.0265 25.307 24.8772 25.4563 24.8772 25.6403V26.2745C24.8772 26.3162 24.8535 26.3388 24.8336 26.3503C24.7757 26.3839 24.7785 26.3691 24.3567 26.1282C24.126 25.9962 23.8392 25.9963 23.6082 26.1282L23.219 26.3506C23.16 26.3843 23.0878 26.3423 23.0878 26.2745V24.3333C23.0878 24.1493 22.9385 24 22.7545 24H20.8948C20.4014 24 20 24.4014 20 24.8948V31.1053C20 31.5987 20.4014 32 20.8947 32H27.1053C27.5987 32 28 31.5987 28 31.1053V24.8948C28 24.4014 27.5986 24 27.1052 24ZM19.8276 14.0003C19.8276 12.8974 20.725 12 21.828 12H25.9185C27.0215 12 27.9189 12.8974 27.9189 14.0004C27.9189 14.6056 27.9167 15.4618 27.9167 15.5764C27.9167 16.4992 27.1659 17.25 26.243 17.25H21.507C20.5841 17.25 19.8333 16.4992 19.8333 15.5764C19.8333 15.255 19.8273 14.8975 19.8276 14.0003V14.0003ZM27.25 15.3333H20.5V15.5764C20.5 16.1316 20.9517 16.5833 21.507 16.5833H26.243C26.7983 16.5833 27.25 16.1316 27.25 15.5764V15.3333ZM20.494 14.6667H27.2522V14.0004C27.2522 13.265 26.6539 12.6667 25.9184 12.6667H21.828C21.0925 12.6667 20.4942 13.265 20.4942 14.0004L20.494 14.6667Z" fill="#029408"/>
</g>
<defs>
<clipPath id="clip0_222_186">
<rect width="20" height="20" fill="white" transform="translate(14 12)"/>
</clipPath>
</defs>
</svg>
