<svg width="48" height="48" viewBox="0 0 48 48" fill="none" xmlns="http://www.w3.org/2000/svg">
<mask id="path-1-inside-1_230_131" fill="white">
<path fill-rule="evenodd" clip-rule="evenodd" d="M29.2055 40.8572C37.7272 38.593 44 30.9039 44 21.7667C44 10.8498 35.0457 2 24 2C12.9543 2 4 10.8498 4 21.7667C4 30.9039 10.2728 38.593 18.7945 40.8572L23.2665 45.6834C23.6622 46.1105 24.3378 46.1105 24.7335 45.6834L29.2055 40.8572Z"/>
</mask>
<path fill-rule="evenodd" clip-rule="evenodd" d="M29.2055 40.8572C37.7272 38.593 44 30.9039 44 21.7667C44 10.8498 35.0457 2 24 2C12.9543 2 4 10.8498 4 21.7667C4 30.9039 10.2728 38.593 18.7945 40.8572L23.2665 45.6834C23.6622 46.1105 24.3378 46.1105 24.7335 45.6834L29.2055 40.8572Z" fill="white"/>
<path d="M29.2055 40.8572L28.692 38.9243L28.1322 39.073L27.7385 39.4978L29.2055 40.8572ZM18.7945 40.8572L20.2615 39.4978L19.8678 39.073L19.308 38.9243L18.7945 40.8572ZM23.2665 45.6834L24.7335 44.3241L24.7335 44.3241L23.2665 45.6834ZM24.7335 45.6834L23.2665 44.3241L23.2665 44.3241L24.7335 45.6834ZM42 21.7667C42 29.9603 36.3733 36.8834 28.692 38.9243L29.7191 42.7901C39.081 40.3027 46 31.8474 46 21.7667H42ZM24 4C33.9633 4 42 11.9765 42 21.7667H46C46 9.72322 36.1281 0 24 0V4ZM6 21.7667C6 11.9765 14.0367 4 24 4V0C11.8719 0 2 9.72322 2 21.7667H6ZM19.308 38.9243C11.6267 36.8834 6 29.9603 6 21.7667H2C2 31.8474 8.91895 40.3027 18.2809 42.7901L19.308 38.9243ZM24.7335 44.3241L20.2615 39.4978L17.3274 42.2166L21.7995 47.0428L24.7335 44.3241ZM23.2665 44.3241C23.6622 43.897 24.3378 43.897 24.7335 44.3241L21.7995 47.0428C22.9867 48.3241 25.0133 48.3241 26.2005 47.0428L23.2665 44.3241ZM27.7385 39.4978L23.2665 44.3241L26.2005 47.0428L30.6726 42.2166L27.7385 39.4978Z" fill="#E47F08" mask="url(#path-1-inside-1_230_131)"/>
<g clip-path="url(#clip0_230_131)">
<path d="M17.1937 22.0937C17.1576 22.2473 17.0207 22.3509 16.8695 22.3509C16.6541 22.3509 16.4956 22.1501 16.5447 21.9412C16.7543 21.0487 17.1625 19.956 17.7298 18.9392C17.1303 18.744 16.7084 18.1834 16.7084 17.5289C16.7084 16.9319 17.0639 16.3954 17.6141 16.162C17.7835 16.0901 17.9793 16.1692 18.0511 16.3387C18.123 16.5082 18.0439 16.7039 17.8744 16.7757C17.571 16.9044 17.375 17.2 17.375 17.5289C17.375 17.9482 17.6895 18.2974 18.1065 18.3414L18.2947 18.3612C18.5379 18.3867 18.6718 18.6577 18.5442 18.8664C17.8958 19.9276 17.4273 21.1 17.1937 22.0937V22.0937Z" fill="#E47F08"/>
<path d="M17.4436 23.0323C18.6691 23.0323 19.812 23.692 20.4263 24.7538C20.5185 24.9131 20.464 25.117 20.3047 25.2092C20.1453 25.3014 19.9414 25.247 19.8492 25.0876C19.3537 24.231 18.4319 23.699 17.4436 23.699C16.0252 23.699 14.8517 24.7685 14.6865 26.1432H31.0935C31.1312 25.4984 31.0486 24.8594 30.8551 24.2613C30.0401 22.4361 27.9471 22.1722 26.7201 23.5267C26.5965 23.6632 26.3857 23.6736 26.2492 23.55C26.1128 23.4265 26.1024 23.2157 26.226 23.0792C27.3349 21.855 29.1413 21.6184 30.4723 22.6807C30.5003 22.6663 30.5307 22.6556 30.5632 22.6495C31.0856 22.5515 31.5415 22.2589 31.8467 21.8257C31.9526 21.6752 32.1606 21.6391 32.3111 21.7451C32.4616 21.8511 32.4977 22.0591 32.3917 22.2095C32.0739 22.6607 31.633 22.9964 31.1235 23.1836C31.6494 24.1857 31.8642 25.3522 31.7301 26.5153C31.7107 26.6835 31.5683 26.8104 31.399 26.8104H30.4022C30.2384 28.0118 29.2063 28.9407 27.9607 28.9407C27.1761 28.9407 26.4563 28.58 25.9858 27.951C25.8756 27.8036 25.9057 27.5947 26.0531 27.4845C26.2005 27.3742 26.4094 27.4043 26.5197 27.5517C26.863 28.0108 27.3883 28.2741 27.9607 28.2741C28.8379 28.2741 29.5699 27.642 29.7272 26.8098H15.6523C15.8091 27.6426 16.5414 28.2741 17.419 28.2741C17.9895 28.2741 18.5137 28.0122 18.8572 27.5555C18.9679 27.4084 19.1769 27.3788 19.324 27.4895C19.4711 27.6001 19.5006 27.8091 19.39 27.9562C18.9195 28.5819 18.2011 28.9407 17.419 28.9407C16.173 28.9407 15.1406 28.0111 14.9773 26.8092H14.3333C14.1492 26.8092 14 26.6599 14 26.4758C14 24.5771 15.5448 23.0323 17.4436 23.0323V23.0323Z" fill="#E47F08"/>
<path d="M25.375 21.1842V22.8906C25.375 24.0674 24.4338 25.0569 23.1883 25.0593C22.5819 25.0593 22.0163 24.812 21.6206 24.3977C19.9432 22.6409 19.4354 20.2192 20.0858 17.9089C20.161 17.6415 20.0937 17.3624 19.9145 17.1586C19.6933 17.2506 19.4851 17.3738 19.2934 17.529C19.1503 17.6449 18.9404 17.6228 18.8245 17.4797C18.7087 17.3366 18.7308 17.1267 18.8739 17.0109C19.167 16.7736 19.4958 16.5944 19.8479 16.4743C19.8698 16.464 19.8925 16.4562 19.9159 16.4509C20.4075 16.2954 20.943 16.2551 21.4915 16.3384C21.6735 16.3661 21.7986 16.536 21.771 16.718C21.7433 16.9 21.5734 17.0252 21.3913 16.9975C21.1184 16.956 20.8538 16.9514 20.6002 16.9811C20.7834 17.3127 20.8351 17.7074 20.7276 18.0895C20.1186 20.2528 20.6198 22.3843 22.1028 23.9373C22.3793 24.2268 22.7732 24.3927 23.1841 24.3927C24.0382 24.3927 24.7084 23.7325 24.7084 22.8907V21.1843H24.5165C23.8412 21.1843 23.2917 20.6309 23.2917 19.9508C23.2917 19.2754 23.8412 18.7259 24.5165 18.7259H27.7335C28.6519 18.7259 29.2388 19.7097 28.8232 20.5176H32.4583C32.6421 20.5176 32.7917 20.3681 32.7917 20.1843V16.0593C32.7917 15.8755 32.6421 15.7259 32.4583 15.7259H28.5C28.3162 15.7259 28.1667 15.8755 28.1667 16.0593V17.8819C28.1667 18.0659 28.0174 18.2152 27.8333 18.2152C27.6493 18.2152 27.5 18.0659 27.5 17.8819V16.0592C27.5 15.5078 27.9486 15.0592 28.5 15.0592H32.4583C33.0097 15.0592 33.4583 15.5078 33.4583 16.0592V20.1842C33.4583 20.3011 33.438 20.4132 33.401 20.5176H33.6667C33.8508 20.5176 34 20.6668 34 20.8509C34 21.035 33.8508 21.1842 33.6667 21.1842H25.375ZM27.7335 19.3926H24.5165C24.2088 19.3926 23.9584 19.643 23.9584 19.9507C23.9584 20.2686 24.2036 20.5176 24.5165 20.5176H27.7335C28.0413 20.5176 28.2917 20.2672 28.2917 19.9594C28.2917 19.6415 28.0465 19.3926 27.7335 19.3926V19.3926Z" fill="#E47F08"/>
</g>
<defs>
<clipPath id="clip0_230_131">
<rect width="20" height="20" fill="white" transform="matrix(-1 0 0 1 34 12)"/>
</clipPath>
</defs>
</svg>
