<svg width="16" height="16" viewBox="0 0 16 16" fill="none" xmlns="http://www.w3.org/2000/svg">
<path d="M8.00001 8.00004L10.8486 5.62621C11.2718 5.27352 11.4835 5.09717 11.6356 4.881C11.7704 4.68946 11.8705 4.47573 11.9313 4.24956C12 3.9943 12 3.71883 12 3.16791V1.33337M8.00001 8.00004L5.15142 5.62622C4.72819 5.27352 4.51657 5.09717 4.36444 4.881C4.22964 4.68946 4.12954 4.47573 4.06869 4.24956C4.00001 3.9943 4.00001 3.71883 4.00001 3.16791V1.33337M8.00001 8.00004L10.8486 10.3739C11.2718 10.7266 11.4835 10.9029 11.6356 11.1191C11.7704 11.3106 11.8705 11.5243 11.9313 11.7505C12 12.0058 12 12.2812 12 12.8322V14.6667M8.00001 8.00004L5.15142 10.3739C4.72819 10.7266 4.51657 10.9029 4.36444 11.1191C4.22964 11.3106 4.12954 11.5243 4.06869 11.7505C4.00001 12.0058 4.00001 12.2812 4.00001 12.8322V14.6667M13.3333 1.33337H2.66668M13.3333 14.6667H2.66668" stroke="#276EF1" stroke-linecap="round" stroke-linejoin="round"/>
</svg>
