<svg width="16" height="17" viewBox="0 0 16 17" fill="none" xmlns="http://www.w3.org/2000/svg">
<path d="M4.00001 13.1667C3.26363 13.1667 2.66668 12.5697 2.66668 11.8333C2.66668 11.097 3.26363 10.5 4.00001 10.5C4.73639 10.5 5.33334 11.097 5.33334 11.8333C5.33334 12.5697 4.73639 13.1667 4.00001 13.1667Z" stroke="#DC6803" stroke-linecap="round" stroke-linejoin="round"/>
<path d="M12.6667 11.1666V11.8333C12.6667 12.1869 12.5262 12.5261 12.2761 12.7761C12.0261 13.0262 11.687 13.1666 11.3333 13.1666C10.9797 13.1666 10.6406 13.0262 10.3905 12.7761C10.1405 12.5261 10 12.1869 10 11.8333V8.49998H12C12.5304 8.49998 13.0391 8.71069 13.4142 9.08577C13.7893 9.46084 14 9.96955 14 10.5V11.1666H7.33333C7.08624 10.4527 6.64203 9.82342 6.05213 9.35149C5.46222 8.87956 4.75073 8.58434 4 8.49998V5.16665C4 4.81302 4.14048 4.47389 4.39052 4.22384C4.64057 3.97379 4.97971 3.83331 5.33333 3.83331H6" stroke="#DC6803" stroke-linecap="round" stroke-linejoin="round"/>
<path d="M12 6.5H10" stroke="#DC6803" stroke-linecap="round" stroke-linejoin="round"/>
</svg>
