<svg width="16" height="16" viewBox="0 0 16 16" fill="none" xmlns="http://www.w3.org/2000/svg">
<path d="M6.35355 5.64645C6.15829 5.45118 5.84171 5.45118 5.64645 5.64645C5.45118 5.84171 5.45118 6.15829 5.64645 6.35355L6.35355 5.64645ZM9.64636 10.3535C9.84162 10.5487 10.1582 10.5487 10.3535 10.3535C10.5487 10.1582 10.5487 9.84162 10.3535 9.64636L9.64636 10.3535ZM5.64645 9.64644C5.45118 9.84171 5.45118 10.1583 5.64645 10.3535C5.84171 10.5488 6.15829 10.5488 6.35355 10.3535L5.64645 9.64644ZM10.3535 6.35363C10.5487 6.15837 10.5487 5.84179 10.3535 5.64653C10.1582 5.45127 9.84162 5.45127 9.64636 5.64653L10.3535 6.35363ZM8 13.5C4.96243 13.5 2.5 11.0376 2.5 8H1.5C1.5 11.5899 4.41015 14.5 8 14.5V13.5ZM2.5 8C2.5 4.96243 4.96243 2.5 8 2.5V1.5C4.41015 1.5 1.5 4.41015 1.5 8H2.5ZM8 2.5C11.0376 2.5 13.5 4.96243 13.5 8H14.5C14.5 4.41015 11.5899 1.5 8 1.5V2.5ZM13.5 8C13.5 11.0376 11.0376 13.5 8 13.5V14.5C11.5899 14.5 14.5 11.5899 14.5 8H13.5ZM5.64645 6.35355L9.64636 10.3535L10.3535 9.64636L6.35355 5.64645L5.64645 6.35355ZM6.35355 10.3535L10.3535 6.35363L9.64636 5.64653L5.64645 9.64644L6.35355 10.3535Z" fill="#E11900"/>
</svg>
