<svg width="24" height="24" viewBox="0 0 24 24" fill="none" xmlns="http://www.w3.org/2000/svg">
<path d="M5 9.9231C5 14.7749 9.24448 18.7872 11.1232 20.3255L11.1239 20.3261C11.3933 20.5466 11.5281 20.657 11.7288 20.7135C11.885 20.7575 12.1148 20.7575 12.271 20.7135C12.472 20.6569 12.6071 20.5464 12.877 20.3255C14.7557 18.7872 19 14.7749 19 9.92306C19 8.08695 18.2625 6.32605 16.9497 5.02772C15.637 3.72939 13.8566 3 12 3C10.1435 3 8.36301 3.72938 7.05025 5.02771C5.7375 6.32604 5 8.08698 5 9.9231Z" stroke="white" stroke-width="1.5" stroke-linecap="round" stroke-linejoin="round"/>
</svg>
