<svg width="24" height="24" viewBox="0 0 24 24" fill="none" xmlns="http://www.w3.org/2000/svg">
<path d="M11.1232 20.3255L11.5983 19.7452V19.7452L11.1232 20.3255ZM12.877 20.3255L13.3521 20.9057L12.877 20.3255ZM11.7288 20.7135L11.9321 19.9916L11.7288 20.7135ZM12.271 20.7135L12.4743 21.4354L12.271 20.7135ZM12 10.25C11.3096 10.25 10.75 9.69036 10.75 9H9.25C9.25 10.5188 10.4812 11.75 12 11.75V10.25ZM10.75 9C10.75 8.30964 11.3096 7.75 12 7.75V6.25C10.4812 6.25 9.25 7.48122 9.25 9H10.75ZM12 7.75C12.6904 7.75 13.25 8.30964 13.25 9H14.75C14.75 7.48122 13.5188 6.25 12 6.25V7.75ZM13.25 9C13.25 9.69036 12.6904 10.25 12 10.25V11.75C13.5188 11.75 14.75 10.5188 14.75 9H13.25ZM11.5983 19.7452C10.6867 18.9987 9.20962 17.6581 7.96595 15.9289C6.71848 14.1945 5.75 12.1312 5.75 9.9231H4.25C4.25 12.5668 5.40375 14.9355 6.74821 16.8048C8.09645 18.6793 9.681 20.1139 10.648 20.9058L11.5983 19.7452ZM5.75 9.9231C5.75 8.28858 6.40645 6.71929 7.57764 5.56096L6.52286 4.49446C5.06855 5.93279 4.25 7.88538 4.25 9.9231H5.75ZM7.57764 5.56096C8.74912 4.40236 10.3398 3.75 12 3.75V2.25C9.94728 2.25 7.97689 3.0564 6.52286 4.49446L7.57764 5.56096ZM12 3.75C13.6603 3.75 15.2509 4.40236 16.4224 5.56097L17.4771 4.49447C16.0231 3.05642 14.0528 2.25 12 2.25V3.75ZM16.4224 5.56097C17.5935 6.7193 18.25 8.28854 18.25 9.92306H19.75C19.75 7.88536 18.9315 5.9328 17.4771 4.49447L16.4224 5.56097ZM18.25 9.92306C18.25 12.1312 17.2815 14.1945 16.0341 15.9289C14.7905 17.6581 13.3135 18.9987 12.4018 19.7452L13.3521 20.9057C14.3191 20.1139 15.9037 18.6793 17.2519 16.8047C18.5963 14.9355 19.75 12.5668 19.75 9.92306H18.25ZM10.648 20.9057C10.8855 21.1001 11.1447 21.3282 11.5256 21.4354L11.9321 19.9916C11.9232 19.989 11.9113 19.9863 11.8707 19.959C11.8138 19.9207 11.7431 19.8637 11.5983 19.7452L10.648 20.9057ZM12.4018 19.7452C12.2572 19.8635 12.1864 19.9205 12.1295 19.9588C12.0888 19.9862 12.0768 19.989 12.0677 19.9916L12.4743 21.4354C12.855 21.3282 13.1142 21.1005 13.3521 20.9057L12.4018 19.7452ZM11.5256 21.4354C11.8147 21.5168 12.1851 21.5168 12.4743 21.4354L12.0677 19.9916C12.0731 19.9901 12.0686 19.9917 12.0533 19.9935C12.0388 19.9953 12.0204 19.9965 11.9999 19.9965C11.9795 19.9965 11.9611 19.9953 11.9466 19.9935C11.9313 19.9917 11.9268 19.9901 11.9321 19.9916L11.5256 21.4354Z" fill="white"/>
</svg>
